InriaSerif-Bold.ufo
<glyph name="exclam" format="1">
  <advance width="255"/>
  <unicode hex="0021"/>
  <outline>
    <contour>
      <point x="145" y="202" type="line"/>
      <point x="145" y="429"/>
      <point x="185" y="488"/>
      <point x="185" y="680" type="curve"/>
      <point x="70" y="680" type="line"/>
      <point x="70" y="488"/>
      <point x="110" y="429"/>
      <point x="110" y="202" type="curve"/>
    </contour>
    <contour>
      <point x="127" y="-10" type="curve" smooth="yes"/>
      <point x="168" y="-10"/>
      <point x="198" y="18"/>
      <point x="198" y="61" type="curve" smooth="yes"/>
      <point x="198" y="103"/>
      <point x="168" y="131"/>
      <point x="127" y="131" type="curve" smooth="yes"/>
      <point x="85" y="131"/>
      <point x="57" y="103"/>
      <point x="57" y="61" type="curve" smooth="yes"/>
      <point x="57" y="18"/>
      <point x="85" y="-10"/>
    </contour>
  </outline>
</glyph>
<glyph name="quotedbl" format="1">
  <advance width="449"/>
  <unicode hex="0022"/>
  <outline>
    <contour>
      <point x="141" y="407" type="line"/>
      <point x="141" y="531"/>
      <point x="189" y="563"/>
      <point x="189" y="621" type="curve" smooth="yes"/>
      <point x="189" y="664"/>
      <point x="163" y="690"/>
      <point x="128" y="690" type="curve" smooth="yes"/>
      <point x="93" y="690"/>
      <point x="67" y="664"/>
      <point x="67" y="621" type="curve" smooth="yes"/>
      <point x="67" y="563"/>
      <point x="116" y="531"/>
      <point x="116" y="407" type="curve"/>
    </contour>
    <contour>
      <point x="334" y="407" type="line"/>
      <point x="334" y="531"/>
      <point x="382" y="563"/>
      <point x="382" y="621" type="curve" smooth="yes"/>
      <point x="382" y="664"/>
      <point x="356" y="690"/>
      <point x="321" y="690" type="curve" smooth="yes"/>
      <point x="286" y="690"/>
      <point x="260" y="664"/>
      <point x="260" y="621" type="curve" smooth="yes"/>
      <point x="260" y="563"/>
      <point x="309" y="531"/>
      <point x="309" y="407" type="curve"/>
    </contour>
  </outline>
</glyph>
<glyph name="numbersign" format="1">
  <advance width="638"/>
  <unicode hex="0023"/>
  <outline>
    <contour>
      <point x="549" y="210" type="line"/>
      <point x="549" y="245" type="line"/>
      <point x="440" y="245" type="line"/>
      <point x="499" y="435" type="line"/>
      <point x="618" y="435" type="line"/>
      <point x="618" y="470" type="line"/>
      <point x="510" y="470" type="line"/>
      <point x="574" y="679" type="line"/>
      <point x="538" y="690" type="line"/>
      <point x="470" y="470" type="line"/>
      <point x="248" y="470" type="line"/>
      <point x="312" y="679" type="line"/>
      <point x="276" y="690" type="line"/>
      <point x="208" y="470" type="line"/>
      <point x="89" y="470" type="line"/>
      <point x="89" y="435" type="line"/>
      <point x="198" y="435" type="line"/>
      <point x="139" y="245" type="line"/>
      <point x="20" y="245" type="line"/>
      <point x="20" y="210" type="line"/>
      <point x="128" y="210" type="line"/>
      <point x="64" y="1" type="line"/>
      <point x="100" y="-10" type="line"/>
      <point x="168" y="210" type="line"/>
      <point x="390" y="210" type="line"/>
      <point x="326" y="1" type="line"/>
      <point x="362" y="-10" type="line"/>
      <point x="430" y="210" type="line"/>
    </contour>
    <contour>
      <point x="178" y="245" type="line"/>
      <point x="237" y="435" type="line"/>
      <point x="460" y="435" type="line"/>
      <point x="401" y="245" type="line"/>
    </contour>
  </outline>
</glyph>
<glyph name="dollar" format="1">
  <advance width="562"/>
  <unicode hex="0024"/>
  <outline>
    <contour>
      <point x="507" y="186" type="curve" smooth="yes"/>
      <point x="507" y="291"/>
      <point x="456" y="346"/>
      <point x="355" y="376" type="curve" smooth="yes"/>
      <point x="293" y="395" type="line"/>
      <point x="293" y="651" type="line"/>
      <point x="358" y="635"/>
      <point x="387" y="569"/>
      <point x="369" y="462" type="curve"/>
      <point x="484" y="483" type="line"/>
      <point x="502" y="585"/>
      <point x="441" y="682"/>
      <point x="293" y="689" type="curve"/>
      <point x="293" y="805" type="line"/>
      <point x="257" y="805" type="line"/>
      <point x="257" y="690" type="line"/>
      <point x="119" y="683"/>
      <point x="55" y="595"/>
      <point x="55" y="497" type="curve" smooth="yes"/>
      <point x="55" y="394"/>
      <point x="107" y="324"/>
      <point x="200" y="296" type="curve" smooth="yes"/>
      <point x="257" y="279" type="line"/>
      <point x="257" y="26" type="line"/>
      <point x="183" y="31"/>
      <point x="120" y="69"/>
      <point x="111" y="188" type="curve"/>
      <point x="44" y="164" type="line"/>
      <point x="60" y="41"/>
      <point x="153" y="-5"/>
      <point x="257" y="-10" type="curve"/>
      <point x="257" y="-125" type="line"/>
      <point x="293" y="-125" type="line"/>
      <point x="293" y="-10" type="line"/>
      <point x="436" y="-4"/>
      <point x="507" y="78"/>
    </contour>
    <contour>
      <point x="148" y="539" type="curve" smooth="yes"/>
      <point x="148" y="612"/>
      <point x="191" y="654"/>
      <point x="257" y="655" type="curve"/>
      <point x="257" y="406" type="line"/>
      <point x="180" y="429"/>
      <point x="148" y="477"/>
    </contour>
    <contour>
      <point x="293" y="268" type="line" smooth="yes"/>
      <point x="384" y="241"/>
      <point x="414" y="203"/>
      <point x="414" y="143" type="curve" smooth="yes"/>
      <point x="414" y="68"/>
      <point x="364" y="31"/>
      <point x="293" y="26" type="curve"/>
    </contour>
  </outline>
</glyph>
<glyph name="ampersand" format="1">
  <advance width="624"/>
  <unicode hex="0026"/>
  <outline>
    <contour>
      <point x="262" y="27" type="curve" smooth="yes"/>
      <point x="200" y="27"/>
      <point x="161" y="70"/>
      <point x="161" y="159" type="curve" smooth="yes"/>
      <point x="161" y="236"/>
      <point x="187" y="291"/>
      <point x="262" y="332" type="curve" smooth="yes"/>
      <point x="297" y="351" type="line" smooth="yes"/>
      <point x="387" y="400"/>
      <point x="453" y="451"/>
      <point x="453" y="533" type="curve" smooth="yes"/>
      <point x="453" y="618"/>
      <point x="382" y="690"/>
      <point x="264" y="690" type="curve" smooth="yes"/>
      <point x="148" y="690"/>
      <point x="76" y="612"/>
      <point x="76" y="530" type="curve" smooth="yes"/>
      <point x="76" y="462"/>
      <point x="126" y="399"/>
      <point x="224" y="358" type="curve"/>
      <point x="76" y="278"/>
      <point x="41" y="215"/>
      <point x="41" y="149" type="curve" smooth="yes"/>
      <point x="41" y="46"/>
      <point x="125" y="-10"/>
      <point x="246" y="-10" type="curve" smooth="yes"/>
      <point x="347" y="-10"/>
      <point x="397" y="50"/>
      <point x="403" y="124" type="curve"/>
      <point x="469" y="0" type="line"/>
      <point x="648" y="0" type="line"/>
      <point x="648" y="25" type="line"/>
      <point x="599" y="30" type="line" smooth="yes"/>
      <point x="578" y="32"/>
      <point x="573" y="31"/>
      <point x="553" y="69" type="curve" smooth="yes"/>
      <point x="431" y="295" type="line"/>
      <point x="342" y="237" type="line"/>
      <point x="398" y="126"/>
      <point x="354" y="27"/>
    </contour>
    <contour>
      <point x="196" y="537" type="curve" smooth="yes"/>
      <point x="196" y="625"/>
      <point x="225" y="655"/>
      <point x="265" y="655" type="curve" smooth="yes"/>
      <point x="306" y="655"/>
      <point x="333" y="619"/>
      <point x="333" y="531" type="curve" smooth="yes"/>
      <point x="333" y="460"/>
      <point x="315" y="407"/>
      <point x="265" y="380" type="curve" smooth="yes"/>
      <point x="257" y="376" type="line"/>
      <point x="207" y="425"/>
      <point x="196" y="484"/>
    </contour>
  </outline>
</glyph>
<glyph name="quotesingle" format="1">
  <advance width="256"/>
  <unicode hex="0027"/>
  <outline>
    <contour>
      <point x="141" y="407" type="line"/>
      <point x="141" y="531"/>
      <point x="189" y="563"/>
      <point x="189" y="621" type="curve" smooth="yes"/>
      <point x="189" y="664"/>
      <point x="163" y="690"/>
      <point x="128" y="690" type="curve" smooth="yes"/>
      <point x="93" y="690"/>
      <point x="67" y="664"/>
      <point x="67" y="621" type="curve" smooth="yes"/>
      <point x="67" y="563"/>
      <point x="116" y="531"/>
      <point x="116" y="407" type="curve"/>
    </contour>
  </outline>
</glyph>
<glyph name="parenleft" format="1">
  <advance width="333"/>
  <unicode hex="0028"/>
  <outline>
    <contour>
      <point x="56" y="280" type="line" smooth="yes"/>
      <point x="56" y="114"/>
      <point x="136" y="-21"/>
      <point x="300" y="-153" type="curve"/>
      <point x="323" y="-129" type="line"/>
      <point x="211" y="-25"/>
      <point x="179" y="126"/>
      <point x="179" y="280" type="curve" smooth="yes"/>
      <point x="179" y="317" type="line" smooth="yes"/>
      <point x="179" y="471"/>
      <point x="211" y="622"/>
      <point x="323" y="726" type="curve"/>
      <point x="300" y="750" type="line"/>
      <point x="136" y="618"/>
      <point x="56" y="483"/>
      <point x="56" y="317" type="curve" smooth="yes"/>
    </contour>
  </outline>
</glyph>
<glyph name="parenright" format="1">
  <advance width="333"/>
  <unicode hex="0029"/>
  <outline>
    <contour>
      <point x="277" y="317" type="line" smooth="yes"/>
      <point x="277" y="483"/>
      <point x="197" y="618"/>
      <point x="33" y="750" type="curve"/>
      <point x="10" y="726" type="line"/>
      <point x="122" y="622"/>
      <point x="154" y="471"/>
      <point x="154" y="317" type="curve" smooth="yes"/>
      <point x="154" y="280" type="line" smooth="yes"/>
      <point x="154" y="126"/>
      <point x="122" y="-25"/>
      <point x="10" y="-129" type="curve"/>
      <point x="33" y="-153" type="line"/>
      <point x="197" y="-21"/>
      <point x="277" y="114"/>
      <point x="277" y="280" type="curve" smooth="yes"/>
    </contour>
  </outline>
</glyph>
<glyph name="asterisk" format="1">
  <advance width="450"/>
  <unicode hex="002A"/>
  <outline>
    <contour>
      <point x="381" y="344" type="line"/>
      <point x="336" y="406"/>
      <point x="304" y="394"/>
      <point x="248" y="471" type="curve"/>
      <point x="339" y="500"/>
      <point x="358" y="472"/>
      <point x="431" y="495" type="curve"/>
      <point x="402" y="586" type="line"/>
      <point x="328" y="562"/>
      <point x="330" y="528"/>
      <point x="240" y="498" type="curve"/>
      <point x="240" y="594"/>
      <point x="273" y="603"/>
      <point x="273" y="680" type="curve"/>
      <point x="178" y="680" type="line"/>
      <point x="178" y="604"/>
      <point x="210" y="594"/>
      <point x="211" y="499" type="curve"/>
      <point x="120" y="529"/>
      <point x="122" y="563"/>
      <point x="49" y="587" type="curve"/>
      <point x="19" y="496" type="line"/>
      <point x="93" y="473"/>
      <point x="111" y="501"/>
      <point x="202" y="472" type="curve"/>
      <point x="145" y="395"/>
      <point x="113" y="407"/>
      <point x="68" y="345" type="curve"/>
      <point x="145" y="289" type="line"/>
      <point x="190" y="351"/>
      <point x="169" y="378"/>
      <point x="224" y="454" type="curve"/>
      <point x="280" y="377"/>
      <point x="259" y="350"/>
      <point x="304" y="288" type="curve"/>
    </contour>
  </outline>
</glyph>
<glyph name="plus" format="1">
  <advance width="588"/>
  <unicode hex="002B"/>
  <outline>
    <contour>
      <point x="501" y="317" type="line"/>
      <point x="501" y="352" type="line"/>
      <point x="312" y="352" type="line"/>
      <point x="312" y="547" type="line"/>
      <point x="276" y="547" type="line"/>
      <point x="276" y="352" type="line"/>
      <point x="87" y="352" type="line"/>
      <point x="87" y="317" type="line"/>
      <point x="276" y="317" type="line"/>
      <point x="276" y="122" type="line"/>
      <point x="312" y="122" type="line"/>
      <point x="312" y="317" type="line"/>
    </contour>
  </outline>
</glyph>
<glyph name="comma" format="1">
  <advance width="255"/>
  <unicode hex="002C"/>
  <outline>
    <contour>
      <point x="196" y="44" type="curve" smooth="yes"/>
      <point x="196" y="96"/>
      <point x="167" y="125"/>
      <point x="128" y="125" type="curve" smooth="yes"/>
      <point x="88" y="125"/>
      <point x="61" y="98"/>
      <point x="61" y="58" type="curve" smooth="yes"/>
      <point x="61" y="17"/>
      <point x="88" y="-10"/>
      <point x="128" y="-10" type="curve" smooth="yes"/>
      <point x="131" y="-10" type="line"/>
      <point x="129" y="-52"/>
      <point x="110" y="-100"/>
      <point x="55" y="-166" type="curve"/>
      <point x="78" y="-186" type="line"/>
      <point x="153" y="-97"/>
      <point x="196" y="-14"/>
    </contour>
  </outline>
</glyph>
<glyph name="hyphen" format="1">
  <advance width="384"/>
  <unicode hex="002D"/>
  <outline>
    <contour>
      <point x="60" y="317" type="line"/>
      <point x="324" y="317" type="line"/>
      <point x="324" y="352" type="line"/>
      <point x="60" y="352" type="line"/>
    </contour>
  </outline>
</glyph>
<glyph name="period" format="1">
  <advance width="255"/>
  <unicode hex="002E"/>
  <outline>
    <contour>
      <point x="127" y="-10" type="curve" smooth="yes"/>
      <point x="168" y="-10"/>
      <point x="198" y="18"/>
      <point x="198" y="61" type="curve" smooth="yes"/>
      <point x="198" y="103"/>
      <point x="168" y="131"/>
      <point x="127" y="131" type="curve" smooth="yes"/>
      <point x="85" y="131"/>
      <point x="57" y="103"/>
      <point x="57" y="61" type="curve" smooth="yes"/>
      <point x="57" y="18"/>
      <point x="85" y="-10"/>
    </contour>
  </outline>
</glyph>
<glyph name="slash" format="1">
  <advance width="373"/>
  <unicode hex="002F"/>
  <outline>
    <contour>
      <point x="324" y="740" type="line"/>
      <point x="-22" y="-128" type="line"/>
      <point x="17" y="-143" type="line"/>
      <point x="363" y="725" type="line"/>
    </contour>
  </outline>
</glyph>
<glyph name="zero" format="1">
  <advance width="616"/>
  <unicode hex="0030"/>
  <outline>
    <contour>
      <point x="553" y="372" type="line" smooth="yes"/>
      <point x="553" y="564"/>
      <point x="464" y="690"/>
      <point x="308" y="690" type="curve" smooth="yes"/>
      <point x="151" y="690"/>
      <point x="63" y="564"/>
      <point x="63" y="372" type="curve" smooth="yes"/>
      <point x="63" y="309" type="line" smooth="yes"/>
      <point x="63" y="116"/>
      <point x="151" y="-10"/>
      <point x="308" y="-10" type="curve" smooth="yes"/>
      <point x="464" y="-10"/>
      <point x="553" y="116"/>
      <point x="553" y="309" type="curve" smooth="yes"/>
    </contour>
    <contour>
      <point x="420" y="442" type="curve" smooth="yes"/>
      <point x="420" y="239" type="line" smooth="yes"/>
      <point x="420" y="86"/>
      <point x="380" y="25"/>
      <point x="308" y="25" type="curve" smooth="yes"/>
      <point x="236" y="25"/>
      <point x="196" y="86"/>
      <point x="196" y="239" type="curve" smooth="yes"/>
      <point x="196" y="442" type="line" smooth="yes"/>
      <point x="196" y="594"/>
      <point x="236" y="655"/>
      <point x="308" y="655" type="curve" smooth="yes"/>
      <point x="380" y="655"/>
      <point x="420" y="594"/>
    </contour>
  </outline>
</glyph>
<glyph name="one" format="1">
  <advance width="365"/>
  <unicode hex="0031"/>
  <outline>
    <contour>
      <point x="19" y="591" type="line"/>
      <point x="38" y="561" type="line"/>
      <point x="134" y="622" type="line"/>
      <point x="134" y="84" type="line"/>
      <point x="134" y="39"/>
      <point x="133" y="37"/>
      <point x="112" y="35" type="curve" smooth="yes"/>
      <point x="37" y="28" type="line"/>
      <point x="37" y="0" type="line"/>
      <point x="331" y="0" type="line"/>
      <point x="331" y="28" type="line"/>
      <point x="276" y="35" type="line" smooth="yes"/>
      <point x="255" y="38"/>
      <point x="254" y="39"/>
      <point x="254" y="84" type="curve"/>
      <point x="254" y="680" type="line"/>
      <point x="158" y="680" type="line"/>
    </contour>
  </outline>
</glyph>
<glyph name="two" format="1">
  <advance width="533"/>
  <unicode hex="0032"/>
  <outline>
    <contour>
      <point x="440" y="221" type="line"/>
      <point x="418" y="130" type="line" smooth="yes"/>
      <point x="412" y="106"/>
      <point x="411" y="104"/>
      <point x="364" y="104" type="curve"/>
      <point x="91" y="104" type="line"/>
      <point x="101" y="191"/>
      <point x="154" y="238"/>
      <point x="222" y="269" type="curve" smooth="yes"/>
      <point x="334" y="321"/>
      <point x="480" y="350"/>
      <point x="480" y="508" type="curve" smooth="yes"/>
      <point x="480" y="603"/>
      <point x="417" y="690"/>
      <point x="260" y="690" type="curve" smooth="yes"/>
      <point x="97" y="690"/>
      <point x="29" y="590"/>
      <point x="48" y="483" type="curve"/>
      <point x="168" y="467" type="line"/>
      <point x="155" y="587"/>
      <point x="184" y="655"/>
      <point x="259" y="655" type="curve" smooth="yes"/>
      <point x="318" y="655"/>
      <point x="350" y="609"/>
      <point x="350" y="518" type="curve" smooth="yes"/>
      <point x="350" y="398"/>
      <point x="266" y="353"/>
      <point x="192" y="303" type="curve" smooth="yes"/>
      <point x="115" y="254"/>
      <point x="49" y="193"/>
      <point x="49" y="70" type="curve" smooth="yes"/>
      <point x="49" y="0" type="line"/>
      <point x="468" y="0" type="line"/>
      <point x="468" y="221" type="line"/>
    </contour>
  </outline>
</glyph>
<glyph name="three" format="1">
  <advance width="523"/>
  <unicode hex="0033"/>
  <outline>
    <contour>
      <point x="209" y="331" type="line" smooth="yes"/>
      <point x="309" y="331"/>
      <point x="346" y="265"/>
      <point x="346" y="170" type="curve" smooth="yes"/>
      <point x="346" y="74"/>
      <point x="311" y="25"/>
      <point x="228" y="25" type="curve" smooth="yes"/>
      <point x="161" y="25"/>
      <point x="116" y="65"/>
      <point x="103" y="167" type="curve"/>
      <point x="32" y="148" type="line"/>
      <point x="52" y="35"/>
      <point x="131" y="-10"/>
      <point x="237" y="-10" type="curve" smooth="yes"/>
      <point x="396" y="-10"/>
      <point x="476" y="65"/>
      <point x="476" y="170" type="curve" smooth="yes"/>
      <point x="476" y="275"/>
      <point x="408" y="333"/>
      <point x="284" y="349" type="curve"/>
      <point x="403" y="365"/>
      <point x="469" y="422"/>
      <point x="469" y="516" type="curve" smooth="yes"/>
      <point x="469" y="607"/>
      <point x="406" y="690"/>
      <point x="249" y="690" type="curve" smooth="yes"/>
      <point x="86" y="690"/>
      <point x="18" y="590"/>
      <point x="37" y="483" type="curve"/>
      <point x="157" y="467" type="line"/>
      <point x="144" y="587"/>
      <point x="173" y="655"/>
      <point x="248" y="655" type="curve" smooth="yes"/>
      <point x="307" y="655"/>
      <point x="339" y="608"/>
      <point x="339" y="516" type="curve" smooth="yes"/>
      <point x="339" y="428"/>
      <point x="304" y="366"/>
      <point x="209" y="366" type="curve" smooth="yes"/>
      <point x="182" y="366" type="line"/>
      <point x="182" y="331" type="line"/>
    </contour>
  </outline>
</glyph>
<glyph name="four" format="1">
  <advance width="512"/>
  <unicode hex="0034"/>
  <outline>
    <contour>
      <point x="292" y="84" type="line"/>
      <point x="292" y="39"/>
      <point x="291" y="37"/>
      <point x="270" y="35" type="curve" smooth="yes"/>
      <point x="195" y="28" type="line"/>
      <point x="195" y="0" type="line"/>
      <point x="489" y="0" type="line"/>
      <point x="489" y="28" type="line"/>
      <point x="434" y="35" type="line" smooth="yes"/>
      <point x="413" y="38"/>
      <point x="412" y="39"/>
      <point x="412" y="84" type="curve"/>
      <point x="412" y="176" type="line"/>
      <point x="489" y="176" type="line"/>
      <point x="489" y="211" type="line"/>
      <point x="412" y="211" type="line"/>
      <point x="412" y="382" type="line"/>
      <point x="292" y="364" type="line"/>
      <point x="292" y="211" type="line"/>
      <point x="61" y="211" type="line"/>
      <point x="214" y="355"/>
      <point x="319" y="492"/>
      <point x="381" y="680" type="curve"/>
      <point x="236" y="680" type="line"/>
      <point x="188" y="472"/>
      <point x="144" y="353"/>
      <point x="12" y="211" type="curve"/>
      <point x="12" y="176" type="line"/>
      <point x="292" y="176" type="line"/>
    </contour>
  </outline>
</glyph>
<glyph name="five" format="1">
  <advance width="514"/>
  <unicode hex="0035"/>
  <outline>
    <contour>
      <point x="408" y="767" type="line"/>
      <point x="396" y="706" type="line" smooth="yes"/>
      <point x="391" y="682"/>
      <point x="389" y="680"/>
      <point x="342" y="680" type="curve"/>
      <point x="87" y="680" type="line"/>
      <point x="68" y="347" type="line"/>
      <point x="92" y="332" type="line"/>
      <point x="139" y="374"/>
      <point x="185" y="388"/>
      <point x="225" y="388" type="curve" smooth="yes"/>
      <point x="315" y="388"/>
      <point x="339" y="316"/>
      <point x="339" y="212" type="curve" smooth="yes"/>
      <point x="339" y="78"/>
      <point x="304" y="25"/>
      <point x="227" y="25" type="curve" smooth="yes"/>
      <point x="165" y="25"/>
      <point x="125" y="65"/>
      <point x="112" y="167" type="curve"/>
      <point x="41" y="148" type="line"/>
      <point x="61" y="35"/>
      <point x="135" y="-10"/>
      <point x="236" y="-10" type="curve" smooth="yes"/>
      <point x="404" y="-10"/>
      <point x="469" y="94"/>
      <point x="469" y="212" type="curve" smooth="yes"/>
      <point x="469" y="341"/>
      <point x="379" y="423"/>
      <point x="244" y="423" type="curve" smooth="yes"/>
      <point x="190" y="423"/>
      <point x="142" y="408"/>
      <point x="106" y="383" type="curve"/>
      <point x="117" y="576" type="line"/>
      <point x="436" y="576" type="line"/>
      <point x="436" y="767" type="line"/>
    </contour>
  </outline>
</glyph>
<glyph name="six" format="1">
  <advance width="581"/>
  <unicode hex="0036"/>
  <outline>
    <contour>
      <point x="531" y="195" type="curve" smooth="yes"/>
      <point x="531" y="205" type="line" smooth="yes"/>
      <point x="531" y="325"/>
      <point x="447" y="403"/>
      <point x="335" y="403" type="curve" smooth="yes"/>
      <point x="283" y="403"/>
      <point x="233" y="386"/>
      <point x="194" y="341" type="curve"/>
      <point x="194" y="427" type="line" smooth="yes"/>
      <point x="194" y="613"/>
      <point x="238" y="655"/>
      <point x="301" y="655" type="curve" smooth="yes"/>
      <point x="369" y="655"/>
      <point x="408" y="601"/>
      <point x="401" y="502" type="curve"/>
      <point x="519" y="516" type="line"/>
      <point x="521" y="612"/>
      <point x="435" y="690"/>
      <point x="301" y="690" type="curve" smooth="yes"/>
      <point x="154" y="690"/>
      <point x="66" y="588"/>
      <point x="66" y="368" type="curve" smooth="yes"/>
      <point x="66" y="305" type="line" smooth="yes"/>
      <point x="66" y="103"/>
      <point x="152" y="-10"/>
      <point x="304" y="-10" type="curve" smooth="yes"/>
      <point x="442" y="-10"/>
      <point x="531" y="70"/>
    </contour>
    <contour>
      <point x="194" y="246" type="curve" smooth="yes"/>
      <point x="194" y="289" type="line"/>
      <point x="225" y="338"/>
      <point x="271" y="359"/>
      <point x="310" y="359" type="curve" smooth="yes"/>
      <point x="382" y="359"/>
      <point x="408" y="298"/>
      <point x="408" y="199" type="curve" smooth="yes"/>
      <point x="408" y="189" type="line" smooth="yes"/>
      <point x="408" y="69"/>
      <point x="368" y="25"/>
      <point x="308" y="25" type="curve" smooth="yes"/>
      <point x="234" y="25"/>
      <point x="194" y="77"/>
    </contour>
  </outline>
</glyph>
<glyph name="seven" format="1">
  <advance width="462"/>
  <unicode hex="0037"/>
  <outline>
    <contour>
      <point x="57" y="459" type="line"/>
      <point x="79" y="550" type="line" smooth="yes"/>
      <point x="85" y="574"/>
      <point x="86" y="576"/>
      <point x="133" y="576" type="curve"/>
      <point x="403" y="576" type="line"/>
      <point x="211" y="345"/>
      <point x="150" y="190"/>
      <point x="124" y="0" type="curve"/>
      <point x="269" y="0" type="line"/>
      <point x="283" y="285"/>
      <point x="329" y="434"/>
      <point x="445" y="586" type="curve"/>
      <point x="445" y="680" type="line"/>
      <point x="29" y="680" type="line"/>
      <point x="29" y="459" type="line"/>
    </contour>
  </outline>
</glyph>
<glyph name="eight" format="1">
  <advance width="554"/>
  <unicode hex="0038"/>
  <outline>
    <contour>
      <point x="504" y="183" type="curve" smooth="yes"/>
      <point x="504" y="291"/>
      <point x="445" y="344"/>
      <point x="350" y="387" type="curve"/>
      <point x="441" y="424"/>
      <point x="486" y="469"/>
      <point x="486" y="531" type="curve" smooth="yes"/>
      <point x="486" y="622"/>
      <point x="406" y="690"/>
      <point x="273" y="690" type="curve" smooth="yes"/>
      <point x="141" y="690"/>
      <point x="64" y="609"/>
      <point x="64" y="511" type="curve" smooth="yes"/>
      <point x="64" y="420"/>
      <point x="114" y="370"/>
      <point x="194" y="330" type="curve"/>
      <point x="102" y="290"/>
      <point x="50" y="232"/>
      <point x="50" y="157" type="curve" smooth="yes"/>
      <point x="50" y="68"/>
      <point x="124" y="-10"/>
      <point x="281" y="-10" type="curve" smooth="yes"/>
      <point x="430" y="-10"/>
      <point x="504" y="73"/>
    </contour>
    <contour>
      <point x="269" y="422" type="line" smooth="yes"/>
      <point x="203" y="450"/>
      <point x="166" y="486"/>
      <point x="166" y="548" type="curve" smooth="yes"/>
      <point x="166" y="615"/>
      <point x="204" y="655"/>
      <point x="271" y="655" type="curve" smooth="yes"/>
      <point x="340" y="655"/>
      <point x="376" y="614"/>
      <point x="376" y="530" type="curve" smooth="yes"/>
      <point x="376" y="474"/>
      <point x="364" y="433"/>
      <point x="317" y="401" type="curve"/>
    </contour>
    <contour>
      <point x="160" y="160" type="curve" smooth="yes"/>
      <point x="160" y="228"/>
      <point x="182" y="284"/>
      <point x="228" y="314" type="curve"/>
      <point x="295" y="286" type="line" smooth="yes"/>
      <point x="373" y="253"/>
      <point x="402" y="212"/>
      <point x="402" y="147" type="curve" smooth="yes"/>
      <point x="402" y="67"/>
      <point x="359" y="25"/>
      <point x="281" y="25" type="curve" smooth="yes"/>
      <point x="201" y="25"/>
      <point x="160" y="74"/>
    </contour>
  </outline>
</glyph>
<glyph name="nine" format="1">
  <advance width="581"/>
  <unicode hex="0039"/>
  <outline>
    <contour>
      <point x="515" y="312" type="curve" smooth="yes"/>
      <point x="515" y="375" type="line" smooth="yes"/>
      <point x="515" y="577"/>
      <point x="429" y="690"/>
      <point x="277" y="690" type="curve" smooth="yes"/>
      <point x="139" y="690"/>
      <point x="50" y="609"/>
      <point x="50" y="482" type="curve" smooth="yes"/>
      <point x="50" y="455" type="line" smooth="yes"/>
      <point x="50" y="335"/>
      <point x="134" y="257"/>
      <point x="246" y="257" type="curve" smooth="yes"/>
      <point x="298" y="257"/>
      <point x="348" y="274"/>
      <point x="387" y="319" type="curve"/>
      <point x="387" y="253" type="line" smooth="yes"/>
      <point x="387" y="67"/>
      <point x="324" y="25"/>
      <point x="253" y="25" type="curve" smooth="yes"/>
      <point x="188" y="25"/>
      <point x="143" y="65"/>
      <point x="130" y="167" type="curve"/>
      <point x="59" y="148" type="line"/>
      <point x="79" y="35"/>
      <point x="161" y="-10"/>
      <point x="258" y="-10" type="curve" smooth="yes"/>
      <point x="414" y="-10"/>
      <point x="515" y="92"/>
    </contour>
    <contour>
      <point x="173" y="461" type="curve" smooth="yes"/>
      <point x="173" y="491" type="line" smooth="yes"/>
      <point x="173" y="611"/>
      <point x="213" y="655"/>
      <point x="273" y="655" type="curve" smooth="yes"/>
      <point x="347" y="655"/>
      <point x="387" y="603"/>
      <point x="387" y="434" type="curve" smooth="yes"/>
      <point x="387" y="371" type="line"/>
      <point x="356" y="322"/>
      <point x="310" y="301"/>
      <point x="271" y="301" type="curve" smooth="yes"/>
      <point x="199" y="301"/>
      <point x="173" y="362"/>
    </contour>
  </outline>
</glyph>
<glyph name="colon" format="1">
  <advance width="255"/>
  <unicode hex="003A"/>
  <outline>
    <contour>
      <point x="127" y="376" type="curve" smooth="yes"/>
      <point x="168" y="376"/>
      <point x="198" y="404"/>
      <point x="198" y="447" type="curve" smooth="yes"/>
      <point x="198" y="489"/>
      <point x="168" y="517"/>
      <point x="127" y="517" type="curve" smooth="yes"/>
      <point x="85" y="517"/>
      <point x="57" y="489"/>
      <point x="57" y="447" type="curve" smooth="yes"/>
      <point x="57" y="404"/>
      <point x="85" y="376"/>
    </contour>
    <contour>
      <point x="127" y="-10" type="curve" smooth="yes"/>
      <point x="168" y="-10"/>
      <point x="198" y="18"/>
      <point x="198" y="61" type="curve" smooth="yes"/>
      <point x="198" y="103"/>
      <point x="168" y="131"/>
      <point x="127" y="131" type="curve" smooth="yes"/>
      <point x="85" y="131"/>
      <point x="57" y="103"/>
      <point x="57" y="61" type="curve" smooth="yes"/>
      <point x="57" y="18"/>
      <point x="85" y="-10"/>
    </contour>
  </outline>
</glyph>
<glyph name="semicolon" format="1">
  <advance width="255"/>
  <unicode hex="003B"/>
  <outline>
    <contour>
      <point x="127" y="376" type="curve" smooth="yes"/>
      <point x="168" y="376"/>
      <point x="198" y="404"/>
      <point x="198" y="447" type="curve" smooth="yes"/>
      <point x="198" y="489"/>
      <point x="168" y="517"/>
      <point x="127" y="517" type="curve" smooth="yes"/>
      <point x="85" y="517"/>
      <point x="57" y="489"/>
      <point x="57" y="447" type="curve" smooth="yes"/>
      <point x="57" y="404"/>
      <point x="85" y="376"/>
    </contour>
    <contour>
      <point x="196" y="44" type="curve" smooth="yes"/>
      <point x="196" y="96"/>
      <point x="167" y="125"/>
      <point x="128" y="125" type="curve" smooth="yes"/>
      <point x="88" y="125"/>
      <point x="61" y="98"/>
      <point x="61" y="58" type="curve" smooth="yes"/>
      <point x="61" y="17"/>
      <point x="88" y="-10"/>
      <point x="128" y="-10" type="curve" smooth="yes"/>
      <point x="131" y="-10" type="line"/>
      <point x="129" y="-52"/>
      <point x="110" y="-100"/>
      <point x="55" y="-166" type="curve"/>
      <point x="78" y="-186" type="line"/>
      <point x="153" y="-97"/>
      <point x="196" y="-14"/>
    </contour>
  </outline>
</glyph>
<glyph name="less" format="1">
  <advance width="588"/>
  <unicode hex="003C"/>
  <outline>
    <contour>
      <point x="501" y="191" type="line"/>
      <point x="145" y="333" type="line"/>
      <point x="501" y="474" type="line"/>
      <point x="489" y="507" type="line"/>
      <point x="87" y="346" type="line"/>
      <point x="87" y="318" type="line"/>
      <point x="489" y="157" type="line"/>
    </contour>
  </outline>
</glyph>
<glyph name="greater" format="1">
  <advance width="588"/>
  <unicode hex="003E"/>
  <outline>
    <contour>
      <point x="501" y="318" type="line"/>
      <point x="501" y="346" type="line"/>
      <point x="99" y="507" type="line"/>
      <point x="87" y="473" type="line"/>
      <point x="443" y="332" type="line"/>
      <point x="87" y="190" type="line"/>
      <point x="99" y="157" type="line"/>
    </contour>
  </outline>
</glyph>
<glyph name="question" format="1">
  <advance width="492"/>
  <unicode hex="003F"/>
  <outline>
    <contour>
      <point x="262" y="202" type="line"/>
      <point x="260" y="219" type="line" smooth="yes"/>
      <point x="243" y="366"/>
      <point x="454" y="346"/>
      <point x="454" y="519" type="curve" smooth="yes"/>
      <point x="454" y="606"/>
      <point x="392" y="690"/>
      <point x="242" y="690" type="curve" smooth="yes"/>
      <point x="85" y="690"/>
      <point x="22" y="590"/>
      <point x="41" y="483" type="curve"/>
      <point x="156" y="467" type="line"/>
      <point x="143" y="587"/>
      <point x="169" y="655"/>
      <point x="241" y="655" type="curve" smooth="yes"/>
      <point x="298" y="655"/>
      <point x="329" y="604"/>
      <point x="329" y="509" type="curve" smooth="yes"/>
      <point x="329" y="335"/>
      <point x="211" y="364"/>
      <point x="211" y="218" type="curve" smooth="yes"/>
      <point x="211" y="202" type="line"/>
    </contour>
    <contour>
      <point x="235" y="-10" type="curve" smooth="yes"/>
      <point x="276" y="-10"/>
      <point x="306" y="18"/>
      <point x="306" y="61" type="curve" smooth="yes"/>
      <point x="306" y="103"/>
      <point x="276" y="131"/>
      <point x="235" y="131" type="curve" smooth="yes"/>
      <point x="193" y="131"/>
      <point x="165" y="103"/>
      <point x="165" y="61" type="curve" smooth="yes"/>
      <point x="165" y="18"/>
      <point x="193" y="-10"/>
    </contour>
  </outline>
</glyph>
<glyph name="at" format="1">
  <advance width="950"/>
  <unicode hex="0040"/>
  <outline>
    <contour>
      <point x="734" y="-167" type="curve"/>
      <point x="714" y="-116" type="line"/>
      <point x="641" y="-172"/>
      <point x="554" y="-188"/>
      <point x="480" y="-188" type="curve" smooth="yes"/>
      <point x="243" y="-188"/>
      <point x="92" y="-22"/>
      <point x="92" y="214" type="curve" smooth="yes"/>
      <point x="92" y="462"/>
      <point x="257" y="655"/>
      <point x="499" y="655" type="curve" smooth="yes"/>
      <point x="713" y="655"/>
      <point x="862" y="490"/>
      <point x="862" y="278" type="curve" smooth="yes"/>
      <point x="862" y="133"/>
      <point x="783" y="29"/>
      <point x="693" y="29" type="curve" smooth="yes"/>
      <point x="662" y="29"/>
      <point x="646" y="51"/>
      <point x="664" y="150" type="curve" smooth="yes"/>
      <point x="721" y="467" type="line"/>
      <point x="694" y="467" type="line"/>
      <point x="672" y="445"/>
      <point x="646" y="426"/>
      <point x="616" y="410" type="curve"/>
      <point x="594" y="447"/>
      <point x="552" y="477"/>
      <point x="489" y="477" type="curve" smooth="yes"/>
      <point x="389" y="477"/>
      <point x="294" y="406"/>
      <point x="269" y="268" type="curve" smooth="yes"/>
      <point x="265" y="246" type="line" smooth="yes"/>
      <point x="237" y="93"/>
      <point x="305" y="-10"/>
      <point x="409" y="-10" type="curve" smooth="yes"/>
      <point x="464" y="-10"/>
      <point x="513" y="18"/>
      <point x="556" y="87" type="curve"/>
      <point x="570" y="30"/>
      <point x="620" y="-5"/>
      <point x="686" y="-5" type="curve" smooth="yes"/>
      <point x="809" y="-5"/>
      <point x="899" y="119"/>
      <point x="899" y="278" type="curve" smooth="yes"/>
      <point x="899" y="510"/>
      <point x="734" y="690"/>
      <point x="499" y="690" type="curve" smooth="yes"/>
      <point x="236" y="690"/>
      <point x="55" y="482"/>
      <point x="55" y="214" type="curve" smooth="yes"/>
      <point x="55" y="-40"/>
      <point x="222" y="-223"/>
      <point x="480" y="-223" type="curve" smooth="yes"/>
      <point x="562" y="-223"/>
      <point x="661" y="-204"/>
    </contour>
    <contour>
      <point x="369" y="216" type="curve" smooth="yes"/>
      <point x="379" y="276" type="line" smooth="yes"/>
      <point x="396" y="379"/>
      <point x="429" y="442"/>
      <point x="497" y="442" type="curve" smooth="yes"/>
      <point x="534" y="442"/>
      <point x="573" y="423"/>
      <point x="595" y="378" type="curve"/>
      <point x="556" y="161" type="line"/>
      <point x="500" y="44"/>
      <point x="455" y="25"/>
      <point x="423" y="25" type="curve" smooth="yes"/>
      <point x="378" y="25"/>
      <point x="346" y="78"/>
    </contour>
  </outline>
</glyph>
<glyph name="A" format="1">
  <advance width="639"/>
  <unicode hex="0041"/>
  <outline>
    <contour>
      <point x="187" y="28" type="line"/>
      <point x="132" y="35" type="line" smooth="yes"/>
      <point x="111" y="38"/>
      <point x="110" y="39"/>
      <point x="124" y="84" type="curve" smooth="yes"/>
      <point x="163" y="208" type="line"/>
      <point x="394" y="208" type="line"/>
      <point x="432" y="84" type="line" smooth="yes"/>
      <point x="446" y="39"/>
      <point x="445" y="38"/>
      <point x="424" y="35" type="curve" smooth="yes"/>
      <point x="369" y="28" type="line"/>
      <point x="369" y="0" type="line"/>
      <point x="645" y="0" type="line"/>
      <point x="645" y="28" type="line"/>
      <point x="590" y="35" type="line" smooth="yes"/>
      <point x="570" y="38"/>
      <point x="568" y="39"/>
      <point x="554" y="84" type="curve" smooth="yes"/>
      <point x="362" y="680" type="line"/>
      <point x="276" y="680" type="line"/>
      <point x="85" y="84" type="line" smooth="yes"/>
      <point x="71" y="39"/>
      <point x="71" y="38"/>
      <point x="49" y="35" type="curve" smooth="yes"/>
      <point x="-6" y="28" type="line"/>
      <point x="-6" y="0" type="line"/>
      <point x="187" y="0" type="line"/>
    </contour>
    <contour>
      <point x="175" y="243" type="line"/>
      <point x="280" y="575" type="line"/>
      <point x="383" y="243" type="line"/>
    </contour>
  </outline>
</glyph>
<glyph name="B" format="1">
  <advance width="616"/>
  <unicode hex="0042"/>
  <outline>
    <contour>
      <point x="43" y="652" type="line"/>
      <point x="98" y="645" type="line" smooth="yes"/>
      <point x="119" y="642"/>
      <point x="120" y="641"/>
      <point x="120" y="596" type="curve"/>
      <point x="120" y="84" type="line"/>
      <point x="120" y="39"/>
      <point x="119" y="38"/>
      <point x="98" y="35" type="curve" smooth="yes"/>
      <point x="43" y="28" type="line"/>
      <point x="43" y="0" type="line"/>
      <point x="344" y="0" type="line" smooth="yes"/>
      <point x="506" y="0"/>
      <point x="564" y="75"/>
      <point x="564" y="165" type="curve" smooth="yes"/>
      <point x="564" y="193" type="line" smooth="yes"/>
      <point x="564" y="275"/>
      <point x="508" y="333"/>
      <point x="407" y="350" type="curve"/>
      <point x="489" y="371"/>
      <point x="534" y="423"/>
      <point x="534" y="493" type="curve" smooth="yes"/>
      <point x="534" y="520" type="line" smooth="yes"/>
      <point x="534" y="607"/>
      <point x="478" y="680"/>
      <point x="319" y="680" type="curve" smooth="yes"/>
      <point x="43" y="680" type="line"/>
    </contour>
    <contour>
      <point x="319" y="645" type="line" smooth="yes"/>
      <point x="376" y="645"/>
      <point x="406" y="607"/>
      <point x="406" y="520" type="curve" smooth="yes"/>
      <point x="406" y="488" type="line" smooth="yes"/>
      <point x="406" y="402"/>
      <point x="376" y="365"/>
      <point x="319" y="365" type="curve" smooth="yes"/>
      <point x="240" y="365" type="line"/>
      <point x="240" y="645" type="line"/>
    </contour>
    <contour>
      <point x="344" y="330" type="line" smooth="yes"/>
      <point x="404" y="330"/>
      <point x="436" y="288"/>
      <point x="436" y="198" type="curve" smooth="yes"/>
      <point x="436" y="165" type="line" smooth="yes"/>
      <point x="436" y="73"/>
      <point x="404" y="35"/>
      <point x="344" y="35" type="curve" smooth="yes"/>
      <point x="240" y="35" type="line"/>
      <point x="240" y="330" type="line"/>
    </contour>
  </outline>
</glyph>
<glyph name="C" format="1">
  <advance width="597"/>
  <unicode hex="0043"/>
  <outline>
    <contour>
      <point x="352" y="-10" type="curve" smooth="yes"/>
      <point x="446" y="-10"/>
      <point x="529" y="30"/>
      <point x="558" y="143" type="curve"/>
      <point x="486" y="162" type="line"/>
      <point x="475" y="54"/>
      <point x="418" y="25"/>
      <point x="352" y="25" type="curve" smooth="yes"/>
      <point x="245" y="25"/>
      <point x="194" y="93"/>
      <point x="194" y="259" type="curve" smooth="yes"/>
      <point x="194" y="422" type="line" smooth="yes"/>
      <point x="194" y="588"/>
      <point x="241" y="655"/>
      <point x="327" y="655" type="curve" smooth="yes"/>
      <point x="407" y="655"/>
      <point x="451" y="581"/>
      <point x="438" y="448" type="curve"/>
      <point x="555" y="477" type="line"/>
      <point x="563" y="591"/>
      <point x="484" y="690"/>
      <point x="332" y="690" type="curve" smooth="yes"/>
      <point x="154" y="690"/>
      <point x="66" y="564"/>
      <point x="66" y="372" type="curve" smooth="yes"/>
      <point x="66" y="309" type="line" smooth="yes"/>
      <point x="66" y="116"/>
      <point x="167" y="-10"/>
    </contour>
  </outline>
</glyph>
<glyph name="D" format="1">
  <advance width="669"/>
  <unicode hex="0044"/>
  <outline>
    <contour>
      <point x="43" y="652" type="line"/>
      <point x="98" y="645" type="line" smooth="yes"/>
      <point x="119" y="642"/>
      <point x="120" y="641"/>
      <point x="120" y="596" type="curve"/>
      <point x="120" y="84" type="line"/>
      <point x="120" y="39"/>
      <point x="119" y="38"/>
      <point x="98" y="35" type="curve" smooth="yes"/>
      <point x="43" y="28" type="line"/>
      <point x="43" y="0" type="line"/>
      <point x="338" y="0" type="line" smooth="yes"/>
      <point x="509" y="0"/>
      <point x="603" y="98"/>
      <point x="603" y="309" type="curve" smooth="yes"/>
      <point x="603" y="372" type="line" smooth="yes"/>
      <point x="603" y="582"/>
      <point x="509" y="680"/>
      <point x="338" y="680" type="curve" smooth="yes"/>
      <point x="43" y="680" type="line"/>
    </contour>
    <contour>
      <point x="333" y="645" type="line" smooth="yes"/>
      <point x="434" y="645"/>
      <point x="475" y="605"/>
      <point x="475" y="422" type="curve" smooth="yes"/>
      <point x="475" y="259" type="line" smooth="yes"/>
      <point x="475" y="75"/>
      <point x="434" y="35"/>
      <point x="333" y="35" type="curve" smooth="yes"/>
      <point x="240" y="35" type="line"/>
      <point x="240" y="645" type="line"/>
    </contour>
  </outline>
</glyph>
<glyph name="E" format="1">
  <advance width="603"/>
  <unicode hex="0045"/>
  <outline>
    <contour>
      <point x="510" y="172" type="line"/>
      <point x="478" y="61" type="line" smooth="yes"/>
      <point x="471" y="37"/>
      <point x="471" y="35"/>
      <point x="424" y="35" type="curve"/>
      <point x="240" y="35" type="line"/>
      <point x="240" y="326" type="line"/>
      <point x="354" y="326" type="line"/>
      <point x="401" y="326"/>
      <point x="402" y="324"/>
      <point x="408" y="300" type="curve" smooth="yes"/>
      <point x="430" y="219" type="line"/>
      <point x="458" y="219" type="line"/>
      <point x="458" y="468" type="line"/>
      <point x="430" y="468" type="line"/>
      <point x="408" y="387" type="line" smooth="yes"/>
      <point x="402" y="363"/>
      <point x="401" y="361"/>
      <point x="354" y="361" type="curve"/>
      <point x="240" y="361" type="line"/>
      <point x="240" y="645" type="line"/>
      <point x="414" y="645" type="line"/>
      <point x="461" y="645"/>
      <point x="461" y="643"/>
      <point x="468" y="619" type="curve" smooth="yes"/>
      <point x="500" y="508" type="line"/>
      <point x="528" y="508" type="line"/>
      <point x="528" y="680" type="line"/>
      <point x="43" y="680" type="line"/>
      <point x="43" y="652" type="line"/>
      <point x="98" y="645" type="line" smooth="yes"/>
      <point x="119" y="642"/>
      <point x="120" y="641"/>
      <point x="120" y="596" type="curve"/>
      <point x="120" y="84" type="line"/>
      <point x="120" y="39"/>
      <point x="119" y="38"/>
      <point x="98" y="35" type="curve" smooth="yes"/>
      <point x="43" y="28" type="line"/>
      <point x="43" y="0" type="line"/>
      <point x="538" y="0" type="line"/>
      <point x="538" y="172" type="line"/>
    </contour>
  </outline>
</glyph>
<glyph name="F" format="1">
  <advance width="554"/>
  <unicode hex="0046"/>
  <outline>
    <contour>
      <point x="419" y="462" type="line"/>
      <point x="397" y="381" type="line" smooth="yes"/>
      <point x="391" y="357"/>
      <point x="390" y="355"/>
      <point x="343" y="355" type="curve"/>
      <point x="240" y="355" type="line"/>
      <point x="240" y="645" type="line"/>
      <point x="403" y="645" type="line"/>
      <point x="450" y="645"/>
      <point x="450" y="643"/>
      <point x="457" y="619" type="curve" smooth="yes"/>
      <point x="489" y="508" type="line"/>
      <point x="517" y="508" type="line"/>
      <point x="517" y="680" type="line"/>
      <point x="43" y="680" type="line"/>
      <point x="43" y="652" type="line"/>
      <point x="98" y="645" type="line" smooth="yes"/>
      <point x="119" y="642"/>
      <point x="120" y="641"/>
      <point x="120" y="596" type="curve"/>
      <point x="120" y="84" type="line"/>
      <point x="120" y="39"/>
      <point x="119" y="38"/>
      <point x="98" y="35" type="curve" smooth="yes"/>
      <point x="43" y="28" type="line"/>
      <point x="43" y="0" type="line"/>
      <point x="337" y="0" type="line"/>
      <point x="337" y="28" type="line"/>
      <point x="262" y="35" type="line" smooth="yes"/>
      <point x="241" y="37"/>
      <point x="240" y="39"/>
      <point x="240" y="84" type="curve"/>
      <point x="240" y="320" type="line"/>
      <point x="343" y="320" type="line"/>
      <point x="390" y="320"/>
      <point x="391" y="318"/>
      <point x="397" y="294" type="curve" smooth="yes"/>
      <point x="419" y="213" type="line"/>
      <point x="447" y="213" type="line"/>
      <point x="447" y="462" type="line"/>
    </contour>
  </outline>
</glyph>
<glyph name="G" format="1">
  <advance width="663"/>
  <unicode hex="0047"/>
  <outline>
    <contour>
      <point x="361" y="280" type="line"/>
      <point x="436" y="273" type="line" smooth="yes"/>
      <point x="457" y="271"/>
      <point x="458" y="269"/>
      <point x="458" y="224" type="curve"/>
      <point x="458" y="76" type="line"/>
      <point x="429" y="42"/>
      <point x="382" y="25"/>
      <point x="339" y="25" type="curve" smooth="yes"/>
      <point x="244" y="25"/>
      <point x="194" y="106"/>
      <point x="194" y="269" type="curve" smooth="yes"/>
      <point x="194" y="412" type="line" smooth="yes"/>
      <point x="194" y="575"/>
      <point x="238" y="655"/>
      <point x="331" y="655" type="curve" smooth="yes"/>
      <point x="418" y="655"/>
      <point x="466" y="581"/>
      <point x="451" y="448" type="curve"/>
      <point x="568" y="477" type="line"/>
      <point x="580" y="590"/>
      <point x="498" y="690"/>
      <point x="335" y="690" type="curve" smooth="yes"/>
      <point x="160" y="690"/>
      <point x="66" y="559"/>
      <point x="66" y="377" type="curve" smooth="yes"/>
      <point x="66" y="314" type="line" smooth="yes"/>
      <point x="66" y="125"/>
      <point x="162" y="-10"/>
      <point x="327" y="-10" type="curve" smooth="yes"/>
      <point x="397" y="-10"/>
      <point x="445" y="15"/>
      <point x="481" y="47" type="curve"/>
      <point x="504" y="34"/>
      <point x="524" y="18"/>
      <point x="541" y="0" type="curve"/>
      <point x="568" y="0" type="line"/>
      <point x="568" y="224" type="line"/>
      <point x="568" y="269"/>
      <point x="569" y="270"/>
      <point x="590" y="273" type="curve" smooth="yes"/>
      <point x="645" y="280" type="line"/>
      <point x="645" y="308" type="line"/>
      <point x="361" y="308" type="line"/>
    </contour>
  </outline>
</glyph>
<glyph name="H" format="1">
  <advance width="743"/>
  <unicode hex="0048"/>
  <outline>
    <contour>
      <point x="700" y="28" type="line"/>
      <point x="645" y="35" type="line" smooth="yes"/>
      <point x="624" y="38"/>
      <point x="623" y="39"/>
      <point x="623" y="84" type="curve"/>
      <point x="623" y="596" type="line"/>
      <point x="623" y="641"/>
      <point x="624" y="642"/>
      <point x="645" y="645" type="curve" smooth="yes"/>
      <point x="700" y="652" type="line"/>
      <point x="700" y="680" type="line"/>
      <point x="426" y="680" type="line"/>
      <point x="426" y="652" type="line"/>
      <point x="481" y="645" type="line" smooth="yes"/>
      <point x="502" y="642"/>
      <point x="503" y="641"/>
      <point x="503" y="596" type="curve"/>
      <point x="503" y="361" type="line"/>
      <point x="240" y="361" type="line"/>
      <point x="240" y="596" type="line"/>
      <point x="240" y="641"/>
      <point x="241" y="642"/>
      <point x="262" y="645" type="curve" smooth="yes"/>
      <point x="317" y="652" type="line"/>
      <point x="317" y="680" type="line"/>
      <point x="43" y="680" type="line"/>
      <point x="43" y="652" type="line"/>
      <point x="98" y="645" type="line" smooth="yes"/>
      <point x="119" y="642"/>
      <point x="120" y="641"/>
      <point x="120" y="596" type="curve"/>
      <point x="120" y="84" type="line"/>
      <point x="120" y="39"/>
      <point x="119" y="38"/>
      <point x="98" y="35" type="curve" smooth="yes"/>
      <point x="43" y="28" type="line"/>
      <point x="43" y="0" type="line"/>
      <point x="317" y="0" type="line"/>
      <point x="317" y="28" type="line"/>
      <point x="262" y="35" type="line" smooth="yes"/>
      <point x="241" y="38"/>
      <point x="240" y="39"/>
      <point x="240" y="84" type="curve"/>
      <point x="240" y="326" type="line"/>
      <point x="503" y="326" type="line"/>
      <point x="503" y="84" type="line"/>
      <point x="503" y="39"/>
      <point x="502" y="38"/>
      <point x="481" y="35" type="curve" smooth="yes"/>
      <point x="426" y="28" type="line"/>
      <point x="426" y="0" type="line"/>
      <point x="700" y="0" type="line"/>
    </contour>
  </outline>
</glyph>
<glyph name="I" format="1">
  <advance width="360"/>
  <unicode hex="0049"/>
  <outline>
    <contour>
      <point x="43" y="652" type="line"/>
      <point x="98" y="645" type="line" smooth="yes"/>
      <point x="119" y="642"/>
      <point x="120" y="641"/>
      <point x="120" y="596" type="curve"/>
      <point x="120" y="84" type="line"/>
      <point x="120" y="39"/>
      <point x="119" y="38"/>
      <point x="98" y="35" type="curve" smooth="yes"/>
      <point x="43" y="28" type="line"/>
      <point x="43" y="0" type="line"/>
      <point x="317" y="0" type="line"/>
      <point x="317" y="28" type="line"/>
      <point x="262" y="35" type="line" smooth="yes"/>
      <point x="241" y="38"/>
      <point x="240" y="39"/>
      <point x="240" y="84" type="curve"/>
      <point x="240" y="596" type="line"/>
      <point x="240" y="641"/>
      <point x="241" y="642"/>
      <point x="262" y="645" type="curve" smooth="yes"/>
      <point x="317" y="652" type="line"/>
      <point x="317" y="680" type="line"/>
      <point x="43" y="680" type="line"/>
    </contour>
  </outline>
</glyph>
<glyph name="J" format="1">
  <advance width="476"/>
  <unicode hex="004A"/>
  <outline>
    <contour>
      <point x="172" y="652" type="line"/>
      <point x="227" y="645" type="line" smooth="yes"/>
      <point x="248" y="642"/>
      <point x="249" y="641"/>
      <point x="249" y="596" type="curve"/>
      <point x="249" y="174" type="line" smooth="yes"/>
      <point x="249" y="52"/>
      <point x="212" y="25"/>
      <point x="167" y="25" type="curve" smooth="yes"/>
      <point x="121" y="25"/>
      <point x="80" y="52"/>
      <point x="75" y="162" type="curve"/>
      <point x="6" y="142" type="line"/>
      <point x="22" y="20"/>
      <point x="98" y="-10"/>
      <point x="173" y="-10" type="curve" smooth="yes"/>
      <point x="316" y="-10"/>
      <point x="369" y="79"/>
      <point x="369" y="194" type="curve" smooth="yes"/>
      <point x="369" y="596" type="line"/>
      <point x="369" y="641"/>
      <point x="370" y="642"/>
      <point x="391" y="645" type="curve" smooth="yes"/>
      <point x="446" y="652" type="line"/>
      <point x="446" y="680" type="line"/>
      <point x="172" y="680" type="line"/>
    </contour>
  </outline>
</glyph>
<glyph name="K" format="1">
  <advance width="656"/>
  <unicode hex="004B"/>
  <outline>
    <contour>
      <point x="43" y="652" type="line"/>
      <point x="98" y="645" type="line" smooth="yes"/>
      <point x="119" y="642"/>
      <point x="120" y="641"/>
      <point x="120" y="596" type="curve"/>
      <point x="120" y="84" type="line"/>
      <point x="120" y="39"/>
      <point x="119" y="38"/>
      <point x="98" y="35" type="curve" smooth="yes"/>
      <point x="43" y="28" type="line"/>
      <point x="43" y="0" type="line"/>
      <point x="317" y="0" type="line"/>
      <point x="317" y="28" type="line"/>
      <point x="262" y="35" type="line" smooth="yes"/>
      <point x="241" y="38"/>
      <point x="240" y="39"/>
      <point x="240" y="84" type="curve"/>
      <point x="240" y="272" type="line"/>
      <point x="305" y="346" type="line"/>
      <point x="467" y="0" type="line"/>
      <point x="657" y="0" type="line"/>
      <point x="657" y="28" type="line"/>
      <point x="612" y="35" type="line" smooth="yes"/>
      <point x="583" y="39"/>
      <point x="580" y="41"/>
      <point x="559" y="84" type="curve" smooth="yes"/>
      <point x="386" y="438" type="line"/>
      <point x="526" y="596" type="line" smooth="yes"/>
      <point x="565" y="640"/>
      <point x="566" y="642"/>
      <point x="586" y="645" type="curve" smooth="yes"/>
      <point x="641" y="652" type="line"/>
      <point x="641" y="680" type="line"/>
      <point x="438" y="680" type="line"/>
      <point x="438" y="652" type="line"/>
      <point x="493" y="645" type="line" smooth="yes"/>
      <point x="514" y="642"/>
      <point x="516" y="640"/>
      <point x="477" y="596" type="curve" smooth="yes"/>
      <point x="240" y="327" type="line"/>
      <point x="240" y="596" type="line"/>
      <point x="240" y="641"/>
      <point x="241" y="642"/>
      <point x="262" y="645" type="curve" smooth="yes"/>
      <point x="317" y="652" type="line"/>
      <point x="317" y="680" type="line"/>
      <point x="43" y="680" type="line"/>
    </contour>
  </outline>
</glyph>
<glyph name="M" format="1">
  <advance width="871"/>
  <unicode hex="004D"/>
  <outline>
    <contour>
      <point x="828" y="28" type="line"/>
      <point x="773" y="35" type="line" smooth="yes"/>
      <point x="752" y="38"/>
      <point x="751" y="39"/>
      <point x="751" y="84" type="curve"/>
      <point x="751" y="596" type="line"/>
      <point x="751" y="641"/>
      <point x="752" y="642"/>
      <point x="773" y="645" type="curve" smooth="yes"/>
      <point x="828" y="652" type="line"/>
      <point x="828" y="680" type="line"/>
      <point x="623" y="680" type="line"/>
      <point x="437" y="160" type="line"/>
      <point x="254" y="680" type="line"/>
      <point x="43" y="680" type="line"/>
      <point x="43" y="652" type="line"/>
      <point x="98" y="645" type="line" smooth="yes"/>
      <point x="119" y="642"/>
      <point x="120" y="641"/>
      <point x="120" y="596" type="curve"/>
      <point x="120" y="84" type="line"/>
      <point x="120" y="39"/>
      <point x="119" y="38"/>
      <point x="98" y="35" type="curve" smooth="yes"/>
      <point x="43" y="28" type="line"/>
      <point x="43" y="0" type="line"/>
      <point x="237" y="0" type="line"/>
      <point x="237" y="28" type="line"/>
      <point x="182" y="35" type="line" smooth="yes"/>
      <point x="161" y="38"/>
      <point x="160" y="39"/>
      <point x="160" y="84" type="curve"/>
      <point x="160" y="595" type="line"/>
      <point x="341" y="80" type="line"/>
      <point x="448" y="80" type="line"/>
      <point x="631" y="598" type="line"/>
      <point x="631" y="84" type="line"/>
      <point x="631" y="39"/>
      <point x="630" y="38"/>
      <point x="609" y="35" type="curve" smooth="yes"/>
      <point x="554" y="28" type="line"/>
      <point x="554" y="0" type="line"/>
      <point x="828" y="0" type="line"/>
    </contour>
  </outline>
</glyph>
<glyph name="N" format="1">
  <advance width="687"/>
  <unicode hex="004E"/>
  <outline>
    <contour>
      <point x="465" y="652" type="line"/>
      <point x="520" y="645" type="line" smooth="yes"/>
      <point x="541" y="642"/>
      <point x="542" y="641"/>
      <point x="542" y="596" type="curve"/>
      <point x="542" y="201" type="line"/>
      <point x="244" y="680" type="line"/>
      <point x="43" y="680" type="line"/>
      <point x="43" y="652" type="line"/>
      <point x="98" y="645" type="line" smooth="yes"/>
      <point x="119" y="642"/>
      <point x="120" y="641"/>
      <point x="120" y="596" type="curve"/>
      <point x="120" y="84" type="line"/>
      <point x="120" y="39"/>
      <point x="119" y="38"/>
      <point x="98" y="35" type="curve" smooth="yes"/>
      <point x="43" y="28" type="line"/>
      <point x="43" y="0" type="line"/>
      <point x="237" y="0" type="line"/>
      <point x="237" y="28" type="line"/>
      <point x="182" y="35" type="line" smooth="yes"/>
      <point x="161" y="38"/>
      <point x="160" y="39"/>
      <point x="160" y="84" type="curve"/>
      <point x="160" y="593" type="line"/>
      <point x="527" y="0" type="line"/>
      <point x="582" y="0" type="line"/>
      <point x="582" y="596" type="line"/>
      <point x="582" y="641"/>
      <point x="583" y="642"/>
      <point x="604" y="645" type="curve" smooth="yes"/>
      <point x="659" y="652" type="line"/>
      <point x="659" y="680" type="line"/>
      <point x="465" y="680" type="line"/>
    </contour>
  </outline>
</glyph>
<glyph name="O" format="1">
  <advance width="674"/>
  <unicode hex="004F"/>
  <outline>
    <contour>
      <point x="608" y="372" type="line" smooth="yes"/>
      <point x="608" y="577"/>
      <point x="515" y="690"/>
      <point x="337" y="690" type="curve" smooth="yes"/>
      <point x="158" y="690"/>
      <point x="66" y="577"/>
      <point x="66" y="372" type="curve" smooth="yes"/>
      <point x="66" y="309" type="line" smooth="yes"/>
      <point x="66" y="104"/>
      <point x="158" y="-10"/>
      <point x="337" y="-10" type="curve" smooth="yes"/>
      <point x="515" y="-10"/>
      <point x="608" y="104"/>
      <point x="608" y="309" type="curve" smooth="yes"/>
    </contour>
    <contour>
      <point x="480" y="422" type="curve" smooth="yes"/>
      <point x="480" y="259" type="line" smooth="yes"/>
      <point x="480" y="85"/>
      <point x="436" y="25"/>
      <point x="337" y="25" type="curve" smooth="yes"/>
      <point x="238" y="25"/>
      <point x="194" y="85"/>
      <point x="194" y="259" type="curve" smooth="yes"/>
      <point x="194" y="422" type="line" smooth="yes"/>
      <point x="194" y="597"/>
      <point x="238" y="655"/>
      <point x="337" y="655" type="curve" smooth="yes"/>
      <point x="436" y="655"/>
      <point x="480" y="597"/>
    </contour>
  </outline>
</glyph>
<glyph name="P" format="1">
  <advance width="598"/>
  <unicode hex="0050"/>
  <outline>
    <contour>
      <point x="43" y="652" type="line"/>
      <point x="98" y="645" type="line" smooth="yes"/>
      <point x="119" y="642"/>
      <point x="120" y="641"/>
      <point x="120" y="596" type="curve"/>
      <point x="120" y="84" type="line"/>
      <point x="120" y="39"/>
      <point x="119" y="38"/>
      <point x="98" y="35" type="curve" smooth="yes"/>
      <point x="43" y="28" type="line"/>
      <point x="43" y="0" type="line"/>
      <point x="337" y="0" type="line"/>
      <point x="337" y="28" type="line"/>
      <point x="262" y="35" type="line" smooth="yes"/>
      <point x="241" y="37"/>
      <point x="240" y="39"/>
      <point x="240" y="84" type="curve"/>
      <point x="240" y="286" type="line"/>
      <point x="344" y="286" type="line" smooth="yes"/>
      <point x="490" y="286"/>
      <point x="563" y="360"/>
      <point x="563" y="472" type="curve" smooth="yes"/>
      <point x="563" y="495" type="line" smooth="yes"/>
      <point x="563" y="607"/>
      <point x="490" y="680"/>
      <point x="344" y="680" type="curve" smooth="yes"/>
      <point x="43" y="680" type="line"/>
    </contour>
    <contour>
      <point x="344" y="645" type="line" smooth="yes"/>
      <point x="403" y="645"/>
      <point x="435" y="596"/>
      <point x="435" y="515" type="curve" smooth="yes"/>
      <point x="435" y="452" type="line" smooth="yes"/>
      <point x="435" y="370"/>
      <point x="403" y="321"/>
      <point x="344" y="321" type="curve" smooth="yes"/>
      <point x="240" y="321" type="line"/>
      <point x="240" y="645" type="line"/>
    </contour>
  </outline>
</glyph>
<glyph name="Q" format="1">
  <advance width="678"/>
  <unicode hex="0051"/>
  <outline>
    <contour>
      <point x="575" y="-83" type="line"/>
      <point x="465" y="-83"/>
      <point x="413" y="-60"/>
      <point x="387" y="-7" type="curve"/>
      <point x="535" y="12"/>
      <point x="612" y="123"/>
      <point x="612" y="309" type="curve" smooth="yes"/>
      <point x="612" y="372" type="line" smooth="yes"/>
      <point x="612" y="577"/>
      <point x="518" y="690"/>
      <point x="339" y="690" type="curve" smooth="yes"/>
      <point x="159" y="690"/>
      <point x="66" y="577"/>
      <point x="66" y="372" type="curve" smooth="yes"/>
      <point x="66" y="309" type="line" smooth="yes"/>
      <point x="66" y="104"/>
      <point x="159" y="-10"/>
      <point x="339" y="-10" type="curve" smooth="yes"/>
      <point x="348" y="-10" type="line"/>
      <point x="402" y="-160"/>
      <point x="484" y="-208"/>
      <point x="592" y="-208" type="curve"/>
    </contour>
    <contour>
      <point x="484" y="422" type="curve" smooth="yes"/>
      <point x="484" y="259" type="line" smooth="yes"/>
      <point x="484" y="85"/>
      <point x="439" y="25"/>
      <point x="339" y="25" type="curve" smooth="yes"/>
      <point x="239" y="25"/>
      <point x="194" y="85"/>
      <point x="194" y="259" type="curve" smooth="yes"/>
      <point x="194" y="422" type="line" smooth="yes"/>
      <point x="194" y="597"/>
      <point x="239" y="655"/>
      <point x="339" y="655" type="curve" smooth="yes"/>
      <point x="439" y="655"/>
      <point x="484" y="597"/>
    </contour>
  </outline>
</glyph>
<glyph name="R" format="1">
  <advance width="651"/>
  <unicode hex="0052"/>
  <outline>
    <contour>
      <point x="43" y="652" type="line"/>
      <point x="98" y="645" type="line" smooth="yes"/>
      <point x="119" y="642"/>
      <point x="120" y="641"/>
      <point x="120" y="596" type="curve"/>
      <point x="120" y="84" type="line"/>
      <point x="120" y="39"/>
      <point x="119" y="38"/>
      <point x="98" y="35" type="curve" smooth="yes"/>
      <point x="43" y="28" type="line"/>
      <point x="43" y="0" type="line"/>
      <point x="317" y="0" type="line"/>
      <point x="317" y="28" type="line"/>
      <point x="262" y="35" type="line" smooth="yes"/>
      <point x="241" y="38"/>
      <point x="240" y="39"/>
      <point x="240" y="84" type="curve"/>
      <point x="240" y="310" type="line"/>
      <point x="313" y="310" type="line"/>
      <point x="464" y="0" type="line"/>
      <point x="651" y="0" type="line"/>
      <point x="651" y="28" type="line"/>
      <point x="606" y="35" type="line" smooth="yes"/>
      <point x="585" y="38"/>
      <point x="585" y="39"/>
      <point x="561" y="84" type="curve" smooth="yes"/>
      <point x="436" y="322" type="line"/>
      <point x="519" y="346"/>
      <point x="564" y="404"/>
      <point x="564" y="484" type="curve" smooth="yes"/>
      <point x="564" y="507" type="line" smooth="yes"/>
      <point x="564" y="612"/>
      <point x="485" y="680"/>
      <point x="345" y="680" type="curve" smooth="yes"/>
      <point x="43" y="680" type="line"/>
    </contour>
    <contour>
      <point x="345" y="645" type="line" smooth="yes"/>
      <point x="404" y="645"/>
      <point x="436" y="615"/>
      <point x="436" y="517" type="curve" smooth="yes"/>
      <point x="436" y="474" type="line" smooth="yes"/>
      <point x="436" y="375"/>
      <point x="404" y="345"/>
      <point x="345" y="345" type="curve" smooth="yes"/>
      <point x="240" y="345" type="line"/>
      <point x="240" y="645" type="line"/>
    </contour>
  </outline>
</glyph>
<glyph name="T" format="1">
  <advance width="574"/>
  <unicode hex="0054"/>
  <outline>
    <contour>
      <point x="12" y="680" type="line"/>
      <point x="12" y="508" type="line"/>
      <point x="40" y="508" type="line"/>
      <point x="72" y="619" type="line" smooth="yes"/>
      <point x="79" y="645"/>
      <point x="79" y="645"/>
      <point x="126" y="645" type="curve"/>
      <point x="227" y="645" type="line"/>
      <point x="227" y="84" type="line"/>
      <point x="227" y="39"/>
      <point x="226" y="38"/>
      <point x="205" y="35" type="curve" smooth="yes"/>
      <point x="150" y="28" type="line"/>
      <point x="150" y="0" type="line"/>
      <point x="424" y="0" type="line"/>
      <point x="424" y="28" type="line"/>
      <point x="369" y="35" type="line" smooth="yes"/>
      <point x="348" y="38"/>
      <point x="347" y="39"/>
      <point x="347" y="84" type="curve"/>
      <point x="347" y="645" type="line"/>
      <point x="448" y="645" type="line"/>
      <point x="495" y="645"/>
      <point x="495" y="645"/>
      <point x="502" y="619" type="curve" smooth="yes"/>
      <point x="534" y="508" type="line"/>
      <point x="562" y="508" type="line"/>
      <point x="562" y="680" type="line"/>
    </contour>
  </outline>
</glyph>
<glyph name="U" format="1">
  <advance width="684"/>
  <unicode hex="0055"/>
  <outline>
    <contour>
      <point x="461" y="652" type="line"/>
      <point x="516" y="645" type="line" smooth="yes"/>
      <point x="537" y="642"/>
      <point x="538" y="641"/>
      <point x="538" y="596" type="curve"/>
      <point x="538" y="229" type="line" smooth="yes"/>
      <point x="538" y="86"/>
      <point x="480" y="27"/>
      <point x="382" y="27" type="curve" smooth="yes"/>
      <point x="280" y="27"/>
      <point x="224" y="90"/>
      <point x="224" y="239" type="curve" smooth="yes"/>
      <point x="224" y="596" type="line"/>
      <point x="224" y="641"/>
      <point x="225" y="642"/>
      <point x="246" y="645" type="curve" smooth="yes"/>
      <point x="301" y="652" type="line"/>
      <point x="301" y="680" type="line"/>
      <point x="27" y="680" type="line"/>
      <point x="27" y="652" type="line"/>
      <point x="82" y="645" type="line" smooth="yes"/>
      <point x="103" y="642"/>
      <point x="104" y="641"/>
      <point x="104" y="596" type="curve"/>
      <point x="104" y="246" type="line" smooth="yes"/>
      <point x="104" y="80"/>
      <point x="211" y="-10"/>
      <point x="373" y="-10" type="curve" smooth="yes"/>
      <point x="512" y="-10"/>
      <point x="578" y="71"/>
      <point x="578" y="231" type="curve" smooth="yes"/>
      <point x="578" y="596" type="line"/>
      <point x="578" y="641"/>
      <point x="579" y="642"/>
      <point x="600" y="645" type="curve" smooth="yes"/>
      <point x="655" y="652" type="line"/>
      <point x="655" y="680" type="line"/>
      <point x="461" y="680" type="line"/>
    </contour>
  </outline>
</glyph>
<glyph name="V" format="1">
  <advance width="632"/>
  <unicode hex="0056"/>
  <outline>
    <contour>
      <point x="549" y="596" type="line" smooth="yes"/>
      <point x="563" y="641"/>
      <point x="563" y="642"/>
      <point x="584" y="645" type="curve" smooth="yes"/>
      <point x="639" y="652" type="line"/>
      <point x="639" y="680" type="line"/>
      <point x="447" y="680" type="line"/>
      <point x="447" y="652" type="line"/>
      <point x="502" y="645" type="line" smooth="yes"/>
      <point x="523" y="642"/>
      <point x="524" y="641"/>
      <point x="510" y="596" type="curve" smooth="yes"/>
      <point x="360" y="119" type="line"/>
      <point x="208" y="596" type="line" smooth="yes"/>
      <point x="194" y="641"/>
      <point x="195" y="642"/>
      <point x="216" y="645" type="curve" smooth="yes"/>
      <point x="271" y="652" type="line"/>
      <point x="271" y="680" type="line"/>
      <point x="-7" y="680" type="line"/>
      <point x="-7" y="652" type="line"/>
      <point x="48" y="645" type="line" smooth="yes"/>
      <point x="69" y="642"/>
      <point x="70" y="641"/>
      <point x="84" y="596" type="curve" smooth="yes"/>
      <point x="274" y="0" type="line"/>
      <point x="360" y="0" type="line"/>
    </contour>
  </outline>
</glyph>
<glyph name="W" format="1">
  <advance width="938"/>
  <unicode hex="0057"/>
  <outline>
    <contour>
      <point x="628" y="0" type="line"/>
      <point x="716" y="0" type="line"/>
      <point x="855" y="596" type="line" smooth="yes"/>
      <point x="865" y="641"/>
      <point x="866" y="642"/>
      <point x="888" y="645" type="curve" smooth="yes"/>
      <point x="943" y="652" type="line"/>
      <point x="943" y="680" type="line"/>
      <point x="749" y="680" type="line"/>
      <point x="749" y="652" type="line"/>
      <point x="804" y="645" type="line" smooth="yes"/>
      <point x="824" y="642"/>
      <point x="826" y="642"/>
      <point x="815" y="596" type="curve" smooth="yes"/>
      <point x="709" y="140" type="line"/>
      <point x="546" y="680" type="line"/>
      <point x="463" y="680" type="line"/>
      <point x="310" y="130" type="line"/>
      <point x="206" y="596" type="line" smooth="yes"/>
      <point x="196" y="642"/>
      <point x="196" y="642"/>
      <point x="217" y="645" type="curve" smooth="yes"/>
      <point x="272" y="652" type="line"/>
      <point x="272" y="680" type="line"/>
      <point x="-5" y="680" type="line"/>
      <point x="-5" y="652" type="line"/>
      <point x="50" y="645" type="line" smooth="yes"/>
      <point x="72" y="642"/>
      <point x="73" y="641"/>
      <point x="83" y="596" type="curve" smooth="yes"/>
      <point x="222" y="0" type="line"/>
      <point x="309" y="0" type="line"/>
      <point x="464" y="546" type="line"/>
    </contour>
  </outline>
</glyph>
<glyph name="X" format="1">
  <advance width="621"/>
  <unicode hex="0058"/>
  <outline>
    <contour>
      <point x="198" y="28" type="line"/>
      <point x="143" y="35" type="line" smooth="yes"/>
      <point x="122" y="38"/>
      <point x="121" y="39"/>
      <point x="149" y="84" type="curve" smooth="yes"/>
      <point x="276" y="288" type="line"/>
      <point x="387" y="84" type="line" smooth="yes"/>
      <point x="412" y="38"/>
      <point x="411" y="38"/>
      <point x="390" y="35" type="curve" smooth="yes"/>
      <point x="335" y="28" type="line"/>
      <point x="335" y="0" type="line"/>
      <point x="620" y="0" type="line"/>
      <point x="620" y="28" type="line"/>
      <point x="565" y="35" type="line" smooth="yes"/>
      <point x="544" y="38"/>
      <point x="543" y="39"/>
      <point x="519" y="84" type="curve" smooth="yes"/>
      <point x="362" y="375" type="line"/>
      <point x="500" y="596" type="line" smooth="yes"/>
      <point x="529" y="642"/>
      <point x="530" y="642"/>
      <point x="550" y="645" type="curve" smooth="yes"/>
      <point x="605" y="652" type="line"/>
      <point x="605" y="680" type="line"/>
      <point x="408" y="680" type="line"/>
      <point x="408" y="652" type="line"/>
      <point x="463" y="645" type="line" smooth="yes"/>
      <point x="484" y="642"/>
      <point x="485" y="641"/>
      <point x="457" y="596" type="curve" smooth="yes"/>
      <point x="342" y="412" type="line"/>
      <point x="242" y="596" type="line" smooth="yes"/>
      <point x="218" y="641"/>
      <point x="219" y="642"/>
      <point x="239" y="645" type="curve" smooth="yes"/>
      <point x="294" y="652" type="line"/>
      <point x="294" y="680" type="line"/>
      <point x="8" y="680" type="line"/>
      <point x="8" y="652" type="line"/>
      <point x="63" y="645" type="line" smooth="yes"/>
      <point x="84" y="642"/>
      <point x="85" y="641"/>
      <point x="109" y="596" type="curve" smooth="yes"/>
      <point x="257" y="324" type="line"/>
      <point x="106" y="84" type="line" smooth="yes"/>
      <point x="77" y="38"/>
      <point x="76" y="38"/>
      <point x="56" y="35" type="curve" smooth="yes"/>
      <point x="1" y="28" type="line"/>
      <point x="1" y="0" type="line"/>
      <point x="198" y="0" type="line"/>
    </contour>
  </outline>
</glyph>
<glyph name="Y" format="1">
  <advance width="615"/>
  <unicode hex="0059"/>
  <outline>
    <contour>
      <point x="446" y="28" type="line"/>
      <point x="391" y="35" type="line" smooth="yes"/>
      <point x="370" y="38"/>
      <point x="369" y="39"/>
      <point x="369" y="84" type="curve"/>
      <point x="369" y="293" type="line"/>
      <point x="526" y="596" type="line" smooth="yes"/>
      <point x="549" y="641"/>
      <point x="550" y="642"/>
      <point x="570" y="645" type="curve" smooth="yes"/>
      <point x="625" y="652" type="line"/>
      <point x="625" y="680" type="line"/>
      <point x="430" y="680" type="line"/>
      <point x="430" y="652" type="line"/>
      <point x="485" y="645" type="line" smooth="yes"/>
      <point x="505" y="642"/>
      <point x="507" y="640"/>
      <point x="484" y="596" type="curve" smooth="yes"/>
      <point x="350" y="338" type="line"/>
      <point x="221" y="596" type="line" smooth="yes"/>
      <point x="199" y="641"/>
      <point x="200" y="642"/>
      <point x="220" y="645" type="curve" smooth="yes"/>
      <point x="275" y="652" type="line"/>
      <point x="275" y="680" type="line"/>
      <point x="-10" y="680" type="line"/>
      <point x="-10" y="652" type="line"/>
      <point x="45" y="645" type="line" smooth="yes"/>
      <point x="65" y="642"/>
      <point x="66" y="642"/>
      <point x="90" y="596" type="curve" smooth="yes"/>
      <point x="249" y="291" type="line"/>
      <point x="249" y="84" type="line"/>
      <point x="249" y="39"/>
      <point x="248" y="38"/>
      <point x="227" y="35" type="curve" smooth="yes"/>
      <point x="172" y="28" type="line"/>
      <point x="172" y="0" type="line"/>
      <point x="446" y="0" type="line"/>
    </contour>
  </outline>
</glyph>
<glyph name="Z" format="1">
  <advance width="546"/>
  <unicode hex="005A"/>
  <outline>
    <contour>
      <point x="480" y="172" type="line"/>
      <point x="448" y="61" type="line" smooth="yes"/>
      <point x="441" y="37"/>
      <point x="441" y="35"/>
      <point x="394" y="35" type="curve"/>
      <point x="174" y="35" type="line"/>
      <point x="498" y="655" type="line"/>
      <point x="498" y="680" type="line"/>
      <point x="54" y="680" type="line"/>
      <point x="54" y="508" type="line"/>
      <point x="82" y="508" type="line"/>
      <point x="114" y="619" type="line" smooth="yes"/>
      <point x="121" y="643"/>
      <point x="121" y="645"/>
      <point x="168" y="645" type="curve"/>
      <point x="362" y="645" type="line"/>
      <point x="38" y="25" type="line"/>
      <point x="38" y="0" type="line"/>
      <point x="508" y="0" type="line"/>
      <point x="508" y="172" type="line"/>
    </contour>
  </outline>
</glyph>
<glyph name="bracketleft" format="1">
  <advance width="350"/>
  <unicode hex="005B"/>
  <outline>
    <contour>
      <point x="340" y="705" type="line"/>
      <point x="340" y="740" type="line"/>
      <point x="95" y="740" type="line"/>
      <point x="95" y="-143" type="line"/>
      <point x="340" y="-143" type="line"/>
      <point x="340" y="-108" type="line"/>
      <point x="210" y="-108" type="line"/>
      <point x="210" y="705" type="line"/>
    </contour>
  </outline>
</glyph>
<glyph name="backslash" format="1">
  <advance width="373"/>
  <unicode hex="005C"/>
  <outline>
    <contour>
      <point x="49" y="740" type="line"/>
      <point x="10" y="725" type="line"/>
      <point x="356" y="-143" type="line"/>
      <point x="395" y="-128" type="line"/>
    </contour>
  </outline>
</glyph>
<glyph name="bracketright" format="1">
  <advance width="350"/>
  <unicode hex="005D"/>
  <outline>
    <contour>
      <point x="10" y="740" type="line"/>
      <point x="10" y="705" type="line"/>
      <point x="140" y="705" type="line"/>
      <point x="140" y="-108" type="line"/>
      <point x="10" y="-108" type="line"/>
      <point x="10" y="-143" type="line"/>
      <point x="255" y="-143" type="line"/>
      <point x="255" y="740" type="line"/>
    </contour>
  </outline>
</glyph>
<glyph name="asciicircum" format="1">
  <advance width="588"/>
  <unicode hex="005E"/>
  <outline>
    <contour>
      <point x="469" y="278" type="line"/>
      <point x="308" y="680" type="line"/>
      <point x="280" y="680" type="line"/>
      <point x="119" y="278" type="line"/>
      <point x="152" y="266" type="line"/>
      <point x="293" y="621" type="line"/>
      <point x="434" y="266" type="line"/>
    </contour>
  </outline>
</glyph>
<glyph name="underscore" format="1">
  <advance width="418"/>
  <unicode hex="005F"/>
  <outline>
    <contour>
      <point x="17" y="-145" type="line"/>
      <point x="401" y="-145" type="line"/>
      <point x="401" y="-110" type="line"/>
      <point x="17" y="-110" type="line"/>
    </contour>
  </outline>
</glyph>
<glyph name="grave" format="1">
  <advance width="500"/>
  <unicode hex="0060"/>
  <outline>
    <contour>
      <point x="251" y="579" type="curve"/>
      <point x="275" y="600" type="line"/>
      <point x="248" y="643"/>
      <point x="227" y="680"/>
      <point x="213" y="740" type="curve"/>
      <point x="87" y="740" type="line"/>
      <point x="132" y="678"/>
      <point x="177" y="634"/>
    </contour>
  </outline>
</glyph>
<glyph name="a" format="1">
  <advance width="538"/>
  <unicode hex="0061"/>
  <outline>
    <contour>
      <point x="533" y="25" type="curve"/>
      <point x="515" y="51" type="line"/>
      <point x="499" y="36"/>
      <point x="487" y="30"/>
      <point x="475" y="30" type="curve" smooth="yes"/>
      <point x="460" y="30"/>
      <point x="446" y="39"/>
      <point x="446" y="107" type="curve" smooth="yes"/>
      <point x="446" y="338" type="line" smooth="yes"/>
      <point x="446" y="432"/>
      <point x="406" y="517"/>
      <point x="252" y="517" type="curve" smooth="yes"/>
      <point x="115" y="517"/>
      <point x="51" y="434"/>
      <point x="67" y="343" type="curve"/>
      <point x="177" y="327" type="line"/>
      <point x="155" y="453"/>
      <point x="199" y="482"/>
      <point x="250" y="482" type="curve" smooth="yes"/>
      <point x="300" y="482"/>
      <point x="331" y="448"/>
      <point x="331" y="338" type="curve" smooth="yes"/>
      <point x="331" y="257" type="line"/>
      <point x="240" y="257" type="line" smooth="yes"/>
      <point x="95" y="257"/>
      <point x="45" y="204"/>
      <point x="45" y="125" type="curve" smooth="yes"/>
      <point x="45" y="48"/>
      <point x="90" y="-10"/>
      <point x="182" y="-10" type="curve" smooth="yes"/>
      <point x="237" y="-10"/>
      <point x="291" y="11"/>
      <point x="335" y="59" type="curve"/>
      <point x="347" y="15"/>
      <point x="385" y="-10"/>
      <point x="440" y="-10" type="curve" smooth="yes"/>
      <point x="483" y="-10"/>
      <point x="511" y="5"/>
    </contour>
    <contour>
      <point x="226" y="43" type="curve" smooth="yes"/>
      <point x="184" y="43"/>
      <point x="163" y="74"/>
      <point x="163" y="127" type="curve" smooth="yes"/>
      <point x="163" y="192"/>
      <point x="190" y="222"/>
      <point x="256" y="222" type="curve" smooth="yes"/>
      <point x="331" y="222" type="line"/>
      <point x="331" y="107" type="line"/>
      <point x="293" y="57"/>
      <point x="260" y="43"/>
    </contour>
  </outline>
</glyph>
<glyph name="b" format="1">
  <advance width="577"/>
  <unicode hex="0062"/>
  <outline>
    <contour>
      <point x="8" y="712" type="line"/>
      <point x="63" y="705" type="line" smooth="yes"/>
      <point x="84" y="702"/>
      <point x="85" y="701"/>
      <point x="85" y="656" type="curve"/>
      <point x="85" y="-5" type="line"/>
      <point x="112" y="-5" type="line"/>
      <point x="134" y="12"/>
      <point x="156" y="27"/>
      <point x="180" y="36" type="curve"/>
      <point x="212" y="6"/>
      <point x="256" y="-10"/>
      <point x="306" y="-10" type="curve" smooth="yes"/>
      <point x="440" y="-10"/>
      <point x="521" y="89"/>
      <point x="521" y="244" type="curve" smooth="yes"/>
      <point x="521" y="264" type="line" smooth="yes"/>
      <point x="521" y="424"/>
      <point x="450" y="517"/>
      <point x="338" y="517" type="curve" smooth="yes"/>
      <point x="279" y="517"/>
      <point x="236" y="489"/>
      <point x="200" y="433" type="curve"/>
      <point x="200" y="740" type="line"/>
      <point x="8" y="740" type="line"/>
    </contour>
    <contour>
      <point x="312" y="473" type="curve" smooth="yes"/>
      <point x="365" y="473"/>
      <point x="398" y="418"/>
      <point x="398" y="294" type="curve" smooth="yes"/>
      <point x="398" y="214" type="line" smooth="yes"/>
      <point x="398" y="99"/>
      <point x="367" y="29"/>
      <point x="293" y="29" type="curve" smooth="yes"/>
      <point x="258" y="29"/>
      <point x="226" y="41"/>
      <point x="200" y="67" type="curve"/>
      <point x="200" y="369" type="line"/>
      <point x="243" y="453"/>
      <point x="279" y="473"/>
    </contour>
  </outline>
</glyph>
<glyph name="c" format="1">
  <advance width="503"/>
  <unicode hex="0063"/>
  <outline>
    <contour>
      <point x="271" y="482" type="curve" smooth="yes"/>
      <point x="335" y="482"/>
      <point x="362" y="418"/>
      <point x="348" y="306" type="curve"/>
      <point x="458" y="322" type="line"/>
      <point x="476" y="423"/>
      <point x="410" y="517"/>
      <point x="271" y="517" type="curve" smooth="yes"/>
      <point x="130" y="517"/>
      <point x="53" y="417"/>
      <point x="53" y="264" type="curve" smooth="yes"/>
      <point x="53" y="244" type="line" smooth="yes"/>
      <point x="53" y="90"/>
      <point x="130" y="-10"/>
      <point x="284" y="-10" type="curve" smooth="yes"/>
      <point x="369" y="-10"/>
      <point x="437" y="25"/>
      <point x="461" y="119" type="curve"/>
      <point x="397" y="137" type="line"/>
      <point x="391" y="55"/>
      <point x="351" y="25"/>
      <point x="291" y="25" type="curve" smooth="yes"/>
      <point x="209" y="25"/>
      <point x="176" y="82"/>
      <point x="176" y="224" type="curve" smooth="yes"/>
      <point x="176" y="284" type="line" smooth="yes"/>
      <point x="176" y="426"/>
      <point x="207" y="482"/>
    </contour>
  </outline>
</glyph>
<glyph name="e" format="1">
  <advance width="529"/>
  <unicode hex="0065"/>
  <outline>
    <contour>
      <point x="474" y="119" type="curve"/>
      <point x="410" y="137" type="line"/>
      <point x="404" y="55"/>
      <point x="360" y="25"/>
      <point x="303" y="25" type="curve" smooth="yes"/>
      <point x="213" y="25"/>
      <point x="176" y="82"/>
      <point x="176" y="224" type="curve" smooth="yes"/>
      <point x="176" y="253" type="line"/>
      <point x="472" y="253" type="line"/>
      <point x="477" y="276"/>
      <point x="479" y="299"/>
      <point x="479" y="319" type="curve" smooth="yes"/>
      <point x="479" y="445"/>
      <point x="392" y="517"/>
      <point x="273" y="517" type="curve" smooth="yes"/>
      <point x="130" y="517"/>
      <point x="53" y="417"/>
      <point x="53" y="264" type="curve" smooth="yes"/>
      <point x="53" y="244" type="line" smooth="yes"/>
      <point x="53" y="90"/>
      <point x="133" y="-10"/>
      <point x="293" y="-10" type="curve" smooth="yes"/>
      <point x="380" y="-10"/>
      <point x="450" y="25"/>
    </contour>
    <contour>
      <point x="273" y="482" type="curve" smooth="yes"/>
      <point x="328" y="482"/>
      <point x="364" y="443"/>
      <point x="364" y="358" type="curve" smooth="yes"/>
      <point x="364" y="338"/>
      <point x="362" y="314"/>
      <point x="357" y="288" type="curve"/>
      <point x="176" y="288" type="line"/>
      <point x="176" y="426"/>
      <point x="208" y="482"/>
    </contour>
  </outline>
</glyph>
<glyph name="f" format="1">
  <advance width="363"/>
  <unicode hex="0066"/>
  <outline>
    <contour>
      <point x="312" y="28" type="line"/>
      <point x="237" y="35" type="line" smooth="yes"/>
      <point x="216" y="37"/>
      <point x="215" y="39"/>
      <point x="215" y="84" type="curve"/>
      <point x="215" y="472" type="line"/>
      <point x="365" y="472" type="line"/>
      <point x="365" y="507" type="line"/>
      <point x="215" y="507" type="line"/>
      <point x="215" y="581" type="line" smooth="yes"/>
      <point x="215" y="690"/>
      <point x="239" y="715"/>
      <point x="279" y="715" type="curve" smooth="yes"/>
      <point x="328" y="715"/>
      <point x="350" y="681"/>
      <point x="337" y="581" type="curve"/>
      <point x="447" y="597" type="line"/>
      <point x="460" y="679"/>
      <point x="400" y="750"/>
      <point x="279" y="750" type="curve" smooth="yes"/>
      <point x="144" y="750"/>
      <point x="100" y="657"/>
      <point x="100" y="561" type="curve" smooth="yes"/>
      <point x="100" y="507" type="line"/>
      <point x="23" y="507" type="line"/>
      <point x="23" y="479" type="line"/>
      <point x="78" y="472" type="line" smooth="yes"/>
      <point x="99" y="469"/>
      <point x="100" y="468"/>
      <point x="100" y="423" type="curve"/>
      <point x="100" y="84" type="line"/>
      <point x="100" y="39"/>
      <point x="99" y="38"/>
      <point x="78" y="35" type="curve" smooth="yes"/>
      <point x="23" y="28" type="line"/>
      <point x="23" y="0" type="line"/>
      <point x="312" y="0" type="line"/>
    </contour>
  </outline>
</glyph>
<glyph name="g" format="1">
  <advance width="532"/>
  <unicode hex="0067"/>
  <outline>
    <contour>
      <point x="511" y="-52" type="curve" smooth="yes"/>
      <point x="511" y="44"/>
      <point x="448" y="97"/>
      <point x="333" y="97" type="curve" smooth="yes"/>
      <point x="203" y="97" type="line" smooth="yes"/>
      <point x="159" y="97"/>
      <point x="141" y="108"/>
      <point x="141" y="129" type="curve" smooth="yes"/>
      <point x="141" y="147"/>
      <point x="151" y="168"/>
      <point x="185" y="191" type="curve"/>
      <point x="204" y="187"/>
      <point x="224" y="185"/>
      <point x="244" y="185" type="curve" smooth="yes"/>
      <point x="261" y="185" type="line" smooth="yes"/>
      <point x="368" y="185"/>
      <point x="454" y="243"/>
      <point x="454" y="351" type="curve" smooth="yes"/>
      <point x="454" y="404"/>
      <point x="435" y="443"/>
      <point x="403" y="471" type="curve"/>
      <point x="517" y="471" type="line"/>
      <point x="505" y="569" type="line"/>
      <point x="361" y="498" type="line"/>
      <point x="332" y="511"/>
      <point x="298" y="517"/>
      <point x="261" y="517" type="curve" smooth="yes"/>
      <point x="244" y="517" type="line" smooth="yes"/>
      <point x="136" y="517"/>
      <point x="50" y="462"/>
      <point x="50" y="351" type="curve" smooth="yes"/>
      <point x="50" y="278"/>
      <point x="89" y="228"/>
      <point x="147" y="203" type="curve"/>
      <point x="95" y="166"/>
      <point x="76" y="128"/>
      <point x="76" y="89" type="curve" smooth="yes"/>
      <point x="76" y="41"/>
      <point x="107" y="-10"/>
      <point x="214" y="-10" type="curve" smooth="yes"/>
      <point x="328" y="-10" type="line" smooth="yes"/>
      <point x="409" y="-10"/>
      <point x="442" y="-35"/>
      <point x="442" y="-83" type="curve" smooth="yes"/>
      <point x="442" y="-151"/>
      <point x="377" y="-188"/>
      <point x="281" y="-188" type="curve" smooth="yes"/>
      <point x="178" y="-188"/>
      <point x="143" y="-143"/>
      <point x="149" y="-72" type="curve"/>
      <point x="42" y="-89" type="line"/>
      <point x="49" y="-165"/>
      <point x="124" y="-223"/>
      <point x="281" y="-223" type="curve" smooth="yes"/>
      <point x="423" y="-223"/>
      <point x="511" y="-162"/>
    </contour>
    <contour>
      <point x="261" y="220" type="curve" smooth="yes"/>
      <point x="244" y="220" type="line" smooth="yes"/>
      <point x="201" y="220"/>
      <point x="165" y="251"/>
      <point x="165" y="351" type="curve" smooth="yes"/>
      <point x="165" y="451"/>
      <point x="201" y="482"/>
      <point x="244" y="482" type="curve" smooth="yes"/>
      <point x="261" y="482" type="line" smooth="yes"/>
      <point x="303" y="482"/>
      <point x="339" y="451"/>
      <point x="339" y="351" type="curve" smooth="yes"/>
      <point x="339" y="251"/>
      <point x="303" y="220"/>
    </contour>
  </outline>
</glyph>
<glyph name="i" format="1">
  <advance width="308"/>
  <unicode hex="0069"/>
  <outline>
    <contour>
      <point x="157" y="593" type="curve" smooth="yes"/>
      <point x="197" y="593"/>
      <point x="227" y="621"/>
      <point x="227" y="663" type="curve" smooth="yes"/>
      <point x="227" y="704"/>
      <point x="197" y="732"/>
      <point x="157" y="732" type="curve" smooth="yes"/>
      <point x="116" y="732"/>
      <point x="88" y="704"/>
      <point x="88" y="663" type="curve" smooth="yes"/>
      <point x="88" y="621"/>
      <point x="116" y="593"/>
    </contour>
    <contour>
      <point x="23" y="479" type="line"/>
      <point x="78" y="472" type="line" smooth="yes"/>
      <point x="99" y="469"/>
      <point x="100" y="468"/>
      <point x="100" y="423" type="curve"/>
      <point x="100" y="84" type="line"/>
      <point x="100" y="39"/>
      <point x="99" y="38"/>
      <point x="78" y="35" type="curve" smooth="yes"/>
      <point x="23" y="28" type="line"/>
      <point x="23" y="0" type="line"/>
      <point x="292" y="0" type="line"/>
      <point x="292" y="28" type="line"/>
      <point x="237" y="35" type="line" smooth="yes"/>
      <point x="216" y="38"/>
      <point x="215" y="39"/>
      <point x="215" y="84" type="curve"/>
      <point x="215" y="507" type="line"/>
      <point x="23" y="507" type="line"/>
    </contour>
  </outline>
</glyph>
<glyph name="j" format="1">
  <advance width="293"/>
  <unicode hex="006A"/>
  <outline>
    <contour>
      <point x="150" y="593" type="curve" smooth="yes"/>
      <point x="190" y="593"/>
      <point x="220" y="621"/>
      <point x="220" y="663" type="curve" smooth="yes"/>
      <point x="220" y="704"/>
      <point x="190" y="732"/>
      <point x="150" y="732" type="curve" smooth="yes"/>
      <point x="109" y="732"/>
      <point x="81" y="704"/>
      <point x="81" y="663" type="curve" smooth="yes"/>
      <point x="81" y="621"/>
      <point x="109" y="593"/>
    </contour>
    <contour>
      <point x="16" y="479" type="line"/>
      <point x="71" y="472" type="line" smooth="yes"/>
      <point x="92" y="469"/>
      <point x="93" y="468"/>
      <point x="93" y="423" type="curve"/>
      <point x="93" y="-54" type="line" smooth="yes"/>
      <point x="93" y="-155"/>
      <point x="67" y="-188"/>
      <point x="23" y="-188" type="curve" smooth="yes"/>
      <point x="-11" y="-188"/>
      <point x="-39" y="-167"/>
      <point x="-45" y="-81" type="curve"/>
      <point x="-107" y="-100" type="line"/>
      <point x="-95" y="-190"/>
      <point x="-38" y="-223"/>
      <point x="35" y="-223" type="curve" smooth="yes"/>
      <point x="161" y="-223"/>
      <point x="208" y="-134"/>
      <point x="208" y="-34" type="curve" smooth="yes"/>
      <point x="208" y="507" type="line"/>
      <point x="16" y="507" type="line"/>
    </contour>
  </outline>
</glyph>
<glyph name="k" format="1">
  <advance width="588"/>
  <unicode hex="006B"/>
  <outline>
    <contour>
      <point x="16" y="712" type="line"/>
      <point x="71" y="705" type="line" smooth="yes"/>
      <point x="92" y="702"/>
      <point x="93" y="701"/>
      <point x="93" y="656" type="curve"/>
      <point x="93" y="84" type="line"/>
      <point x="93" y="39"/>
      <point x="92" y="38"/>
      <point x="71" y="35" type="curve" smooth="yes"/>
      <point x="16" y="28" type="line"/>
      <point x="16" y="0" type="line"/>
      <point x="285" y="0" type="line"/>
      <point x="285" y="28" type="line"/>
      <point x="230" y="35" type="line" smooth="yes"/>
      <point x="209" y="38"/>
      <point x="208" y="39"/>
      <point x="208" y="84" type="curve"/>
      <point x="208" y="206" type="line"/>
      <point x="257" y="253" type="line"/>
      <point x="396" y="0" type="line"/>
      <point x="587" y="0" type="line"/>
      <point x="587" y="28" type="line"/>
      <point x="532" y="35" type="line" smooth="yes"/>
      <point x="511" y="38"/>
      <point x="508" y="38"/>
      <point x="481" y="84" type="curve" smooth="yes"/>
      <point x="339" y="331" type="line"/>
      <point x="435" y="423" type="line" smooth="yes"/>
      <point x="482" y="468"/>
      <point x="484" y="469"/>
      <point x="502" y="472" type="curve" smooth="yes"/>
      <point x="557" y="479" type="line"/>
      <point x="557" y="507" type="line"/>
      <point x="352" y="507" type="line"/>
      <point x="352" y="479" type="line"/>
      <point x="407" y="472" type="line" smooth="yes"/>
      <point x="430" y="469"/>
      <point x="430" y="467"/>
      <point x="384" y="423" type="curve" smooth="yes"/>
      <point x="208" y="255" type="line"/>
      <point x="208" y="740" type="line"/>
      <point x="16" y="740" type="line"/>
    </contour>
  </outline>
</glyph>
<glyph name="l" format="1">
  <advance width="301"/>
  <unicode hex="006C"/>
  <outline>
    <contour>
      <point x="16" y="712" type="line"/>
      <point x="71" y="705" type="line" smooth="yes"/>
      <point x="92" y="702"/>
      <point x="93" y="701"/>
      <point x="93" y="656" type="curve"/>
      <point x="93" y="84" type="line"/>
      <point x="93" y="39"/>
      <point x="92" y="38"/>
      <point x="71" y="35" type="curve" smooth="yes"/>
      <point x="16" y="28" type="line"/>
      <point x="16" y="0" type="line"/>
      <point x="285" y="0" type="line"/>
      <point x="285" y="28" type="line"/>
      <point x="230" y="35" type="line" smooth="yes"/>
      <point x="209" y="38"/>
      <point x="208" y="39"/>
      <point x="208" y="84" type="curve"/>
      <point x="208" y="740" type="line"/>
      <point x="16" y="740" type="line"/>
    </contour>
  </outline>
</glyph>
<glyph name="m" format="1">
  <advance width="923"/>
  <unicode hex="006D"/>
  <outline>
    <contour>
      <point x="602" y="28" type="line"/>
      <point x="547" y="35" type="line" smooth="yes"/>
      <point x="526" y="38"/>
      <point x="525" y="39"/>
      <point x="525" y="84" type="curve"/>
      <point x="525" y="337" type="line" smooth="yes"/>
      <point x="525" y="345"/>
      <point x="525" y="354"/>
      <point x="524" y="361" type="curve"/>
      <point x="556" y="448"/>
      <point x="611" y="468"/>
      <point x="644" y="468" type="curve" smooth="yes"/>
      <point x="694" y="468"/>
      <point x="720" y="428"/>
      <point x="720" y="336" type="curve" smooth="yes"/>
      <point x="720" y="84" type="line"/>
      <point x="720" y="39"/>
      <point x="719" y="38"/>
      <point x="698" y="35" type="curve" smooth="yes"/>
      <point x="643" y="28" type="line"/>
      <point x="643" y="0" type="line"/>
      <point x="912" y="0" type="line"/>
      <point x="912" y="28" type="line"/>
      <point x="857" y="35" type="line" smooth="yes"/>
      <point x="836" y="38"/>
      <point x="835" y="39"/>
      <point x="835" y="84" type="curve"/>
      <point x="835" y="337" type="line" smooth="yes"/>
      <point x="835" y="451"/>
      <point x="775" y="517"/>
      <point x="680" y="517" type="curve" smooth="yes"/>
      <point x="618" y="517"/>
      <point x="551" y="485"/>
      <point x="515" y="411" type="curve"/>
      <point x="494" y="479"/>
      <point x="442" y="517"/>
      <point x="370" y="517" type="curve" smooth="yes"/>
      <point x="310" y="517"/>
      <point x="246" y="487"/>
      <point x="209" y="419" type="curve"/>
      <point x="209" y="507" type="line"/>
      <point x="23" y="507" type="line"/>
      <point x="23" y="479" type="line"/>
      <point x="78" y="472" type="line" smooth="yes"/>
      <point x="99" y="469"/>
      <point x="100" y="468"/>
      <point x="100" y="423" type="curve"/>
      <point x="100" y="84" type="line"/>
      <point x="100" y="39"/>
      <point x="99" y="38"/>
      <point x="78" y="35" type="curve" smooth="yes"/>
      <point x="23" y="28" type="line"/>
      <point x="23" y="0" type="line"/>
      <point x="292" y="0" type="line"/>
      <point x="292" y="28" type="line"/>
      <point x="237" y="35" type="line" smooth="yes"/>
      <point x="216" y="38"/>
      <point x="215" y="39"/>
      <point x="215" y="84" type="curve"/>
      <point x="215" y="364" type="line"/>
      <point x="247" y="449"/>
      <point x="302" y="468"/>
      <point x="334" y="468" type="curve" smooth="yes"/>
      <point x="384" y="468"/>
      <point x="410" y="428"/>
      <point x="410" y="336" type="curve" smooth="yes"/>
      <point x="410" y="84" type="line"/>
      <point x="410" y="39"/>
      <point x="409" y="38"/>
      <point x="388" y="35" type="curve" smooth="yes"/>
      <point x="333" y="28" type="line"/>
      <point x="333" y="0" type="line"/>
      <point x="602" y="0" type="line"/>
    </contour>
  </outline>
</glyph>
<glyph name="n" format="1">
  <advance width="623"/>
  <unicode hex="006E"/>
  <outline>
    <contour>
      <point x="612" y="28" type="line"/>
      <point x="557" y="35" type="line" smooth="yes"/>
      <point x="536" y="38"/>
      <point x="535" y="39"/>
      <point x="535" y="84" type="curve"/>
      <point x="535" y="337" type="line" smooth="yes"/>
      <point x="535" y="451"/>
      <point x="473" y="517"/>
      <point x="375" y="517" type="curve" smooth="yes"/>
      <point x="313" y="517"/>
      <point x="247" y="487"/>
      <point x="209" y="419" type="curve"/>
      <point x="209" y="507" type="line"/>
      <point x="23" y="507" type="line"/>
      <point x="23" y="479" type="line"/>
      <point x="78" y="472" type="line" smooth="yes"/>
      <point x="99" y="469"/>
      <point x="100" y="468"/>
      <point x="100" y="423" type="curve"/>
      <point x="100" y="84" type="line"/>
      <point x="100" y="39"/>
      <point x="99" y="38"/>
      <point x="78" y="35" type="curve" smooth="yes"/>
      <point x="23" y="28" type="line"/>
      <point x="23" y="0" type="line"/>
      <point x="292" y="0" type="line"/>
      <point x="292" y="28" type="line"/>
      <point x="237" y="35" type="line" smooth="yes"/>
      <point x="216" y="38"/>
      <point x="215" y="39"/>
      <point x="215" y="84" type="curve"/>
      <point x="215" y="364" type="line"/>
      <point x="248" y="449"/>
      <point x="305" y="468"/>
      <point x="339" y="468" type="curve" smooth="yes"/>
      <point x="392" y="468"/>
      <point x="420" y="428"/>
      <point x="420" y="336" type="curve" smooth="yes"/>
      <point x="420" y="84" type="line"/>
      <point x="420" y="39"/>
      <point x="419" y="38"/>
      <point x="398" y="35" type="curve" smooth="yes"/>
      <point x="343" y="28" type="line"/>
      <point x="343" y="0" type="line"/>
      <point x="612" y="0" type="line"/>
    </contour>
  </outline>
</glyph>
<glyph name="o" format="1">
  <advance width="562"/>
  <unicode hex="006F"/>
  <outline>
    <contour>
      <point x="510" y="264" type="line" smooth="yes"/>
      <point x="510" y="417"/>
      <point x="427" y="517"/>
      <point x="281" y="517" type="curve" smooth="yes"/>
      <point x="134" y="517"/>
      <point x="52" y="417"/>
      <point x="52" y="264" type="curve" smooth="yes"/>
      <point x="52" y="244" type="line" smooth="yes"/>
      <point x="52" y="90"/>
      <point x="134" y="-10"/>
      <point x="281" y="-10" type="curve" smooth="yes"/>
      <point x="427" y="-10"/>
      <point x="510" y="90"/>
      <point x="510" y="244" type="curve" smooth="yes"/>
    </contour>
    <contour>
      <point x="387" y="284" type="curve" smooth="yes"/>
      <point x="387" y="224" type="line" smooth="yes"/>
      <point x="387" y="82"/>
      <point x="350" y="25"/>
      <point x="281" y="25" type="curve" smooth="yes"/>
      <point x="213" y="25"/>
      <point x="175" y="82"/>
      <point x="175" y="224" type="curve" smooth="yes"/>
      <point x="175" y="284" type="line" smooth="yes"/>
      <point x="175" y="426"/>
      <point x="213" y="482"/>
      <point x="281" y="482" type="curve" smooth="yes"/>
      <point x="350" y="482"/>
      <point x="387" y="426"/>
    </contour>
  </outline>
</glyph>
<glyph name="p" format="1">
  <advance width="585"/>
  <unicode hex="0070"/>
  <outline>
    <contour>
      <point x="16" y="479" type="line"/>
      <point x="71" y="472" type="line" smooth="yes"/>
      <point x="92" y="469"/>
      <point x="93" y="468"/>
      <point x="93" y="423" type="curve"/>
      <point x="93" y="-129" type="line"/>
      <point x="93" y="-174"/>
      <point x="92" y="-175"/>
      <point x="71" y="-178" type="curve" smooth="yes"/>
      <point x="16" y="-185" type="line"/>
      <point x="16" y="-213" type="line"/>
      <point x="305" y="-213" type="line"/>
      <point x="305" y="-185" type="line"/>
      <point x="230" y="-178" type="line" smooth="yes"/>
      <point x="209" y="-176"/>
      <point x="208" y="-174"/>
      <point x="208" y="-129" type="curve"/>
      <point x="208" y="20" type="line"/>
      <point x="237" y="1"/>
      <point x="274" y="-10"/>
      <point x="314" y="-10" type="curve" smooth="yes"/>
      <point x="448" y="-10"/>
      <point x="529" y="89"/>
      <point x="529" y="244" type="curve" smooth="yes"/>
      <point x="529" y="264" type="line" smooth="yes"/>
      <point x="529" y="424"/>
      <point x="458" y="517"/>
      <point x="346" y="517" type="curve" smooth="yes"/>
      <point x="283" y="517"/>
      <point x="240" y="486"/>
      <point x="202" y="424" type="curve"/>
      <point x="202" y="507" type="line"/>
      <point x="16" y="507" type="line"/>
    </contour>
    <contour>
      <point x="320" y="473" type="curve" smooth="yes"/>
      <point x="373" y="473"/>
      <point x="406" y="418"/>
      <point x="406" y="294" type="curve" smooth="yes"/>
      <point x="406" y="214" type="line" smooth="yes"/>
      <point x="406" y="99"/>
      <point x="375" y="29"/>
      <point x="301" y="29" type="curve" smooth="yes"/>
      <point x="266" y="29"/>
      <point x="234" y="41"/>
      <point x="208" y="67" type="curve"/>
      <point x="208" y="369" type="line"/>
      <point x="251" y="453"/>
      <point x="287" y="473"/>
    </contour>
  </outline>
</glyph>
<glyph name="q" format="1">
  <advance width="577"/>
  <unicode hex="0071"/>
  <outline>
    <contour>
      <point x="569" y="-185" type="line"/>
      <point x="514" y="-178" type="line" smooth="yes"/>
      <point x="493" y="-175"/>
      <point x="492" y="-174"/>
      <point x="492" y="-129" type="curve"/>
      <point x="492" y="512" type="line"/>
      <point x="465" y="512" type="line"/>
      <point x="443" y="495"/>
      <point x="421" y="480"/>
      <point x="397" y="471" type="curve"/>
      <point x="365" y="501"/>
      <point x="321" y="517"/>
      <point x="271" y="517" type="curve" smooth="yes"/>
      <point x="137" y="517"/>
      <point x="56" y="418"/>
      <point x="56" y="263" type="curve" smooth="yes"/>
      <point x="56" y="243" type="line" smooth="yes"/>
      <point x="56" y="83"/>
      <point x="127" y="-10"/>
      <point x="239" y="-10" type="curve" smooth="yes"/>
      <point x="298" y="-10"/>
      <point x="341" y="18"/>
      <point x="377" y="74" type="curve"/>
      <point x="377" y="-129" type="line"/>
      <point x="377" y="-174"/>
      <point x="376" y="-176"/>
      <point x="355" y="-178" type="curve" smooth="yes"/>
      <point x="280" y="-185" type="line"/>
      <point x="280" y="-213" type="line"/>
      <point x="569" y="-213" type="line"/>
    </contour>
    <contour>
      <point x="179" y="213" type="curve" smooth="yes"/>
      <point x="179" y="293" type="line" smooth="yes"/>
      <point x="179" y="408"/>
      <point x="210" y="478"/>
      <point x="284" y="478" type="curve" smooth="yes"/>
      <point x="319" y="478"/>
      <point x="351" y="466"/>
      <point x="377" y="440" type="curve"/>
      <point x="377" y="138" type="line"/>
      <point x="334" y="54"/>
      <point x="298" y="34"/>
      <point x="265" y="34" type="curve" smooth="yes"/>
      <point x="212" y="34"/>
      <point x="179" y="89"/>
    </contour>
  </outline>
</glyph>
<glyph name="r" format="1">
  <advance width="462"/>
  <unicode hex="0072"/>
  <outline>
    <contour>
      <point x="23" y="479" type="line"/>
      <point x="78" y="472" type="line" smooth="yes"/>
      <point x="99" y="469"/>
      <point x="100" y="468"/>
      <point x="100" y="423" type="curve"/>
      <point x="100" y="84" type="line"/>
      <point x="100" y="39"/>
      <point x="99" y="38"/>
      <point x="78" y="35" type="curve" smooth="yes"/>
      <point x="23" y="28" type="line"/>
      <point x="23" y="0" type="line"/>
      <point x="312" y="0" type="line"/>
      <point x="312" y="28" type="line"/>
      <point x="237" y="35" type="line" smooth="yes"/>
      <point x="216" y="37"/>
      <point x="215" y="39"/>
      <point x="215" y="84" type="curve"/>
      <point x="215" y="381" type="line"/>
      <point x="244" y="432"/>
      <point x="272" y="447"/>
      <point x="301" y="447" type="curve" smooth="yes"/>
      <point x="329" y="447"/>
      <point x="354" y="431"/>
      <point x="373" y="377" type="curve"/>
      <point x="462" y="425" type="line"/>
      <point x="437" y="495"/>
      <point x="395" y="517"/>
      <point x="354" y="517" type="curve" smooth="yes"/>
      <point x="298" y="517"/>
      <point x="250" y="487"/>
      <point x="209" y="425" type="curve"/>
      <point x="209" y="507" type="line"/>
      <point x="23" y="507" type="line"/>
    </contour>
  </outline>
</glyph>
<glyph name="s" format="1">
  <advance width="480"/>
  <unicode hex="0073"/>
  <outline>
    <contour>
      <point x="251" y="189" type="line" smooth="yes"/>
      <point x="318" y="173"/>
      <point x="338" y="141"/>
      <point x="338" y="105" type="curve" smooth="yes"/>
      <point x="338" y="53"/>
      <point x="296" y="25"/>
      <point x="236" y="25" type="curve" smooth="yes"/>
      <point x="172" y="25"/>
      <point x="113" y="57"/>
      <point x="104" y="145" type="curve"/>
      <point x="39" y="119" type="line"/>
      <point x="69" y="14"/>
      <point x="167" y="-10"/>
      <point x="236" y="-10" type="curve" smooth="yes"/>
      <point x="366" y="-10"/>
      <point x="433" y="57"/>
      <point x="433" y="146" type="curve" smooth="yes"/>
      <point x="433" y="218"/>
      <point x="391" y="267"/>
      <point x="293" y="290" type="curve" smooth="yes"/>
      <point x="224" y="306" type="line" smooth="yes"/>
      <point x="172" y="318"/>
      <point x="145" y="356"/>
      <point x="145" y="403" type="curve" smooth="yes"/>
      <point x="145" y="454"/>
      <point x="179" y="482"/>
      <point x="226" y="482" type="curve" smooth="yes"/>
      <point x="292" y="482"/>
      <point x="324" y="430"/>
      <point x="305" y="340" type="curve"/>
      <point x="415" y="360" type="line"/>
      <point x="429" y="442"/>
      <point x="368" y="517"/>
      <point x="231" y="517" type="curve" smooth="yes"/>
      <point x="102" y="517"/>
      <point x="50" y="444"/>
      <point x="50" y="361" type="curve" smooth="yes"/>
      <point x="50" y="285"/>
      <point x="92" y="226"/>
      <point x="182" y="205" type="curve" smooth="yes"/>
    </contour>
  </outline>
</glyph>
<glyph name="t" format="1">
  <advance width="395"/>
  <unicode hex="0074"/>
  <outline>
    <contour>
      <point x="379" y="104" type="curve"/>
      <point x="319" y="119" type="line"/>
      <point x="313" y="48"/>
      <point x="294" y="26"/>
      <point x="260" y="26" type="curve" smooth="yes"/>
      <point x="227" y="26"/>
      <point x="203" y="54"/>
      <point x="203" y="139" type="curve" smooth="yes"/>
      <point x="203" y="472" type="line"/>
      <point x="363" y="472" type="line"/>
      <point x="363" y="507" type="line"/>
      <point x="203" y="507" type="line"/>
      <point x="203" y="646" type="line"/>
      <point x="88" y="623" type="line"/>
      <point x="88" y="507" type="line"/>
      <point x="11" y="507" type="line"/>
      <point x="11" y="479" type="line"/>
      <point x="66" y="472" type="line" smooth="yes"/>
      <point x="87" y="469"/>
      <point x="88" y="468"/>
      <point x="88" y="423" type="curve"/>
      <point x="88" y="159" type="line" smooth="yes"/>
      <point x="88" y="70"/>
      <point x="134" y="-10"/>
      <point x="241" y="-10" type="curve" smooth="yes"/>
      <point x="310" y="-10"/>
      <point x="361" y="22"/>
    </contour>
  </outline>
</glyph>
<glyph name="u" format="1">
  <advance width="606"/>
  <unicode hex="0075"/>
  <outline>
    <contour>
      <point x="590" y="28" type="line"/>
      <point x="535" y="35" type="line" smooth="yes"/>
      <point x="514" y="38"/>
      <point x="513" y="39"/>
      <point x="513" y="84" type="curve"/>
      <point x="513" y="507" type="line"/>
      <point x="301" y="507" type="line"/>
      <point x="301" y="479" type="line"/>
      <point x="376" y="472" type="line" smooth="yes"/>
      <point x="397" y="470"/>
      <point x="398" y="468"/>
      <point x="398" y="423" type="curve"/>
      <point x="398" y="143" type="line"/>
      <point x="366" y="58"/>
      <point x="311" y="39"/>
      <point x="279" y="39" type="curve" smooth="yes"/>
      <point x="229" y="39"/>
      <point x="203" y="79"/>
      <point x="203" y="171" type="curve" smooth="yes"/>
      <point x="203" y="507" type="line"/>
      <point x="11" y="507" type="line"/>
      <point x="11" y="479" type="line"/>
      <point x="66" y="472" type="line" smooth="yes"/>
      <point x="87" y="469"/>
      <point x="88" y="468"/>
      <point x="88" y="423" type="curve"/>
      <point x="88" y="170" type="line" smooth="yes"/>
      <point x="88" y="56"/>
      <point x="148" y="-10"/>
      <point x="243" y="-10" type="curve" smooth="yes"/>
      <point x="303" y="-10"/>
      <point x="367" y="20"/>
      <point x="404" y="88" type="curve"/>
      <point x="404" y="0" type="line"/>
      <point x="590" y="0" type="line"/>
    </contour>
  </outline>
</glyph>
<glyph name="v" format="1">
  <advance width="550"/>
  <unicode hex="0076"/>
  <outline>
    <contour>
      <point x="463" y="423" type="line" smooth="yes"/>
      <point x="478" y="469"/>
      <point x="479" y="469"/>
      <point x="500" y="472" type="curve" smooth="yes"/>
      <point x="555" y="479" type="line"/>
      <point x="555" y="507" type="line"/>
      <point x="364" y="507" type="line"/>
      <point x="364" y="479" type="line"/>
      <point x="419" y="472" type="line" smooth="yes"/>
      <point x="440" y="469"/>
      <point x="440" y="469"/>
      <point x="425" y="423" type="curve" smooth="yes"/>
      <point x="314" y="91" type="line"/>
      <point x="204" y="423" type="line" smooth="yes"/>
      <point x="189" y="469"/>
      <point x="190" y="469"/>
      <point x="210" y="472" type="curve" smooth="yes"/>
      <point x="265" y="479" type="line"/>
      <point x="265" y="507" type="line"/>
      <point x="-5" y="507" type="line"/>
      <point x="-5" y="479" type="line"/>
      <point x="50" y="472" type="line" smooth="yes"/>
      <point x="71" y="469"/>
      <point x="73" y="468"/>
      <point x="88" y="423" type="curve" smooth="yes"/>
      <point x="230" y="0" type="line"/>
      <point x="321" y="0" type="line"/>
    </contour>
  </outline>
</glyph>
<glyph name="w" format="1">
  <advance width="798"/>
  <unicode hex="0077"/>
  <outline>
    <contour>
      <point x="715" y="423" type="line" smooth="yes"/>
      <point x="727" y="468"/>
      <point x="728" y="469"/>
      <point x="748" y="472" type="curve" smooth="yes"/>
      <point x="803" y="479" type="line"/>
      <point x="803" y="507" type="line"/>
      <point x="610" y="507" type="line"/>
      <point x="610" y="479" type="line"/>
      <point x="665" y="472" type="line" smooth="yes"/>
      <point x="686" y="469"/>
      <point x="688" y="468"/>
      <point x="676" y="423" type="curve" smooth="yes"/>
      <point x="595" y="105" type="line"/>
      <point x="476" y="507" type="line"/>
      <point x="388" y="507" type="line"/>
      <point x="273" y="122" type="line"/>
      <point x="195" y="423" type="line" smooth="yes"/>
      <point x="183" y="468"/>
      <point x="185" y="469"/>
      <point x="206" y="472" type="curve" smooth="yes"/>
      <point x="261" y="479" type="line"/>
      <point x="261" y="507" type="line"/>
      <point x="-5" y="507" type="line"/>
      <point x="-5" y="479" type="line"/>
      <point x="50" y="472" type="line" smooth="yes"/>
      <point x="70" y="469"/>
      <point x="71" y="468"/>
      <point x="83" y="423" type="curve" smooth="yes"/>
      <point x="191" y="0" type="line"/>
      <point x="274" y="0" type="line"/>
      <point x="395" y="402" type="line"/>
      <point x="515" y="0" type="line"/>
      <point x="606" y="0" type="line"/>
    </contour>
  </outline>
</glyph>
<glyph name="x" format="1">
  <advance width="543"/>
  <unicode hex="0078"/>
  <outline>
    <contour>
      <point x="205" y="28" type="line"/>
      <point x="150" y="35" type="line" smooth="yes"/>
      <point x="129" y="38"/>
      <point x="127" y="39"/>
      <point x="158" y="84" type="curve" smooth="yes"/>
      <point x="240" y="205" type="line"/>
      <point x="310" y="84" type="line" smooth="yes"/>
      <point x="337" y="38"/>
      <point x="337" y="38"/>
      <point x="316" y="35" type="curve" smooth="yes"/>
      <point x="261" y="28" type="line"/>
      <point x="261" y="0" type="line"/>
      <point x="538" y="0" type="line"/>
      <point x="538" y="28" type="line"/>
      <point x="483" y="35" type="line" smooth="yes"/>
      <point x="463" y="38"/>
      <point x="461" y="38"/>
      <point x="434" y="84" type="curve" smooth="yes"/>
      <point x="324" y="273" type="line"/>
      <point x="426" y="423" type="line" smooth="yes"/>
      <point x="457" y="468"/>
      <point x="458" y="469"/>
      <point x="478" y="472" type="curve" smooth="yes"/>
      <point x="533" y="479" type="line"/>
      <point x="533" y="507" type="line"/>
      <point x="333" y="507" type="line"/>
      <point x="333" y="479" type="line"/>
      <point x="388" y="472" type="line" smooth="yes"/>
      <point x="409" y="469"/>
      <point x="411" y="468"/>
      <point x="380" y="423" type="curve" smooth="yes"/>
      <point x="303" y="309" type="line"/>
      <point x="236" y="423" type="line" smooth="yes"/>
      <point x="209" y="469"/>
      <point x="209" y="469"/>
      <point x="230" y="472" type="curve" smooth="yes"/>
      <point x="285" y="479" type="line"/>
      <point x="285" y="507" type="line"/>
      <point x="8" y="507" type="line"/>
      <point x="8" y="479" type="line"/>
      <point x="63" y="472" type="line" smooth="yes"/>
      <point x="83" y="469"/>
      <point x="85" y="469"/>
      <point x="112" y="423" type="curve" smooth="yes"/>
      <point x="219" y="240" type="line"/>
      <point x="112" y="84" type="line" smooth="yes"/>
      <point x="81" y="39"/>
      <point x="80" y="38"/>
      <point x="60" y="35" type="curve" smooth="yes"/>
      <point x="5" y="28" type="line"/>
      <point x="5" y="0" type="line"/>
      <point x="205" y="0" type="line"/>
    </contour>
  </outline>
</glyph>
<glyph name="y" format="1">
  <advance width="550"/>
  <unicode hex="0079"/>
  <outline>
    <contour>
      <point x="303" y="-50" type="curve"/>
      <point x="464" y="427" type="line" smooth="yes"/>
      <point x="478" y="468"/>
      <point x="480" y="469"/>
      <point x="500" y="472" type="curve" smooth="yes"/>
      <point x="555" y="479" type="line"/>
      <point x="555" y="507" type="line"/>
      <point x="364" y="507" type="line"/>
      <point x="364" y="479" type="line"/>
      <point x="419" y="472" type="line" smooth="yes"/>
      <point x="439" y="469"/>
      <point x="440" y="469"/>
      <point x="426" y="427" type="curve" smooth="yes"/>
      <point x="313" y="93" type="line"/>
      <point x="204" y="423" type="line" smooth="yes"/>
      <point x="189" y="469"/>
      <point x="194" y="470"/>
      <point x="210" y="472" type="curve" smooth="yes"/>
      <point x="265" y="479" type="line"/>
      <point x="265" y="507" type="line"/>
      <point x="-5" y="507" type="line"/>
      <point x="-5" y="479" type="line"/>
      <point x="50" y="472" type="line" smooth="yes"/>
      <point x="71" y="469"/>
      <point x="73" y="468"/>
      <point x="88" y="423" type="curve" smooth="yes"/>
      <point x="230" y="0" type="line"/>
      <point x="282" y="0" type="line"/>
      <point x="272" y="-30" type="line" smooth="yes"/>
      <point x="251" y="-88"/>
      <point x="207" y="-113"/>
      <point x="85" y="-113" type="curve"/>
      <point x="85" y="-223" type="line"/>
      <point x="205" y="-223"/>
      <point x="257" y="-177"/>
    </contour>
  </outline>
</glyph>
<glyph name="z" format="1">
  <advance width="465"/>
  <unicode hex="007A"/>
  <outline>
    <contour>
      <point x="397" y="152" type="line"/>
      <point x="370" y="61" type="line" smooth="yes"/>
      <point x="363" y="37"/>
      <point x="363" y="35"/>
      <point x="316" y="35" type="curve"/>
      <point x="164" y="35" type="line"/>
      <point x="415" y="482" type="line"/>
      <point x="415" y="507" type="line"/>
      <point x="50" y="507" type="line"/>
      <point x="50" y="355" type="line"/>
      <point x="78" y="355" type="line"/>
      <point x="105" y="446" type="line" smooth="yes"/>
      <point x="112" y="470"/>
      <point x="112" y="472"/>
      <point x="159" y="472" type="curve"/>
      <point x="289" y="472" type="line"/>
      <point x="38" y="25" type="line"/>
      <point x="38" y="0" type="line"/>
      <point x="425" y="0" type="line"/>
      <point x="425" y="152" type="line"/>
    </contour>
  </outline>
</glyph>
<glyph name="braceleft" format="1">
  <advance width="392"/>
  <unicode hex="007B"/>
  <outline>
    <contour>
      <point x="382" y="-109" type="line"/>
      <point x="297" y="-109" type="line" smooth="yes"/>
      <point x="234" y="-109"/>
      <point x="217" y="-58"/>
      <point x="240" y="22" type="curve" smooth="yes"/>
      <point x="270" y="128" type="line" smooth="yes"/>
      <point x="296" y="220"/>
      <point x="255" y="278"/>
      <point x="180" y="298" type="curve"/>
      <point x="255" y="318"/>
      <point x="296" y="376"/>
      <point x="270" y="468" type="curve" smooth="yes"/>
      <point x="240" y="574" type="line" smooth="yes"/>
      <point x="217" y="654"/>
      <point x="234" y="705"/>
      <point x="297" y="705" type="curve" smooth="yes"/>
      <point x="382" y="705" type="line"/>
      <point x="382" y="740" type="line"/>
      <point x="297" y="740" type="line" smooth="yes"/>
      <point x="174" y="740"/>
      <point x="93" y="677"/>
      <point x="127" y="555" type="curve" smooth="yes"/>
      <point x="157" y="449" type="line" smooth="yes"/>
      <point x="178" y="374"/>
      <point x="154" y="316"/>
      <point x="115" y="316" type="curve" smooth="yes"/>
      <point x="32" y="316" type="line"/>
      <point x="32" y="281" type="line"/>
      <point x="115" y="281" type="line" smooth="yes"/>
      <point x="154" y="281"/>
      <point x="178" y="222"/>
      <point x="157" y="147" type="curve" smooth="yes"/>
      <point x="127" y="41" type="line" smooth="yes"/>
      <point x="93" y="-81"/>
      <point x="174" y="-144"/>
      <point x="297" y="-144" type="curve" smooth="yes"/>
      <point x="382" y="-144" type="line"/>
    </contour>
  </outline>
</glyph>
<glyph name="bar" format="1">
  <advance width="216"/>
  <unicode hex="007C"/>
  <outline>
    <contour>
      <point x="88" y="740" type="line"/>
      <point x="88" y="-213" type="line"/>
      <point x="128" y="-213" type="line"/>
      <point x="128" y="740" type="line"/>
    </contour>
  </outline>
</glyph>
<glyph name="braceright" format="1">
  <advance width="392"/>
  <unicode hex="007D"/>
  <outline>
    <contour>
      <point x="265" y="41" type="curve" smooth="yes"/>
      <point x="235" y="147" type="line" smooth="yes"/>
      <point x="214" y="222"/>
      <point x="238" y="280"/>
      <point x="277" y="280" type="curve" smooth="yes"/>
      <point x="360" y="280" type="line"/>
      <point x="360" y="315" type="line"/>
      <point x="277" y="315" type="line" smooth="yes"/>
      <point x="238" y="315"/>
      <point x="214" y="374"/>
      <point x="235" y="449" type="curve" smooth="yes"/>
      <point x="265" y="555" type="line" smooth="yes"/>
      <point x="299" y="677"/>
      <point x="218" y="740"/>
      <point x="95" y="740" type="curve" smooth="yes"/>
      <point x="10" y="740" type="line"/>
      <point x="10" y="705" type="line"/>
      <point x="95" y="705" type="line" smooth="yes"/>
      <point x="158" y="705"/>
      <point x="175" y="654"/>
      <point x="152" y="574" type="curve" smooth="yes"/>
      <point x="122" y="468" type="line" smooth="yes"/>
      <point x="96" y="376"/>
      <point x="137" y="318"/>
      <point x="212" y="298" type="curve"/>
      <point x="137" y="278"/>
      <point x="96" y="220"/>
      <point x="122" y="128" type="curve" smooth="yes"/>
      <point x="152" y="22" type="line" smooth="yes"/>
      <point x="175" y="-58"/>
      <point x="158" y="-109"/>
      <point x="95" y="-109" type="curve" smooth="yes"/>
      <point x="10" y="-109" type="line"/>
      <point x="10" y="-144" type="line"/>
      <point x="95" y="-144" type="line" smooth="yes"/>
      <point x="218" y="-144"/>
      <point x="299" y="-81"/>
    </contour>
  </outline>
</glyph>
<glyph name="asciitilde" format="1">
  <advance width="588"/>
  <unicode hex="007E"/>
  <outline>
    <contour>
      <point x="387" y="257" type="curve" smooth="yes"/>
      <point x="433" y="257"/>
      <point x="467" y="284"/>
      <point x="501" y="377" type="curve"/>
      <point x="469" y="392" type="line"/>
      <point x="443" y="315"/>
      <point x="423" y="294"/>
      <point x="387" y="294" type="curve" smooth="yes"/>
      <point x="313" y="294"/>
      <point x="294" y="410"/>
      <point x="201" y="410" type="curve" smooth="yes"/>
      <point x="155" y="410"/>
      <point x="121" y="383"/>
      <point x="87" y="290" type="curve"/>
      <point x="119" y="275" type="line"/>
      <point x="145" y="352"/>
      <point x="165" y="373"/>
      <point x="201" y="373" type="curve" smooth="yes"/>
      <point x="274" y="373"/>
      <point x="293" y="257"/>
    </contour>
  </outline>
</glyph>
<glyph name="exclamdown" format="1">
  <advance width="255"/>
  <unicode hex="00A1"/>
  <outline>
    <contour>
      <point x="128" y="517" type="curve" smooth="yes"/>
      <point x="87" y="517"/>
      <point x="57" y="489"/>
      <point x="57" y="446" type="curve" smooth="yes"/>
      <point x="57" y="404"/>
      <point x="87" y="376"/>
      <point x="128" y="376" type="curve" smooth="yes"/>
      <point x="170" y="376"/>
      <point x="198" y="404"/>
      <point x="198" y="446" type="curve" smooth="yes"/>
      <point x="198" y="489"/>
      <point x="170" y="517"/>
    </contour>
    <contour>
      <point x="110" y="305" type="line"/>
      <point x="110" y="78"/>
      <point x="70" y="19"/>
      <point x="70" y="-173" type="curve"/>
      <point x="185" y="-173" type="line"/>
      <point x="185" y="19"/>
      <point x="145" y="78"/>
      <point x="145" y="305" type="curve"/>
    </contour>
  </outline>
</glyph>
<glyph name="cent" format="1">
  <advance width="503"/>
  <unicode hex="00A2"/>
  <outline>
    <contour>
      <point x="461" y="119" type="curve"/>
      <point x="397" y="137" type="line"/>
      <point x="391" y="55"/>
      <point x="351" y="25"/>
      <point x="291" y="25" type="curve" smooth="yes"/>
      <point x="287" y="25" type="line"/>
      <point x="287" y="481" type="line"/>
      <point x="339" y="470"/>
      <point x="361" y="408"/>
      <point x="348" y="306" type="curve"/>
      <point x="458" y="322" type="line"/>
      <point x="475" y="419"/>
      <point x="415" y="510"/>
      <point x="287" y="517" type="curve"/>
      <point x="287" y="632" type="line"/>
      <point x="251" y="632" type="line"/>
      <point x="251" y="516" type="line"/>
      <point x="123" y="507"/>
      <point x="53" y="410"/>
      <point x="53" y="264" type="curve" smooth="yes"/>
      <point x="53" y="244" type="line" smooth="yes"/>
      <point x="53" y="101"/>
      <point x="119" y="5"/>
      <point x="251" y="-8" type="curve"/>
      <point x="251" y="-125" type="line"/>
      <point x="287" y="-125" type="line"/>
      <point x="287" y="-10" type="line"/>
      <point x="369" y="-10"/>
      <point x="437" y="25"/>
    </contour>
    <contour>
      <point x="176" y="224" type="curve" smooth="yes"/>
      <point x="176" y="284" type="line" smooth="yes"/>
      <point x="176" y="410"/>
      <point x="201" y="469"/>
      <point x="251" y="480" type="curve"/>
      <point x="251" y="31" type="line"/>
      <point x="198" y="49"/>
      <point x="176" y="108"/>
    </contour>
  </outline>
</glyph>
<glyph name="sterling" format="1">
  <advance width="531.1402144739207"/>
  <unicode hex="00A3"/>
  <outline>
    <contour>
      <point x="447" y="221" type="line"/>
      <point x="430" y="130" type="line" smooth="yes"/>
      <point x="425" y="106"/>
      <point x="423" y="104"/>
      <point x="376" y="104" type="curve"/>
      <point x="150" y="104" type="line"/>
      <point x="217" y="164"/>
      <point x="227" y="220"/>
      <point x="227" y="264" type="curve" smooth="yes"/>
      <point x="227" y="271"/>
      <point x="227" y="277"/>
      <point x="226" y="284" type="curve"/>
      <point x="387" y="284" type="line"/>
      <point x="387" y="319" type="line"/>
      <point x="221" y="319" type="line"/>
      <point x="211" y="377"/>
      <point x="188" y="433"/>
      <point x="188" y="503" type="curve" smooth="yes"/>
      <point x="188" y="604"/>
      <point x="218" y="655"/>
      <point x="276" y="655" type="curve" smooth="yes"/>
      <point x="344" y="655"/>
      <point x="373" y="587"/>
      <point x="360" y="467" type="curve"/>
      <point x="480" y="483" type="line"/>
      <point x="499" y="590"/>
      <point x="432" y="690"/>
      <point x="273" y="690" type="curve" smooth="yes"/>
      <point x="119" y="690"/>
      <point x="58" y="596"/>
      <point x="58" y="493" type="curve" smooth="yes"/>
      <point x="58" y="413"/>
      <point x="94" y="366"/>
      <point x="123" y="319" type="curve"/>
      <point x="48" y="319" type="line"/>
      <point x="48" y="284" type="line"/>
      <point x="143" y="284" type="line"/>
      <point x="153" y="263"/>
      <point x="159" y="242"/>
      <point x="159" y="216" type="curve" smooth="yes"/>
      <point x="159" y="174"/>
      <point x="143" y="125"/>
      <point x="56" y="71" type="curve"/>
      <point x="56" y="0" type="line"/>
      <point x="475" y="0" type="line"/>
      <point x="475" y="221" type="line"/>
    </contour>
  </outline>
</glyph>
<glyph name="currency" format="1">
  <advance width="564"/>
  <unicode hex="00A4"/>
  <outline>
    <contour>
      <point x="528" y="69" type="line"/>
      <point x="429" y="172" type="line"/>
      <point x="457" y="206"/>
      <point x="474" y="251"/>
      <point x="474" y="300" type="curve" smooth="yes"/>
      <point x="474" y="350"/>
      <point x="457" y="394"/>
      <point x="429" y="428" type="curve"/>
      <point x="528" y="531" type="line"/>
      <point x="503" y="557" type="line"/>
      <point x="403" y="454" type="line"/>
      <point x="370" y="481"/>
      <point x="328" y="497"/>
      <point x="282" y="497" type="curve" smooth="yes"/>
      <point x="236" y="497"/>
      <point x="194" y="481"/>
      <point x="161" y="454" type="curve"/>
      <point x="61" y="557" type="line"/>
      <point x="36" y="531" type="line"/>
      <point x="135" y="428" type="line"/>
      <point x="107" y="394"/>
      <point x="90" y="350"/>
      <point x="90" y="300" type="curve" smooth="yes"/>
      <point x="90" y="251"/>
      <point x="107" y="206"/>
      <point x="135" y="172" type="curve"/>
      <point x="36" y="69" type="line"/>
      <point x="61" y="43" type="line"/>
      <point x="161" y="146" type="line"/>
      <point x="194" y="119"/>
      <point x="236" y="103"/>
      <point x="282" y="103" type="curve" smooth="yes"/>
      <point x="328" y="103"/>
      <point x="370" y="119"/>
      <point x="403" y="146" type="curve"/>
      <point x="503" y="43" type="line"/>
    </contour>
    <contour>
      <point x="282" y="138" type="curve" smooth="yes"/>
      <point x="195" y="138"/>
      <point x="127" y="209"/>
      <point x="127" y="300" type="curve" smooth="yes"/>
      <point x="127" y="391"/>
      <point x="195" y="462"/>
      <point x="282" y="462" type="curve" smooth="yes"/>
      <point x="369" y="462"/>
      <point x="437" y="391"/>
      <point x="437" y="300" type="curve" smooth="yes"/>
      <point x="437" y="209"/>
      <point x="369" y="138"/>
    </contour>
  </outline>
</glyph>
<glyph name="yen" format="1">
  <advance width="629"/>
  <unicode hex="00A5"/>
  <outline>
    <contour>
      <point x="453" y="28" type="line"/>
      <point x="398" y="35" type="line" smooth="yes"/>
      <point x="377" y="38"/>
      <point x="376" y="39"/>
      <point x="376" y="84" type="curve"/>
      <point x="376" y="214" type="line"/>
      <point x="542" y="214" type="line"/>
      <point x="542" y="249" type="line"/>
      <point x="376" y="249" type="line"/>
      <point x="376" y="293" type="line"/>
      <point x="408" y="354" type="line"/>
      <point x="542" y="354" type="line"/>
      <point x="542" y="389" type="line"/>
      <point x="426" y="389" type="line"/>
      <point x="533" y="596" type="line" smooth="yes"/>
      <point x="556" y="641"/>
      <point x="557" y="642"/>
      <point x="577" y="645" type="curve" smooth="yes"/>
      <point x="632" y="652" type="line"/>
      <point x="632" y="680" type="line"/>
      <point x="437" y="680" type="line"/>
      <point x="437" y="652" type="line"/>
      <point x="492" y="645" type="line" smooth="yes"/>
      <point x="512" y="642"/>
      <point x="514" y="640"/>
      <point x="491" y="596" type="curve" smooth="yes"/>
      <point x="357" y="338" type="line"/>
      <point x="228" y="596" type="line" smooth="yes"/>
      <point x="206" y="641"/>
      <point x="207" y="642"/>
      <point x="227" y="645" type="curve" smooth="yes"/>
      <point x="282" y="652" type="line"/>
      <point x="282" y="680" type="line"/>
      <point x="-3" y="680" type="line"/>
      <point x="-3" y="652" type="line"/>
      <point x="52" y="645" type="line" smooth="yes"/>
      <point x="72" y="642"/>
      <point x="73" y="642"/>
      <point x="97" y="596" type="curve" smooth="yes"/>
      <point x="205" y="389" type="line"/>
      <point x="90" y="389" type="line"/>
      <point x="90" y="354" type="line"/>
      <point x="223" y="354" type="line"/>
      <point x="256" y="291" type="line"/>
      <point x="256" y="249" type="line"/>
      <point x="90" y="249" type="line"/>
      <point x="90" y="214" type="line"/>
      <point x="256" y="214" type="line"/>
      <point x="256" y="84" type="line"/>
      <point x="256" y="39"/>
      <point x="255" y="38"/>
      <point x="234" y="35" type="curve" smooth="yes"/>
      <point x="179" y="28" type="line"/>
      <point x="179" y="0" type="line"/>
      <point x="453" y="0" type="line"/>
    </contour>
  </outline>
</glyph>
<glyph name="brokenbar" format="1">
  <advance width="206"/>
  <unicode hex="00A6"/>
  <outline>
    <contour>
      <point x="83" y="740" type="line"/>
      <point x="83" y="357" type="line"/>
      <point x="123" y="357" type="line"/>
      <point x="123" y="740" type="line"/>
    </contour>
    <contour>
      <point x="83" y="170" type="line"/>
      <point x="83" y="-213" type="line"/>
      <point x="123" y="-213" type="line"/>
      <point x="123" y="170" type="line"/>
    </contour>
  </outline>
</glyph>
<glyph name="section" format="1">
  <advance width="550"/>
  <unicode hex="00A7"/>
  <outline>
    <contour>
      <point x="468" y="-44" type="curve" smooth="yes"/>
      <point x="468" y="24"/>
      <point x="442" y="66"/>
      <point x="391" y="95" type="curve"/>
      <point x="457" y="126"/>
      <point x="501" y="183"/>
      <point x="501" y="257" type="curve" smooth="yes"/>
      <point x="501" y="337"/>
      <point x="452" y="394"/>
      <point x="357" y="424" type="curve" smooth="yes"/>
      <point x="268" y="452" type="line" smooth="yes"/>
      <point x="198" y="474"/>
      <point x="174" y="512"/>
      <point x="174" y="566" type="curve" smooth="yes"/>
      <point x="174" y="624"/>
      <point x="207" y="655"/>
      <point x="260" y="655" type="curve" smooth="yes"/>
      <point x="332" y="655"/>
      <point x="357" y="598"/>
      <point x="339" y="494" type="curve"/>
      <point x="454" y="515" type="line"/>
      <point x="470" y="606"/>
      <point x="412" y="690"/>
      <point x="271" y="690" type="curve" smooth="yes"/>
      <point x="141" y="690"/>
      <point x="81" y="609"/>
      <point x="81" y="520" type="curve" smooth="yes"/>
      <point x="81" y="457"/>
      <point x="107" y="403"/>
      <point x="157" y="370" type="curve"/>
      <point x="94" y="338"/>
      <point x="52" y="280"/>
      <point x="52" y="214" type="curve" smooth="yes"/>
      <point x="52" y="141"/>
      <point x="102" y="70"/>
      <point x="187" y="42" type="curve" smooth="yes"/>
      <point x="272" y="14" type="line" smooth="yes"/>
      <point x="348" y="-11"/>
      <point x="375" y="-39"/>
      <point x="375" y="-92" type="curve" smooth="yes"/>
      <point x="375" y="-156"/>
      <point x="329" y="-188"/>
      <point x="258" y="-188" type="curve" smooth="yes"/>
      <point x="183" y="-188"/>
      <point x="121" y="-153"/>
      <point x="111" y="-25" type="curve"/>
      <point x="44" y="-49" type="line"/>
      <point x="61" y="-179"/>
      <point x="154" y="-223"/>
      <point x="259" y="-223" type="curve" smooth="yes"/>
      <point x="402" y="-223"/>
      <point x="468" y="-147"/>
    </contour>
    <contour>
      <point x="334" y="120" type="curve" smooth="yes"/>
      <point x="249" y="148" type="line" smooth="yes"/>
      <point x="174" y="173"/>
      <point x="145" y="213"/>
      <point x="145" y="264" type="curve" smooth="yes"/>
      <point x="145" y="305"/>
      <point x="164" y="334"/>
      <point x="196" y="350" type="curve"/>
      <point x="199" y="348"/>
      <point x="203" y="347"/>
      <point x="206" y="346" type="curve" smooth="yes"/>
      <point x="295" y="318" type="line" smooth="yes"/>
      <point x="381" y="291"/>
      <point x="408" y="257"/>
      <point x="408" y="206" type="curve" smooth="yes"/>
      <point x="408" y="160"/>
      <point x="384" y="131"/>
      <point x="344" y="116" type="curve"/>
      <point x="341" y="118"/>
      <point x="337" y="119"/>
    </contour>
  </outline>
</glyph>
<glyph name="dieresis" format="1">
  <advance width="500"/>
  <unicode hex="00A8"/>
  <outline>
    <contour>
      <point x="145" y="600" type="curve" smooth="yes"/>
      <point x="181" y="600"/>
      <point x="208" y="625"/>
      <point x="208" y="663" type="curve" smooth="yes"/>
      <point x="208" y="700"/>
      <point x="181" y="725"/>
      <point x="145" y="725" type="curve" smooth="yes"/>
      <point x="108" y="725"/>
      <point x="83" y="700"/>
      <point x="83" y="663" type="curve" smooth="yes"/>
      <point x="83" y="625"/>
      <point x="108" y="600"/>
    </contour>
    <contour>
      <point x="355" y="600" type="curve" smooth="yes"/>
      <point x="391" y="600"/>
      <point x="418" y="625"/>
      <point x="418" y="663" type="curve" smooth="yes"/>
      <point x="418" y="700"/>
      <point x="391" y="725"/>
      <point x="355" y="725" type="curve" smooth="yes"/>
      <point x="318" y="725"/>
      <point x="293" y="700"/>
      <point x="293" y="663" type="curve" smooth="yes"/>
      <point x="293" y="625"/>
      <point x="318" y="600"/>
    </contour>
  </outline>
</glyph>
<glyph name="copyright" format="1">
  <advance width="844"/>
  <unicode hex="00A9"/>
  <outline>
    <contour>
      <point x="422" y="-37" type="curve" smooth="yes"/>
      <point x="631" y="-37"/>
      <point x="794" y="128"/>
      <point x="794" y="340" type="curve" smooth="yes"/>
      <point x="794" y="553"/>
      <point x="631" y="717"/>
      <point x="422" y="717" type="curve" smooth="yes"/>
      <point x="212" y="717"/>
      <point x="50" y="553"/>
      <point x="50" y="340" type="curve" smooth="yes"/>
      <point x="50" y="128"/>
      <point x="212" y="-37"/>
    </contour>
    <contour>
      <point x="422" y="-2" type="curve" smooth="yes"/>
      <point x="233" y="-2"/>
      <point x="87" y="147"/>
      <point x="87" y="340" type="curve" smooth="yes"/>
      <point x="87" y="533"/>
      <point x="233" y="682"/>
      <point x="422" y="682" type="curve" smooth="yes"/>
      <point x="611" y="682"/>
      <point x="757" y="533"/>
      <point x="757" y="340" type="curve" smooth="yes"/>
      <point x="757" y="147"/>
      <point x="611" y="-2"/>
    </contour>
    <contour>
      <point x="424" y="539" type="curve" smooth="yes"/>
      <point x="495" y="539"/>
      <point x="531" y="486"/>
      <point x="517" y="389" type="curve"/>
      <point x="594" y="398" type="line"/>
      <point x="610" y="497"/>
      <point x="545" y="572"/>
      <point x="424" y="572" type="curve" smooth="yes"/>
      <point x="296" y="572"/>
      <point x="227" y="485"/>
      <point x="227" y="351" type="curve" smooth="yes"/>
      <point x="227" y="330" type="line" smooth="yes"/>
      <point x="227" y="195"/>
      <point x="294" y="108"/>
      <point x="428" y="108" type="curve" smooth="yes"/>
      <point x="505" y="108"/>
      <point x="578" y="138"/>
      <point x="601" y="224" type="curve"/>
      <point x="543" y="237" type="line"/>
      <point x="527" y="166"/>
      <point x="492" y="141"/>
      <point x="433" y="141" type="curve" smooth="yes"/>
      <point x="350" y="141"/>
      <point x="315" y="190"/>
      <point x="315" y="310" type="curve" smooth="yes"/>
      <point x="315" y="371" type="line" smooth="yes"/>
      <point x="315" y="491"/>
      <point x="355" y="539"/>
    </contour>
  </outline>
</glyph>
<glyph name="ordfeminine" format="1">
  <advance width="374"/>
  <unicode hex="00AA"/>
  <outline>
    <contour>
      <point x="309" y="339" type="curve" smooth="yes"/>
      <point x="333" y="339"/>
      <point x="350" y="347"/>
      <point x="363" y="359" type="curve"/>
      <point x="351" y="378" type="line"/>
      <point x="340" y="369"/>
      <point x="330" y="366"/>
      <point x="322" y="366" type="curve" smooth="yes"/>
      <point x="310" y="366"/>
      <point x="298" y="369"/>
      <point x="298" y="416" type="curve" smooth="yes"/>
      <point x="298" y="568" type="line" smooth="yes"/>
      <point x="298" y="630"/>
      <point x="272" y="685"/>
      <point x="176" y="685" type="curve" smooth="yes"/>
      <point x="96" y="685"/>
      <point x="55" y="638"/>
      <point x="61" y="574" type="curve"/>
      <point x="120" y="567" type="line"/>
      <point x="111" y="643"/>
      <point x="139" y="658"/>
      <point x="175" y="658" type="curve" smooth="yes"/>
      <point x="213" y="658"/>
      <point x="237" y="640"/>
      <point x="237" y="568" type="curve" smooth="yes"/>
      <point x="237" y="513" type="line"/>
      <point x="168" y="513" type="line" smooth="yes"/>
      <point x="78" y="513"/>
      <point x="45" y="481"/>
      <point x="45" y="426" type="curve" smooth="yes"/>
      <point x="45" y="377"/>
      <point x="75" y="335"/>
      <point x="141" y="335" type="curve" smooth="yes"/>
      <point x="175" y="335"/>
      <point x="210" y="348"/>
      <point x="241" y="379" type="curve"/>
      <point x="251" y="353"/>
      <point x="275" y="339"/>
    </contour>
    <contour>
      <point x="156" y="366" type="curve" smooth="yes"/>
      <point x="123" y="366"/>
      <point x="108" y="389"/>
      <point x="108" y="430" type="curve" smooth="yes"/>
      <point x="108" y="470"/>
      <point x="127" y="486"/>
      <point x="173" y="486" type="curve" smooth="yes"/>
      <point x="237" y="486" type="line"/>
      <point x="237" y="409" type="line"/>
      <point x="204" y="374"/>
      <point x="177" y="366"/>
    </contour>
  </outline>
</glyph>
<glyph name="guillemotleft" format="1">
  <advance width="651"/>
  <unicode hex="00AB"/>
  <outline>
    <contour>
      <point x="596" y="30" type="line"/>
      <point x="430" y="244" type="line"/>
      <point x="596" y="458" type="line"/>
      <point x="575" y="478" type="line"/>
      <point x="300" y="256" type="line"/>
      <point x="300" y="232" type="line"/>
      <point x="575" y="10" type="line"/>
    </contour>
    <contour>
      <point x="346" y="30" type="line"/>
      <point x="180" y="244" type="line"/>
      <point x="346" y="458" type="line"/>
      <point x="325" y="478" type="line"/>
      <point x="50" y="256" type="line"/>
      <point x="50" y="232" type="line"/>
      <point x="325" y="10" type="line"/>
    </contour>
  </outline>
</glyph>
<glyph name="logicalnot" format="1">
  <advance width="588"/>
  <unicode hex="00AC"/>
  <outline>
    <contour>
      <point x="87" y="428" type="line"/>
      <point x="464" y="428" type="line"/>
      <point x="464" y="236" type="line"/>
      <point x="501" y="236" type="line"/>
      <point x="501" y="463" type="line"/>
      <point x="87" y="463" type="line"/>
    </contour>
  </outline>
</glyph>
<glyph name="registered" format="1">
  <advance width="536"/>
  <unicode hex="00AE"/>
  <outline>
    <contour>
      <point x="268" y="241" type="curve" smooth="yes"/>
      <point x="399" y="241"/>
      <point x="502" y="346"/>
      <point x="502" y="479" type="curve" smooth="yes"/>
      <point x="502" y="613"/>
      <point x="399" y="717"/>
      <point x="268" y="717" type="curve" smooth="yes"/>
      <point x="136" y="717"/>
      <point x="34" y="613"/>
      <point x="34" y="479" type="curve" smooth="yes"/>
      <point x="34" y="346"/>
      <point x="136" y="241"/>
    </contour>
    <contour>
      <point x="268" y="273" type="curve" smooth="yes"/>
      <point x="155" y="273"/>
      <point x="67" y="363"/>
      <point x="67" y="479" type="curve" smooth="yes"/>
      <point x="67" y="595"/>
      <point x="155" y="686"/>
      <point x="268" y="686" type="curve" smooth="yes"/>
      <point x="381" y="686"/>
      <point x="469" y="595"/>
      <point x="469" y="479" type="curve" smooth="yes"/>
      <point x="469" y="363"/>
      <point x="381" y="273"/>
    </contour>
    <contour>
      <point x="154" y="589" type="line"/>
      <point x="175" y="587" type="line" smooth="yes"/>
      <point x="182" y="586"/>
      <point x="183" y="586"/>
      <point x="183" y="569" type="curve"/>
      <point x="183" y="399" type="line"/>
      <point x="183" y="381"/>
      <point x="182" y="382"/>
      <point x="175" y="381" type="curve" smooth="yes"/>
      <point x="154" y="379" type="line"/>
      <point x="154" y="356" type="line"/>
      <point x="267" y="356" type="line"/>
      <point x="267" y="379" type="line"/>
      <point x="246" y="381" type="line" smooth="yes"/>
      <point x="238" y="382"/>
      <point x="238" y="381"/>
      <point x="238" y="399" type="curve"/>
      <point x="238" y="461" type="line"/>
      <point x="259" y="461" type="line"/>
      <point x="318" y="356" type="line"/>
      <point x="394" y="356" type="line"/>
      <point x="394" y="379" type="line"/>
      <point x="376" y="381" type="line" smooth="yes"/>
      <point x="369" y="382"/>
      <point x="369" y="381"/>
      <point x="358" y="399" type="curve" smooth="yes"/>
      <point x="315" y="468" type="line"/>
      <point x="344" y="478"/>
      <point x="360" y="501"/>
      <point x="360" y="529" type="curve" smooth="yes"/>
      <point x="360" y="545" type="line" smooth="yes"/>
      <point x="360" y="585"/>
      <point x="328" y="611"/>
      <point x="272" y="611" type="curve" smooth="yes"/>
      <point x="154" y="611" type="line"/>
    </contour>
    <contour>
      <point x="272" y="587" type="line" smooth="yes"/>
      <point x="292" y="587"/>
      <point x="304" y="573"/>
      <point x="304" y="545" type="curve" smooth="yes"/>
      <point x="304" y="529" type="line" smooth="yes"/>
      <point x="304" y="501"/>
      <point x="292" y="486"/>
      <point x="272" y="486" type="curve" smooth="yes"/>
      <point x="238" y="486" type="line"/>
      <point x="238" y="587" type="line"/>
    </contour>
  </outline>
</glyph>
<glyph name="degree" format="1">
  <advance width="366"/>
  <unicode hex="00B0"/>
  <outline>
    <contour>
      <point x="183" y="366" type="curve" smooth="yes"/>
      <point x="273" y="366"/>
      <point x="340" y="435"/>
      <point x="340" y="528" type="curve" smooth="yes"/>
      <point x="340" y="622"/>
      <point x="273" y="690"/>
      <point x="183" y="690" type="curve" smooth="yes"/>
      <point x="92" y="690"/>
      <point x="26" y="622"/>
      <point x="26" y="528" type="curve" smooth="yes"/>
      <point x="26" y="435"/>
      <point x="92" y="366"/>
    </contour>
    <contour>
      <point x="183" y="401" type="curve" smooth="yes"/>
      <point x="114" y="401"/>
      <point x="65" y="454"/>
      <point x="65" y="528" type="curve" smooth="yes"/>
      <point x="65" y="602"/>
      <point x="114" y="655"/>
      <point x="183" y="655" type="curve" smooth="yes"/>
      <point x="252" y="655"/>
      <point x="301" y="602"/>
      <point x="301" y="528" type="curve" smooth="yes"/>
      <point x="301" y="454"/>
      <point x="252" y="401"/>
    </contour>
  </outline>
</glyph>
<glyph name="acute" format="1">
  <advance width="500"/>
  <unicode hex="00B4"/>
  <outline>
    <contour>
      <point x="249" y="579" type="line"/>
      <point x="323" y="634"/>
      <point x="368" y="678"/>
      <point x="413" y="740" type="curve"/>
      <point x="287" y="740" type="line"/>
      <point x="273" y="680"/>
      <point x="252" y="643"/>
      <point x="225" y="600" type="curve"/>
    </contour>
  </outline>
</glyph>
<glyph name="mu" format="1">
  <advance width="616"/>
  <unicode hex="00B5"/>
  <outline>
    <contour>
      <point x="306" y="479" type="line"/>
      <point x="381" y="472" type="line" smooth="yes"/>
      <point x="402" y="470"/>
      <point x="403" y="468"/>
      <point x="403" y="423" type="curve"/>
      <point x="403" y="126" type="line"/>
      <point x="363" y="55"/>
      <point x="318" y="35"/>
      <point x="281" y="35" type="curve" smooth="yes"/>
      <point x="233" y="35"/>
      <point x="208" y="76"/>
      <point x="208" y="171" type="curve" smooth="yes"/>
      <point x="208" y="507" type="line"/>
      <point x="16" y="507" type="line"/>
      <point x="16" y="479" type="line"/>
      <point x="71" y="472" type="line" smooth="yes"/>
      <point x="92" y="469"/>
      <point x="93" y="468"/>
      <point x="93" y="423" type="curve"/>
      <point x="93" y="-213" type="line"/>
      <point x="219" y="-180" type="line"/>
      <point x="170" y="-107"/>
      <point x="140" y="-33"/>
      <point x="132" y="40" type="curve"/>
      <point x="159" y="7"/>
      <point x="198" y="-10"/>
      <point x="248" y="-10" type="curve" smooth="yes"/>
      <point x="306" y="-10"/>
      <point x="361" y="15"/>
      <point x="405" y="69" type="curve"/>
      <point x="414" y="19"/>
      <point x="453" y="-10"/>
      <point x="512" y="-10" type="curve" smooth="yes"/>
      <point x="555" y="-10"/>
      <point x="583" y="5"/>
      <point x="605" y="25" type="curve"/>
      <point x="587" y="51" type="line"/>
      <point x="571" y="36"/>
      <point x="559" y="30"/>
      <point x="547" y="30" type="curve" smooth="yes"/>
      <point x="532" y="30"/>
      <point x="518" y="39"/>
      <point x="518" y="107" type="curve" smooth="yes"/>
      <point x="518" y="507" type="line"/>
      <point x="306" y="507" type="line"/>
    </contour>
  </outline>
</glyph>
<glyph name="paragraph" format="1">
  <advance width="598"/>
  <unicode hex="00B6"/>
  <outline>
    <contour>
      <point x="35" y="495" type="curve" smooth="yes"/>
      <point x="35" y="472" type="line" smooth="yes"/>
      <point x="35" y="360"/>
      <point x="108" y="286"/>
      <point x="254" y="286" type="curve" smooth="yes"/>
      <point x="295" y="286" type="line"/>
      <point x="295" y="645" type="line"/>
      <point x="358" y="645" type="line"/>
      <point x="358" y="-59" type="line"/>
      <point x="358" y="-104"/>
      <point x="357" y="-106"/>
      <point x="336" y="-108" type="curve" smooth="yes"/>
      <point x="261" y="-115" type="line"/>
      <point x="261" y="-143" type="line"/>
      <point x="555" y="-143" type="line"/>
      <point x="555" y="-115" type="line"/>
      <point x="500" y="-108" type="line" smooth="yes"/>
      <point x="479" y="-105"/>
      <point x="478" y="-104"/>
      <point x="478" y="-59" type="curve"/>
      <point x="478" y="596" type="line"/>
      <point x="478" y="641"/>
      <point x="479" y="642"/>
      <point x="500" y="645" type="curve" smooth="yes"/>
      <point x="555" y="652" type="line"/>
      <point x="555" y="680" type="line"/>
      <point x="254" y="680" type="line" smooth="yes"/>
      <point x="108" y="680"/>
      <point x="35" y="607"/>
    </contour>
  </outline>
</glyph>
<glyph name="periodcentered" format="1">
  <advance width="500"/>
  <unicode hex="00B7"/>
  <outline>
    <contour>
      <point x="250" y="315" type="curve" smooth="yes"/>
      <point x="290" y="315"/>
      <point x="320" y="343"/>
      <point x="320" y="385" type="curve" smooth="yes"/>
      <point x="320" y="426"/>
      <point x="290" y="454"/>
      <point x="250" y="454" type="curve" smooth="yes"/>
      <point x="209" y="454"/>
      <point x="181" y="426"/>
      <point x="181" y="385" type="curve" smooth="yes"/>
      <point x="181" y="343"/>
      <point x="209" y="315"/>
    </contour>
  </outline>
</glyph>
<glyph name="cedilla" format="1">
  <advance width="500"/>
  <unicode hex="00B8"/>
  <outline>
    <contour>
      <point x="365" y="-140" type="curve" smooth="yes"/>
      <point x="365" y="-88"/>
      <point x="316" y="-57"/>
      <point x="240" y="-55" type="curve"/>
      <point x="263" y="0" type="line"/>
      <point x="223" y="0" type="line"/>
      <point x="197" y="-63" type="line"/>
      <point x="210" y="-89" type="line"/>
      <point x="217" y="-88"/>
      <point x="224" y="-87"/>
      <point x="230" y="-87" type="curve" smooth="yes"/>
      <point x="270" y="-87"/>
      <point x="282" y="-110"/>
      <point x="282" y="-140" type="curve" smooth="yes"/>
      <point x="282" y="-170"/>
      <point x="269" y="-191"/>
      <point x="238" y="-191" type="curve" smooth="yes"/>
      <point x="212" y="-191"/>
      <point x="195" y="-175"/>
      <point x="190" y="-131" type="curve"/>
      <point x="135" y="-145" type="line"/>
      <point x="146" y="-203"/>
      <point x="191" y="-223"/>
      <point x="246" y="-223" type="curve" smooth="yes"/>
      <point x="315" y="-223"/>
      <point x="365" y="-192"/>
    </contour>
  </outline>
</glyph>
<glyph name="ordmasculine" format="1">
  <advance width="392"/>
  <unicode hex="00BA"/>
  <outline>
    <contour>
      <point x="345" y="517" type="line" smooth="yes"/>
      <point x="345" y="619"/>
      <point x="291" y="685"/>
      <point x="196" y="685" type="curve" smooth="yes"/>
      <point x="101" y="685"/>
      <point x="47" y="619"/>
      <point x="47" y="517" type="curve" smooth="yes"/>
      <point x="47" y="504" type="line" smooth="yes"/>
      <point x="47" y="401"/>
      <point x="101" y="335"/>
      <point x="196" y="335" type="curve" smooth="yes"/>
      <point x="290" y="335"/>
      <point x="345" y="401"/>
      <point x="345" y="504" type="curve" smooth="yes"/>
    </contour>
    <contour>
      <point x="277" y="531" type="curve" smooth="yes"/>
      <point x="277" y="490" type="line" smooth="yes"/>
      <point x="277" y="397"/>
      <point x="251" y="362"/>
      <point x="196" y="362" type="curve" smooth="yes"/>
      <point x="141" y="362"/>
      <point x="115" y="397"/>
      <point x="115" y="490" type="curve" smooth="yes"/>
      <point x="115" y="531" type="line" smooth="yes"/>
      <point x="115" y="624"/>
      <point x="141" y="658"/>
      <point x="196" y="658" type="curve" smooth="yes"/>
      <point x="251" y="658"/>
      <point x="277" y="624"/>
    </contour>
  </outline>
</glyph>
<glyph name="guillemotright" format="1">
  <advance width="651"/>
  <unicode hex="00BB"/>
  <outline>
    <contour>
      <point x="55" y="458" type="line"/>
      <point x="221" y="244" type="line"/>
      <point x="55" y="30" type="line"/>
      <point x="76" y="10" type="line"/>
      <point x="351" y="232" type="line"/>
      <point x="351" y="256" type="line"/>
      <point x="76" y="478" type="line"/>
    </contour>
    <contour>
      <point x="305" y="458" type="line"/>
      <point x="471" y="244" type="line"/>
      <point x="305" y="30" type="line"/>
      <point x="326" y="10" type="line"/>
      <point x="601" y="232" type="line"/>
      <point x="601" y="256" type="line"/>
      <point x="326" y="478" type="line"/>
    </contour>
  </outline>
</glyph>
<glyph name="questiondown" format="1">
  <advance width="492.28340264546546"/>
  <unicode hex="00BF"/>
  <outline>
    <contour>
      <point x="260" y="517" type="curve" smooth="yes"/>
      <point x="219" y="517"/>
      <point x="189" y="489"/>
      <point x="189" y="446" type="curve" smooth="yes"/>
      <point x="189" y="404"/>
      <point x="219" y="376"/>
      <point x="260" y="376" type="curve" smooth="yes"/>
      <point x="302" y="376"/>
      <point x="330" y="404"/>
      <point x="330" y="446" type="curve" smooth="yes"/>
      <point x="330" y="489"/>
      <point x="302" y="517"/>
    </contour>
    <contour>
      <point x="233" y="305" type="line"/>
      <point x="235" y="288" type="line" smooth="yes"/>
      <point x="252" y="141"/>
      <point x="41" y="161"/>
      <point x="41" y="-12" type="curve" smooth="yes"/>
      <point x="41" y="-99"/>
      <point x="103" y="-183"/>
      <point x="253" y="-183" type="curve" smooth="yes"/>
      <point x="410" y="-183"/>
      <point x="473" y="-83"/>
      <point x="454" y="24" type="curve"/>
      <point x="339" y="40" type="line"/>
      <point x="352" y="-80"/>
      <point x="326" y="-148"/>
      <point x="254" y="-148" type="curve" smooth="yes"/>
      <point x="197" y="-148"/>
      <point x="166" y="-97"/>
      <point x="166" y="-2" type="curve" smooth="yes"/>
      <point x="166" y="172"/>
      <point x="284" y="143"/>
      <point x="284" y="289" type="curve" smooth="yes"/>
      <point x="284" y="305" type="line"/>
    </contour>
  </outline>
</glyph>
<glyph name="Aring" format="1">
  <advance width="639"/>
  <unicode hex="00C5"/>
  <outline>
    <contour>
      <point x="187" y="28" type="line"/>
      <point x="132" y="35" type="line" smooth="yes"/>
      <point x="111" y="38"/>
      <point x="110" y="39"/>
      <point x="124" y="84" type="curve" smooth="yes"/>
      <point x="163" y="208" type="line"/>
      <point x="394" y="208" type="line"/>
      <point x="432" y="84" type="line" smooth="yes"/>
      <point x="446" y="39"/>
      <point x="445" y="38"/>
      <point x="424" y="35" type="curve" smooth="yes"/>
      <point x="369" y="28" type="line"/>
      <point x="369" y="0" type="line"/>
      <point x="645" y="0" type="line"/>
      <point x="645" y="28" type="line"/>
      <point x="590" y="35" type="line" smooth="yes"/>
      <point x="570" y="38"/>
      <point x="568" y="39"/>
      <point x="554" y="84" type="curve" smooth="yes"/>
      <point x="367" y="664" type="line"/>
      <point x="411" y="684"/>
      <point x="436" y="726"/>
      <point x="436" y="768" type="curve" smooth="yes"/>
      <point x="436" y="779" type="line" smooth="yes"/>
      <point x="436" y="836"/>
      <point x="390" y="893"/>
      <point x="313" y="893" type="curve" smooth="yes"/>
      <point x="235" y="893"/>
      <point x="190" y="836"/>
      <point x="190" y="779" type="curve" smooth="yes"/>
      <point x="190" y="768" type="line" smooth="yes"/>
      <point x="190" y="723"/>
      <point x="219" y="677"/>
      <point x="270" y="660" type="curve"/>
      <point x="85" y="84" type="line" smooth="yes"/>
      <point x="71" y="39"/>
      <point x="71" y="38"/>
      <point x="49" y="35" type="curve" smooth="yes"/>
      <point x="-6" y="28" type="line"/>
      <point x="-6" y="0" type="line"/>
      <point x="187" y="0" type="line"/>
    </contour>
    <contour>
      <point x="363" y="786" type="curve" smooth="yes"/>
      <point x="363" y="761" type="line" smooth="yes"/>
      <point x="363" y="705"/>
      <point x="345" y="680"/>
      <point x="313" y="680" type="curve" smooth="yes"/>
      <point x="281" y="680"/>
      <point x="264" y="705"/>
      <point x="264" y="761" type="curve" smooth="yes"/>
      <point x="264" y="786" type="line" smooth="yes"/>
      <point x="264" y="841"/>
      <point x="281" y="866"/>
      <point x="313" y="866" type="curve" smooth="yes"/>
      <point x="345" y="866"/>
      <point x="363" y="841"/>
    </contour>
    <contour>
      <point x="175" y="243" type="line"/>
      <point x="280" y="575" type="line"/>
      <point x="383" y="243" type="line"/>
    </contour>
  </outline>
</glyph>
<glyph name="AE" format="1">
  <advance width="908"/>
  <unicode hex="00C6"/>
  <outline>
    <contour>
      <point x="843" y="172" type="line"/>
      <point x="815" y="172" type="line"/>
      <point x="783" y="61" type="line" smooth="yes"/>
      <point x="776" y="37"/>
      <point x="776" y="35"/>
      <point x="729" y="35" type="curve"/>
      <point x="545" y="35" type="line"/>
      <point x="545" y="326" type="line"/>
      <point x="659" y="326" type="line"/>
      <point x="706" y="326"/>
      <point x="707" y="324"/>
      <point x="713" y="300" type="curve" smooth="yes"/>
      <point x="735" y="219" type="line"/>
      <point x="763" y="219" type="line"/>
      <point x="763" y="468" type="line"/>
      <point x="735" y="468" type="line"/>
      <point x="713" y="387" type="line" smooth="yes"/>
      <point x="707" y="363"/>
      <point x="706" y="361"/>
      <point x="659" y="361" type="curve"/>
      <point x="545" y="361" type="line"/>
      <point x="545" y="645" type="line"/>
      <point x="719" y="645" type="line"/>
      <point x="766" y="645"/>
      <point x="766" y="643"/>
      <point x="773" y="619" type="curve" smooth="yes"/>
      <point x="805" y="508" type="line"/>
      <point x="833" y="508" type="line"/>
      <point x="833" y="680" type="line"/>
      <point x="320" y="680" type="line"/>
      <point x="320" y="652" type="line"/>
      <point x="375" y="645" type="line" smooth="yes"/>
      <point x="396" y="642"/>
      <point x="397" y="641"/>
      <point x="373" y="596" type="curve" smooth="yes"/>
      <point x="97" y="84" type="line" smooth="yes"/>
      <point x="73" y="39"/>
      <point x="71" y="38"/>
      <point x="49" y="35" type="curve" smooth="yes"/>
      <point x="-6" y="28" type="line"/>
      <point x="-6" y="0" type="line"/>
      <point x="190" y="0" type="line"/>
      <point x="190" y="28" type="line"/>
      <point x="135" y="35" type="line" smooth="yes"/>
      <point x="114" y="38"/>
      <point x="115" y="39"/>
      <point x="139" y="84" type="curve" smooth="yes"/>
      <point x="206" y="208" type="line"/>
      <point x="425" y="208" type="line"/>
      <point x="425" y="84" type="line"/>
      <point x="425" y="39"/>
      <point x="424" y="38"/>
      <point x="403" y="35" type="curve" smooth="yes"/>
      <point x="348" y="28" type="line"/>
      <point x="348" y="0" type="line"/>
      <point x="843" y="0" type="line"/>
    </contour>
    <contour>
      <point x="224" y="243" type="line"/>
      <point x="425" y="617" type="line"/>
      <point x="425" y="243" type="line"/>
    </contour>
  </outline>
</glyph>
<glyph name="Ccedilla" format="1">
  <advance width="597"/>
  <unicode hex="00C7"/>
  <outline>
    <contour>
      <point x="462" y="-140" type="curve" smooth="yes"/>
      <point x="462" y="-88"/>
      <point x="413" y="-57"/>
      <point x="337" y="-55" type="curve"/>
      <point x="356" y="-10" type="line"/>
      <point x="446" y="-10"/>
      <point x="529" y="30"/>
      <point x="558" y="143" type="curve"/>
      <point x="486" y="162" type="line"/>
      <point x="475" y="54"/>
      <point x="418" y="25"/>
      <point x="352" y="25" type="curve" smooth="yes"/>
      <point x="245" y="25"/>
      <point x="194" y="93"/>
      <point x="194" y="259" type="curve" smooth="yes"/>
      <point x="194" y="422" type="line" smooth="yes"/>
      <point x="194" y="588"/>
      <point x="241" y="655"/>
      <point x="327" y="655" type="curve" smooth="yes"/>
      <point x="407" y="655"/>
      <point x="451" y="581"/>
      <point x="438" y="448" type="curve"/>
      <point x="555" y="477" type="line"/>
      <point x="563" y="591"/>
      <point x="484" y="690"/>
      <point x="332" y="690" type="curve" smooth="yes"/>
      <point x="154" y="690"/>
      <point x="66" y="564"/>
      <point x="66" y="372" type="curve" smooth="yes"/>
      <point x="66" y="309" type="line" smooth="yes"/>
      <point x="66" y="129"/>
      <point x="154" y="7"/>
      <point x="317" y="-8" type="curve"/>
      <point x="294" y="-63" type="line"/>
      <point x="307" y="-89" type="line"/>
      <point x="314" y="-88"/>
      <point x="321" y="-87"/>
      <point x="327" y="-87" type="curve" smooth="yes"/>
      <point x="367" y="-87"/>
      <point x="379" y="-110"/>
      <point x="379" y="-140" type="curve" smooth="yes"/>
      <point x="379" y="-170"/>
      <point x="366" y="-191"/>
      <point x="335" y="-191" type="curve" smooth="yes"/>
      <point x="309" y="-191"/>
      <point x="292" y="-175"/>
      <point x="287" y="-131" type="curve"/>
      <point x="232" y="-145" type="line"/>
      <point x="243" y="-203"/>
      <point x="288" y="-223"/>
      <point x="343" y="-223" type="curve" smooth="yes"/>
      <point x="412" y="-223"/>
      <point x="462" y="-192"/>
    </contour>
  </outline>
</glyph>
<glyph name="Eth" format="1">
  <advance width="674"/>
  <unicode hex="00D0"/>
  <outline>
    <contour>
      <point x="48" y="652" type="line"/>
      <point x="103" y="645" type="line" smooth="yes"/>
      <point x="124" y="642"/>
      <point x="125" y="641"/>
      <point x="125" y="596" type="curve"/>
      <point x="125" y="372" type="line"/>
      <point x="48" y="372" type="line"/>
      <point x="48" y="337" type="line"/>
      <point x="125" y="337" type="line"/>
      <point x="125" y="84" type="line"/>
      <point x="125" y="39"/>
      <point x="124" y="38"/>
      <point x="103" y="35" type="curve" smooth="yes"/>
      <point x="48" y="28" type="line"/>
      <point x="48" y="0" type="line"/>
      <point x="343" y="0" type="line" smooth="yes"/>
      <point x="514" y="0"/>
      <point x="608" y="98"/>
      <point x="608" y="309" type="curve" smooth="yes"/>
      <point x="608" y="372" type="line" smooth="yes"/>
      <point x="608" y="582"/>
      <point x="514" y="680"/>
      <point x="343" y="680" type="curve" smooth="yes"/>
      <point x="48" y="680" type="line"/>
    </contour>
    <contour>
      <point x="385" y="337" type="line"/>
      <point x="385" y="372" type="line"/>
      <point x="245" y="372" type="line"/>
      <point x="245" y="645" type="line"/>
      <point x="338" y="645" type="line" smooth="yes"/>
      <point x="439" y="645"/>
      <point x="480" y="605"/>
      <point x="480" y="422" type="curve" smooth="yes"/>
      <point x="480" y="259" type="line" smooth="yes"/>
      <point x="480" y="75"/>
      <point x="439" y="35"/>
      <point x="338" y="35" type="curve" smooth="yes"/>
      <point x="245" y="35" type="line"/>
      <point x="245" y="337" type="line"/>
    </contour>
  </outline>
</glyph>
<glyph name="multiply" format="1">
  <advance width="588"/>
  <unicode hex="00D7"/>
  <outline>
    <contour>
      <point x="484" y="172" type="line"/>
      <point x="321" y="336" type="line"/>
      <point x="484" y="499" type="line"/>
      <point x="457" y="525" type="line"/>
      <point x="294" y="362" type="line"/>
      <point x="131" y="525" type="line"/>
      <point x="104" y="499" type="line"/>
      <point x="268" y="336" type="line"/>
      <point x="104" y="172" type="line"/>
      <point x="131" y="146" type="line"/>
      <point x="294" y="309" type="line"/>
      <point x="457" y="146" type="line"/>
    </contour>
  </outline>
</glyph>
<glyph name="Oslash" format="1">
  <advance width="674"/>
  <unicode hex="00D8"/>
  <outline>
    <contour>
      <point x="608" y="309" type="curve" smooth="yes"/>
      <point x="608" y="372" type="line" smooth="yes"/>
      <point x="608" y="468"/>
      <point x="588" y="543"/>
      <point x="548" y="597" type="curve"/>
      <point x="608" y="680" type="line"/>
      <point x="556" y="680" type="line"/>
      <point x="519" y="629" type="line"/>
      <point x="475" y="669"/>
      <point x="414" y="690"/>
      <point x="337" y="690" type="curve" smooth="yes"/>
      <point x="158" y="690"/>
      <point x="66" y="577"/>
      <point x="66" y="372" type="curve" smooth="yes"/>
      <point x="66" y="309" type="line" smooth="yes"/>
      <point x="66" y="213"/>
      <point x="86" y="137"/>
      <point x="126" y="83" type="curve"/>
      <point x="66" y="0" type="line"/>
      <point x="118" y="0" type="line"/>
      <point x="155" y="51" type="line"/>
      <point x="199" y="11"/>
      <point x="260" y="-10"/>
      <point x="337" y="-10" type="curve" smooth="yes"/>
      <point x="515" y="-10"/>
      <point x="608" y="104"/>
    </contour>
    <contour>
      <point x="194" y="259" type="curve" smooth="yes"/>
      <point x="194" y="422" type="line" smooth="yes"/>
      <point x="194" y="597"/>
      <point x="238" y="655"/>
      <point x="337" y="655" type="curve" smooth="yes"/>
      <point x="404" y="655"/>
      <point x="446" y="628"/>
      <point x="466" y="555" type="curve"/>
      <point x="198" y="183" type="line"/>
      <point x="195" y="205"/>
      <point x="194" y="231"/>
    </contour>
    <contour>
      <point x="480" y="422" type="curve" smooth="yes"/>
      <point x="480" y="259" type="line" smooth="yes"/>
      <point x="480" y="85"/>
      <point x="436" y="25"/>
      <point x="337" y="25" type="curve" smooth="yes"/>
      <point x="270" y="25"/>
      <point x="228" y="53"/>
      <point x="208" y="125" type="curve"/>
      <point x="477" y="498" type="line"/>
      <point x="479" y="475"/>
      <point x="480" y="450"/>
    </contour>
  </outline>
</glyph>
<glyph name="Thorn" format="1">
  <advance width="598"/>
  <unicode hex="00DE"/>
  <outline>
    <contour>
      <point x="43" y="652" type="line"/>
      <point x="98" y="645" type="line" smooth="yes"/>
      <point x="119" y="642"/>
      <point x="120" y="641"/>
      <point x="120" y="596" type="curve"/>
      <point x="120" y="84" type="line"/>
      <point x="120" y="39"/>
      <point x="119" y="38"/>
      <point x="98" y="35" type="curve" smooth="yes"/>
      <point x="43" y="28" type="line"/>
      <point x="43" y="0" type="line"/>
      <point x="337" y="0" type="line"/>
      <point x="337" y="28" type="line"/>
      <point x="262" y="35" type="line" smooth="yes"/>
      <point x="241" y="37"/>
      <point x="240" y="39"/>
      <point x="240" y="84" type="curve"/>
      <point x="240" y="147" type="line"/>
      <point x="344" y="147" type="line" smooth="yes"/>
      <point x="490" y="147"/>
      <point x="563" y="221"/>
      <point x="563" y="333" type="curve" smooth="yes"/>
      <point x="563" y="356" type="line" smooth="yes"/>
      <point x="563" y="468"/>
      <point x="490" y="541"/>
      <point x="344" y="541" type="curve" smooth="yes"/>
      <point x="240" y="541" type="line"/>
      <point x="240" y="596" type="line"/>
      <point x="240" y="641"/>
      <point x="241" y="643"/>
      <point x="262" y="645" type="curve" smooth="yes"/>
      <point x="337" y="652" type="line"/>
      <point x="337" y="680" type="line"/>
      <point x="43" y="680" type="line"/>
    </contour>
    <contour>
      <point x="344" y="506" type="line" smooth="yes"/>
      <point x="403" y="506"/>
      <point x="435" y="457"/>
      <point x="435" y="376" type="curve" smooth="yes"/>
      <point x="435" y="313" type="line" smooth="yes"/>
      <point x="435" y="231"/>
      <point x="403" y="182"/>
      <point x="344" y="182" type="curve" smooth="yes"/>
      <point x="240" y="182" type="line"/>
      <point x="240" y="506" type="line"/>
    </contour>
  </outline>
</glyph>
<glyph name="germandbls" format="1">
  <advance width="631"/>
  <unicode hex="00DF"/>
  <outline>
    <contour>
      <point x="215" y="581" type="line" smooth="yes"/>
      <point x="215" y="685"/>
      <point x="253" y="715"/>
      <point x="314" y="715" type="curve" smooth="yes"/>
      <point x="367" y="715"/>
      <point x="407" y="691"/>
      <point x="407" y="613" type="curve" smooth="yes"/>
      <point x="407" y="497"/>
      <point x="318" y="460"/>
      <point x="318" y="360" type="curve" smooth="yes"/>
      <point x="318" y="288"/>
      <point x="359" y="258"/>
      <point x="414" y="218" type="curve" smooth="yes"/>
      <point x="453" y="190" type="line" smooth="yes"/>
      <point x="499" y="157"/>
      <point x="516" y="135"/>
      <point x="516" y="99" type="curve" smooth="yes"/>
      <point x="516" y="48"/>
      <point x="486" y="25"/>
      <point x="445" y="25" type="curve" smooth="yes"/>
      <point x="392" y="25"/>
      <point x="352" y="57"/>
      <point x="343" y="145" type="curve"/>
      <point x="278" y="119" type="line"/>
      <point x="308" y="15"/>
      <point x="381" y="-10"/>
      <point x="446" y="-10" type="curve" smooth="yes"/>
      <point x="545" y="-10"/>
      <point x="607" y="53"/>
      <point x="607" y="137" type="curve" smooth="yes"/>
      <point x="607" y="197"/>
      <point x="578" y="251"/>
      <point x="521" y="292" type="curve" smooth="yes"/>
      <point x="482" y="320" type="line" smooth="yes"/>
      <point x="430" y="357"/>
      <point x="398" y="382"/>
      <point x="398" y="432" type="curve" smooth="yes"/>
      <point x="398" y="514"/>
      <point x="496" y="553"/>
      <point x="496" y="631" type="curve" smooth="yes"/>
      <point x="496" y="692"/>
      <point x="437" y="750"/>
      <point x="314" y="750" type="curve" smooth="yes"/>
      <point x="152" y="750"/>
      <point x="100" y="657"/>
      <point x="100" y="561" type="curve" smooth="yes"/>
      <point x="100" y="507" type="line"/>
      <point x="23" y="507" type="line"/>
      <point x="23" y="479" type="line"/>
      <point x="78" y="472" type="line" smooth="yes"/>
      <point x="99" y="469"/>
      <point x="100" y="468"/>
      <point x="100" y="423" type="curve"/>
      <point x="100" y="84" type="line"/>
      <point x="100" y="39"/>
      <point x="99" y="38"/>
      <point x="78" y="35" type="curve" smooth="yes"/>
      <point x="23" y="28" type="line"/>
      <point x="23" y="0" type="line"/>
      <point x="215" y="0" type="line"/>
    </contour>
  </outline>
</glyph>
<glyph name="ae" format="1">
  <advance width="807"/>
  <unicode hex="00E6"/>
  <outline>
    <contour>
      <point x="752" y="119" type="curve"/>
      <point x="688" y="137" type="line"/>
      <point x="682" y="55"/>
      <point x="638" y="25"/>
      <point x="581" y="25" type="curve" smooth="yes"/>
      <point x="491" y="25"/>
      <point x="454" y="82"/>
      <point x="454" y="224" type="curve" smooth="yes"/>
      <point x="454" y="253" type="line"/>
      <point x="750" y="253" type="line"/>
      <point x="755" y="276"/>
      <point x="757" y="299"/>
      <point x="757" y="319" type="curve" smooth="yes"/>
      <point x="757" y="445"/>
      <point x="670" y="517"/>
      <point x="551" y="517" type="curve" smooth="yes"/>
      <point x="485" y="517"/>
      <point x="434" y="491"/>
      <point x="401" y="446" type="curve"/>
      <point x="377" y="488"/>
      <point x="332" y="517"/>
      <point x="252" y="517" type="curve" smooth="yes"/>
      <point x="115" y="517"/>
      <point x="51" y="434"/>
      <point x="67" y="343" type="curve"/>
      <point x="177" y="327" type="line"/>
      <point x="155" y="453"/>
      <point x="199" y="482"/>
      <point x="250" y="482" type="curve" smooth="yes"/>
      <point x="300" y="482"/>
      <point x="331" y="448"/>
      <point x="331" y="338" type="curve" smooth="yes"/>
      <point x="331" y="257" type="line"/>
      <point x="240" y="257" type="line" smooth="yes"/>
      <point x="95" y="257"/>
      <point x="45" y="204"/>
      <point x="45" y="125" type="curve" smooth="yes"/>
      <point x="45" y="48"/>
      <point x="90" y="-10"/>
      <point x="182" y="-10" type="curve" smooth="yes"/>
      <point x="250" y="-10"/>
      <point x="317" y="22"/>
      <point x="365" y="95" type="curve"/>
      <point x="403" y="29"/>
      <point x="471" y="-10"/>
      <point x="571" y="-10" type="curve" smooth="yes"/>
      <point x="658" y="-10"/>
      <point x="728" y="25"/>
    </contour>
    <contour>
      <point x="551" y="482" type="curve" smooth="yes"/>
      <point x="606" y="482"/>
      <point x="642" y="443"/>
      <point x="642" y="358" type="curve" smooth="yes"/>
      <point x="642" y="338"/>
      <point x="640" y="315"/>
      <point x="635" y="288" type="curve"/>
      <point x="454" y="288" type="line"/>
      <point x="454" y="426"/>
      <point x="486" y="482"/>
    </contour>
    <contour>
      <point x="226" y="43" type="curve" smooth="yes"/>
      <point x="184" y="43"/>
      <point x="163" y="74"/>
      <point x="163" y="127" type="curve" smooth="yes"/>
      <point x="163" y="192"/>
      <point x="190" y="222"/>
      <point x="256" y="222" type="curve" smooth="yes"/>
      <point x="332" y="222" type="line"/>
      <point x="333" y="189"/>
      <point x="339" y="159"/>
      <point x="348" y="132" type="curve"/>
      <point x="303" y="62"/>
      <point x="265" y="43"/>
    </contour>
  </outline>
</glyph>
<glyph name="ccedilla" format="1">
  <advance width="503"/>
  <unicode hex="00E7"/>
  <outline>
    <contour>
      <point x="398" y="-140" type="curve" smooth="yes"/>
      <point x="398" y="-88"/>
      <point x="349" y="-57"/>
      <point x="273" y="-55" type="curve"/>
      <point x="292" y="-10" type="line"/>
      <point x="373" y="-8"/>
      <point x="438" y="28"/>
      <point x="461" y="119" type="curve"/>
      <point x="397" y="137" type="line"/>
      <point x="391" y="55"/>
      <point x="351" y="25"/>
      <point x="291" y="25" type="curve" smooth="yes"/>
      <point x="209" y="25"/>
      <point x="176" y="82"/>
      <point x="176" y="224" type="curve" smooth="yes"/>
      <point x="176" y="284" type="line" smooth="yes"/>
      <point x="176" y="426"/>
      <point x="207" y="482"/>
      <point x="271" y="482" type="curve" smooth="yes"/>
      <point x="335" y="482"/>
      <point x="362" y="418"/>
      <point x="348" y="306" type="curve"/>
      <point x="458" y="322" type="line"/>
      <point x="476" y="423"/>
      <point x="410" y="517"/>
      <point x="271" y="517" type="curve" smooth="yes"/>
      <point x="130" y="517"/>
      <point x="53" y="417"/>
      <point x="53" y="264" type="curve" smooth="yes"/>
      <point x="53" y="244" type="line" smooth="yes"/>
      <point x="53" y="101"/>
      <point x="119" y="4"/>
      <point x="252" y="-9" type="curve"/>
      <point x="230" y="-63" type="line"/>
      <point x="243" y="-89" type="line"/>
      <point x="250" y="-88"/>
      <point x="257" y="-87"/>
      <point x="263" y="-87" type="curve" smooth="yes"/>
      <point x="303" y="-87"/>
      <point x="315" y="-110"/>
      <point x="315" y="-140" type="curve" smooth="yes"/>
      <point x="315" y="-170"/>
      <point x="302" y="-191"/>
      <point x="271" y="-191" type="curve" smooth="yes"/>
      <point x="245" y="-191"/>
      <point x="228" y="-175"/>
      <point x="223" y="-131" type="curve"/>
      <point x="168" y="-145" type="line"/>
      <point x="179" y="-203"/>
      <point x="224" y="-223"/>
      <point x="279" y="-223" type="curve" smooth="yes"/>
      <point x="348" y="-223"/>
      <point x="398" y="-192"/>
    </contour>
  </outline>
</glyph>
<glyph name="eth" format="1">
  <advance width="561"/>
  <unicode hex="00F0"/>
  <outline>
    <contour>
      <point x="507" y="252" type="curve" smooth="yes"/>
      <point x="507" y="292" type="line" smooth="yes"/>
      <point x="507" y="412"/>
      <point x="447" y="539"/>
      <point x="331" y="641" type="curve"/>
      <point x="438" y="720" type="line"/>
      <point x="416" y="750" type="line"/>
      <point x="301" y="666" type="line"/>
      <point x="261" y="697"/>
      <point x="215" y="726"/>
      <point x="163" y="750" type="curve"/>
      <point x="150" y="719" type="line"/>
      <point x="194" y="694"/>
      <point x="231" y="666"/>
      <point x="261" y="636" type="curve"/>
      <point x="156" y="559" type="line"/>
      <point x="178" y="529" type="line"/>
      <point x="287" y="609" type="line"/>
      <point x="333" y="555"/>
      <point x="360" y="494"/>
      <point x="373" y="427" type="curve"/>
      <point x="342" y="446"/>
      <point x="306" y="457"/>
      <point x="266" y="457" type="curve" smooth="yes"/>
      <point x="137" y="457"/>
      <point x="49" y="369"/>
      <point x="49" y="234" type="curve" smooth="yes"/>
      <point x="49" y="214" type="line" smooth="yes"/>
      <point x="49" y="78"/>
      <point x="131" y="-10"/>
      <point x="277" y="-10" type="curve" smooth="yes"/>
      <point x="424" y="-10"/>
      <point x="507" y="84"/>
    </contour>
    <contour>
      <point x="172" y="194" type="curve" smooth="yes"/>
      <point x="172" y="254" type="line" smooth="yes"/>
      <point x="172" y="375"/>
      <point x="210" y="422"/>
      <point x="275" y="422" type="curve" smooth="yes"/>
      <point x="305" y="422"/>
      <point x="344" y="413"/>
      <point x="381" y="379" type="curve"/>
      <point x="383" y="357"/>
      <point x="384" y="335"/>
      <point x="384" y="312" type="curve" smooth="yes"/>
      <point x="384" y="232" type="line" smooth="yes"/>
      <point x="384" y="75"/>
      <point x="347" y="25"/>
      <point x="277" y="25" type="curve" smooth="yes"/>
      <point x="210" y="25"/>
      <point x="172" y="73"/>
    </contour>
  </outline>
</glyph>
<glyph name="divide" format="1">
  <advance width="588"/>
  <unicode hex="00F7"/>
  <outline>
    <contour>
      <point x="294" y="457" type="curve" smooth="yes"/>
      <point x="335" y="457"/>
      <point x="365" y="485"/>
      <point x="365" y="528" type="curve" smooth="yes"/>
      <point x="365" y="570"/>
      <point x="335" y="598"/>
      <point x="294" y="598" type="curve" smooth="yes"/>
      <point x="252" y="598"/>
      <point x="224" y="570"/>
      <point x="224" y="528" type="curve" smooth="yes"/>
      <point x="224" y="485"/>
      <point x="252" y="457"/>
    </contour>
    <contour>
      <point x="87" y="317" type="line"/>
      <point x="501" y="317" type="line"/>
      <point x="501" y="352" type="line"/>
      <point x="87" y="352" type="line"/>
    </contour>
    <contour>
      <point x="294" y="71" type="curve" smooth="yes"/>
      <point x="335" y="71"/>
      <point x="365" y="99"/>
      <point x="365" y="142" type="curve" smooth="yes"/>
      <point x="365" y="184"/>
      <point x="335" y="212"/>
      <point x="294" y="212" type="curve" smooth="yes"/>
      <point x="252" y="212"/>
      <point x="224" y="184"/>
      <point x="224" y="142" type="curve" smooth="yes"/>
      <point x="224" y="99"/>
      <point x="252" y="71"/>
    </contour>
  </outline>
</glyph>
<glyph name="oslash" format="1">
  <advance width="562"/>
  <unicode hex="00F8"/>
  <outline>
    <contour>
      <point x="510" y="244" type="curve" smooth="yes"/>
      <point x="510" y="264" type="line" smooth="yes"/>
      <point x="510" y="336"/>
      <point x="492" y="397"/>
      <point x="457" y="440" type="curve"/>
      <point x="510" y="507" type="line"/>
      <point x="456" y="507" type="line"/>
      <point x="427" y="470" type="line"/>
      <point x="390" y="500"/>
      <point x="341" y="517"/>
      <point x="281" y="517" type="curve" smooth="yes"/>
      <point x="134" y="517"/>
      <point x="52" y="417"/>
      <point x="52" y="264" type="curve" smooth="yes"/>
      <point x="52" y="244" type="line" smooth="yes"/>
      <point x="52" y="171"/>
      <point x="70" y="110"/>
      <point x="105" y="67" type="curve"/>
      <point x="52" y="0" type="line"/>
      <point x="106" y="0" type="line"/>
      <point x="135" y="37" type="line"/>
      <point x="172" y="7"/>
      <point x="221" y="-10"/>
      <point x="281" y="-10" type="curve" smooth="yes"/>
      <point x="427" y="-10"/>
      <point x="510" y="90"/>
    </contour>
    <contour>
      <point x="175" y="224" type="curve" smooth="yes"/>
      <point x="175" y="284" type="line" smooth="yes"/>
      <point x="175" y="426"/>
      <point x="213" y="482"/>
      <point x="281" y="482" type="curve" smooth="yes"/>
      <point x="326" y="482"/>
      <point x="357" y="459"/>
      <point x="373" y="403" type="curve"/>
      <point x="178" y="159" type="line"/>
      <point x="176" y="178"/>
      <point x="175" y="200"/>
    </contour>
    <contour>
      <point x="387" y="284" type="curve" smooth="yes"/>
      <point x="387" y="224" type="line" smooth="yes"/>
      <point x="387" y="82"/>
      <point x="350" y="25"/>
      <point x="281" y="25" type="curve" smooth="yes"/>
      <point x="237" y="25"/>
      <point x="206" y="49"/>
      <point x="189" y="104" type="curve"/>
      <point x="384" y="349" type="line"/>
      <point x="386" y="330"/>
      <point x="387" y="308"/>
    </contour>
  </outline>
</glyph>
<glyph name="thorn" format="1">
  <advance width="582"/>
  <unicode hex="00FE"/>
  <outline>
    <contour>
      <point x="13" y="712" type="line"/>
      <point x="68" y="705" type="line" smooth="yes"/>
      <point x="89" y="702"/>
      <point x="90" y="701"/>
      <point x="90" y="656" type="curve"/>
      <point x="90" y="-129" type="line"/>
      <point x="90" y="-174"/>
      <point x="89" y="-175"/>
      <point x="68" y="-178" type="curve" smooth="yes"/>
      <point x="13" y="-185" type="line"/>
      <point x="13" y="-213" type="line"/>
      <point x="302" y="-213" type="line"/>
      <point x="302" y="-185" type="line"/>
      <point x="227" y="-178" type="line" smooth="yes"/>
      <point x="206" y="-176"/>
      <point x="205" y="-174"/>
      <point x="205" y="-129" type="curve"/>
      <point x="205" y="20" type="line"/>
      <point x="234" y="1"/>
      <point x="271" y="-10"/>
      <point x="311" y="-10" type="curve" smooth="yes"/>
      <point x="445" y="-10"/>
      <point x="526" y="89"/>
      <point x="526" y="244" type="curve" smooth="yes"/>
      <point x="526" y="264" type="line" smooth="yes"/>
      <point x="526" y="424"/>
      <point x="455" y="517"/>
      <point x="343" y="517" type="curve" smooth="yes"/>
      <point x="284" y="517"/>
      <point x="241" y="489"/>
      <point x="205" y="433" type="curve"/>
      <point x="205" y="740" type="line"/>
      <point x="13" y="740" type="line"/>
    </contour>
    <contour>
      <point x="317" y="473" type="curve" smooth="yes"/>
      <point x="370" y="473"/>
      <point x="403" y="418"/>
      <point x="403" y="294" type="curve" smooth="yes"/>
      <point x="403" y="214" type="line" smooth="yes"/>
      <point x="403" y="99"/>
      <point x="372" y="29"/>
      <point x="298" y="29" type="curve" smooth="yes"/>
      <point x="263" y="29"/>
      <point x="231" y="41"/>
      <point x="205" y="67" type="curve"/>
      <point x="205" y="369" type="line"/>
      <point x="248" y="453"/>
      <point x="284" y="473"/>
    </contour>
  </outline>
</glyph>
<glyph name="Aogonek" format="1">
  <advance width="639"/>
  <unicode hex="0104"/>
  <outline>
    <contour>
      <point x="605" y="-125" type="curve"/>
      <point x="541" y="-112" type="line"/>
      <point x="533" y="-171"/>
      <point x="511" y="-189"/>
      <point x="484" y="-189" type="curve" smooth="yes"/>
      <point x="455" y="-189"/>
      <point x="441" y="-166"/>
      <point x="441" y="-129" type="curve" smooth="yes"/>
      <point x="441" y="-59"/>
      <point x="491" y="0"/>
      <point x="582" y="0" type="curve" smooth="yes"/>
      <point x="645" y="0" type="line"/>
      <point x="645" y="28" type="line"/>
      <point x="590" y="35" type="line" smooth="yes"/>
      <point x="570" y="38"/>
      <point x="568" y="39"/>
      <point x="554" y="84" type="curve" smooth="yes"/>
      <point x="362" y="680" type="line"/>
      <point x="276" y="680" type="line"/>
      <point x="85" y="84" type="line" smooth="yes"/>
      <point x="71" y="39"/>
      <point x="71" y="38"/>
      <point x="49" y="35" type="curve" smooth="yes"/>
      <point x="-6" y="28" type="line"/>
      <point x="-6" y="0" type="line"/>
      <point x="187" y="0" type="line"/>
      <point x="187" y="28" type="line"/>
      <point x="132" y="35" type="line" smooth="yes"/>
      <point x="111" y="38"/>
      <point x="110" y="39"/>
      <point x="124" y="84" type="curve" smooth="yes"/>
      <point x="163" y="208" type="line"/>
      <point x="394" y="208" type="line"/>
      <point x="458" y="-2" type="line"/>
      <point x="403" y="-30"/>
      <point x="358" y="-76"/>
      <point x="358" y="-130" type="curve" smooth="yes"/>
      <point x="358" y="-188"/>
      <point x="409" y="-223"/>
      <point x="476" y="-223" type="curve" smooth="yes"/>
      <point x="533" y="-223"/>
      <point x="585" y="-197"/>
    </contour>
    <contour>
      <point x="175" y="243" type="line"/>
      <point x="280" y="575" type="line"/>
      <point x="383" y="243" type="line"/>
    </contour>
  </outline>
</glyph>
<glyph name="aogonek" format="1">
  <advance width="538"/>
  <unicode hex="0105"/>
  <outline>
    <contour>
      <point x="533" y="-125" type="curve"/>
      <point x="469" y="-112" type="line"/>
      <point x="461" y="-171"/>
      <point x="439" y="-189"/>
      <point x="413" y="-189" type="curve" smooth="yes"/>
      <point x="383" y="-189"/>
      <point x="369" y="-166"/>
      <point x="369" y="-131" type="curve" smooth="yes"/>
      <point x="369" y="-44"/>
      <point x="463" y="-38"/>
      <point x="533" y="25" type="curve"/>
      <point x="515" y="51" type="line"/>
      <point x="499" y="36"/>
      <point x="487" y="30"/>
      <point x="475" y="30" type="curve" smooth="yes"/>
      <point x="460" y="30"/>
      <point x="446" y="39"/>
      <point x="446" y="107" type="curve" smooth="yes"/>
      <point x="446" y="338" type="line" smooth="yes"/>
      <point x="446" y="432"/>
      <point x="406" y="517"/>
      <point x="252" y="517" type="curve" smooth="yes"/>
      <point x="115" y="517"/>
      <point x="51" y="434"/>
      <point x="67" y="343" type="curve"/>
      <point x="177" y="327" type="line"/>
      <point x="155" y="453"/>
      <point x="199" y="482"/>
      <point x="250" y="482" type="curve" smooth="yes"/>
      <point x="300" y="482"/>
      <point x="331" y="448"/>
      <point x="331" y="338" type="curve" smooth="yes"/>
      <point x="331" y="257" type="line"/>
      <point x="240" y="257" type="line" smooth="yes"/>
      <point x="95" y="257"/>
      <point x="45" y="204"/>
      <point x="45" y="125" type="curve" smooth="yes"/>
      <point x="45" y="48"/>
      <point x="90" y="-10"/>
      <point x="182" y="-10" type="curve" smooth="yes"/>
      <point x="237" y="-10"/>
      <point x="291" y="11"/>
      <point x="335" y="59" type="curve"/>
      <point x="345" y="21"/>
      <point x="375" y="-3"/>
      <point x="418" y="-9" type="curve"/>
      <point x="353" y="-35"/>
      <point x="286" y="-70"/>
      <point x="286" y="-134" type="curve" smooth="yes"/>
      <point x="286" y="-188"/>
      <point x="337" y="-223"/>
      <point x="404" y="-223" type="curve" smooth="yes"/>
      <point x="461" y="-223"/>
      <point x="513" y="-197"/>
    </contour>
    <contour>
      <point x="226" y="43" type="curve" smooth="yes"/>
      <point x="184" y="43"/>
      <point x="163" y="74"/>
      <point x="163" y="127" type="curve" smooth="yes"/>
      <point x="163" y="192"/>
      <point x="190" y="222"/>
      <point x="256" y="222" type="curve" smooth="yes"/>
      <point x="331" y="222" type="line"/>
      <point x="331" y="107" type="line"/>
      <point x="293" y="57"/>
      <point x="260" y="43"/>
    </contour>
  </outline>
</glyph>
<glyph name="dcroat" format="1">
  <advance width="585"/>
  <unicode hex="0111"/>
  <outline>
    <contour>
      <point x="569" y="28" type="line"/>
      <point x="514" y="35" type="line" smooth="yes"/>
      <point x="493" y="38"/>
      <point x="492" y="39"/>
      <point x="492" y="84" type="curve"/>
      <point x="492" y="590" type="line"/>
      <point x="569" y="590" type="line"/>
      <point x="569" y="625" type="line"/>
      <point x="492" y="625" type="line"/>
      <point x="492" y="740" type="line"/>
      <point x="300" y="740" type="line"/>
      <point x="300" y="712" type="line"/>
      <point x="355" y="705" type="line" smooth="yes"/>
      <point x="376" y="702"/>
      <point x="377" y="701"/>
      <point x="377" y="656" type="curve"/>
      <point x="377" y="625" type="line"/>
      <point x="232" y="625" type="line"/>
      <point x="232" y="590" type="line"/>
      <point x="377" y="590" type="line"/>
      <point x="377" y="487" type="line"/>
      <point x="348" y="506"/>
      <point x="311" y="517"/>
      <point x="271" y="517" type="curve" smooth="yes"/>
      <point x="137" y="517"/>
      <point x="56" y="418"/>
      <point x="56" y="263" type="curve" smooth="yes"/>
      <point x="56" y="243" type="line" smooth="yes"/>
      <point x="56" y="83"/>
      <point x="127" y="-10"/>
      <point x="239" y="-10" type="curve" smooth="yes"/>
      <point x="302" y="-10"/>
      <point x="345" y="21"/>
      <point x="383" y="83" type="curve"/>
      <point x="383" y="0" type="line"/>
      <point x="569" y="0" type="line"/>
    </contour>
    <contour>
      <point x="179" y="213" type="curve" smooth="yes"/>
      <point x="179" y="293" type="line" smooth="yes"/>
      <point x="179" y="408"/>
      <point x="210" y="478"/>
      <point x="284" y="478" type="curve" smooth="yes"/>
      <point x="319" y="478"/>
      <point x="351" y="466"/>
      <point x="377" y="440" type="curve"/>
      <point x="377" y="138" type="line"/>
      <point x="334" y="54"/>
      <point x="298" y="34"/>
      <point x="265" y="34" type="curve" smooth="yes"/>
      <point x="212" y="34"/>
      <point x="179" y="89"/>
    </contour>
  </outline>
</glyph>
<glyph name="eogonek" format="1">
  <advance width="529"/>
  <unicode hex="0119"/>
  <outline>
    <contour>
      <point x="474" y="-125" type="curve"/>
      <point x="410" y="-112" type="line"/>
      <point x="402" y="-171"/>
      <point x="380" y="-189"/>
      <point x="354" y="-189" type="curve" smooth="yes"/>
      <point x="324" y="-189"/>
      <point x="310" y="-166"/>
      <point x="310" y="-125" type="curve" smooth="yes"/>
      <point x="310" y="-48"/>
      <point x="356" y="-34"/>
      <point x="427" y="34" type="curve" smooth="yes"/>
      <point x="440" y="47"/>
      <point x="462.3118331063627" y="75.16937414886036"/>
      <point x="474" y="119" type="curve"/>
      <point x="410" y="137" type="line"/>
      <point x="404" y="55"/>
      <point x="360" y="25"/>
      <point x="303" y="25" type="curve" smooth="yes"/>
      <point x="213" y="25"/>
      <point x="176" y="82"/>
      <point x="176" y="224" type="curve" smooth="yes"/>
      <point x="176" y="253" type="line"/>
      <point x="472" y="253" type="line"/>
      <point x="477" y="276"/>
      <point x="479" y="299"/>
      <point x="479" y="319" type="curve" smooth="yes"/>
      <point x="479" y="445"/>
      <point x="392" y="517"/>
      <point x="273" y="517" type="curve" smooth="yes"/>
      <point x="130" y="517"/>
      <point x="53" y="417"/>
      <point x="53" y="264" type="curve" smooth="yes"/>
      <point x="53" y="244" type="line" smooth="yes"/>
      <point x="53" y="90"/>
      <point x="133" y="-10"/>
      <point x="293" y="-10" type="curve" smooth="yes"/>
      <point x="305" y="-10"/>
      <point x="317" y="-9"/>
      <point x="329" y="-8" type="curve"/>
      <point x="276" y="-39"/>
      <point x="227" y="-70"/>
      <point x="227" y="-129" type="curve" smooth="yes"/>
      <point x="227" y="-188"/>
      <point x="278" y="-223"/>
      <point x="345" y="-223" type="curve" smooth="yes"/>
      <point x="402" y="-223"/>
      <point x="454" y="-197"/>
    </contour>
    <contour>
      <point x="273" y="482" type="curve" smooth="yes"/>
      <point x="328" y="482"/>
      <point x="364" y="443"/>
      <point x="364" y="358" type="curve" smooth="yes"/>
      <point x="364" y="338"/>
      <point x="362" y="315"/>
      <point x="357" y="288" type="curve"/>
      <point x="176" y="288" type="line"/>
      <point x="176" y="426"/>
      <point x="208" y="482"/>
    </contour>
  </outline>
</glyph>
<glyph name="Hbar" format="1">
  <advance width="753"/>
  <unicode hex="0126"/>
  <outline>
    <contour>
      <point x="322" y="28" type="line"/>
      <point x="267" y="35" type="line" smooth="yes"/>
      <point x="246" y="38"/>
      <point x="245" y="39"/>
      <point x="245" y="84" type="curve"/>
      <point x="245" y="326" type="line"/>
      <point x="508" y="326" type="line"/>
      <point x="508" y="84" type="line"/>
      <point x="508" y="39"/>
      <point x="507" y="38"/>
      <point x="486" y="35" type="curve" smooth="yes"/>
      <point x="431" y="28" type="line"/>
      <point x="431" y="0" type="line"/>
      <point x="705" y="0" type="line"/>
      <point x="705" y="28" type="line"/>
      <point x="650" y="35" type="line" smooth="yes"/>
      <point x="629" y="38"/>
      <point x="628" y="39"/>
      <point x="628" y="84" type="curve"/>
      <point x="628" y="493" type="line"/>
      <point x="705" y="493" type="line"/>
      <point x="705" y="526" type="line"/>
      <point x="628" y="526" type="line"/>
      <point x="628" y="596" type="line"/>
      <point x="628" y="641"/>
      <point x="629" y="642"/>
      <point x="650" y="645" type="curve" smooth="yes"/>
      <point x="705" y="652" type="line"/>
      <point x="705" y="680" type="line"/>
      <point x="431" y="680" type="line"/>
      <point x="431" y="652" type="line"/>
      <point x="486" y="645" type="line" smooth="yes"/>
      <point x="507" y="642"/>
      <point x="508" y="641"/>
      <point x="508" y="596" type="curve"/>
      <point x="508" y="526" type="line"/>
      <point x="245" y="526" type="line"/>
      <point x="245" y="596" type="line"/>
      <point x="245" y="641"/>
      <point x="246" y="642"/>
      <point x="267" y="645" type="curve" smooth="yes"/>
      <point x="322" y="652" type="line"/>
      <point x="322" y="680" type="line"/>
      <point x="48" y="680" type="line"/>
      <point x="48" y="652" type="line"/>
      <point x="103" y="645" type="line" smooth="yes"/>
      <point x="124" y="642"/>
      <point x="125" y="641"/>
      <point x="125" y="596" type="curve"/>
      <point x="125" y="526" type="line"/>
      <point x="48" y="526" type="line"/>
      <point x="48" y="493" type="line"/>
      <point x="125" y="493" type="line"/>
      <point x="125" y="84" type="line"/>
      <point x="125" y="39"/>
      <point x="124" y="38"/>
      <point x="103" y="35" type="curve" smooth="yes"/>
      <point x="48" y="28" type="line"/>
      <point x="48" y="0" type="line"/>
      <point x="322" y="0" type="line"/>
    </contour>
    <contour>
      <point x="245" y="361" type="line"/>
      <point x="245" y="493" type="line"/>
      <point x="508" y="493" type="line"/>
      <point x="508" y="361" type="line"/>
    </contour>
  </outline>
</glyph>
